SplineFontDB: 3.2
FontName: TDAText
FullName: TDAText
FamilyName: TDAText
Weight: Regular
Copyright: Copyright (c) 2024-2025 Dmitry Tretyakov\n\nBased on Philips SAA52XX/SAA55XX/TDA93XX IC character set:\nCopyright (c) 1985-2001 NXP Semiconductors N.V.

StartChar: exclam
Encoding: 33 33 4
Width: 600
Flags: W
HStem: 0 100<250 350> 680 20G<250 350>
VStem: 250 100<0 100 200 700>
LayerCount: 2
Back
Fore
SplineSet
250 700 m 29
 350 700 l 25
 350 200 l 25
 250 200 l 25
 250 700 l 29
350 0 m 25
 250 0 l 1
 250 100 l 25
 350 100 l 1
 350 0 l 25
EndSplineSet
Validated: 1
EndChar

StartChar: asterisk
Encoding: 42 42 5
Width: 600
Flags: W
HStem: 0 21G<250 350> 100 100<50 100 500 550> 300 100<200 250 350 400> 500 100<50 100 500 550> 680 20G<250 350>
VStem: 50 100<100 200 500 600> 100 100<200 300 400 500> 250 100<0 300 400 700> 400 100<200 300 400 500> 450 100<100 200 500 600>
LayerCount: 2
Back
Fore
SplineSet
50 600 m 29xfd
 150 600 l 25
 150 500 l 25xfd
 199 500 l 25
 200 400 l 25
 250 400 l 25
 250 700 l 25
 350 700 l 25
 350 400 l 25
 400 400 l 25
 400 500 l 25xfb80
 450 500 l 25
 450 600 l 25
 550 600 l 25
 550 500 l 25xf940
 500 500 l 25
 500 400 l 25xf980
 450 400 l 25
 450 300 l 25xf940
 500 300 l 25
 500 200 l 25xf980
 550 200 l 25
 550 100 l 25
 450 100 l 25
 450 200 l 25xf940
 400 200 l 25
 400 300 l 25
 350 300 l 25
 350 0 l 25
 250 0 l 25
 250 300 l 25
 200 300 l 25
 200 200 l 25xfb80
 150 200 l 25
 150 100 l 25
 50 100 l 25
 50 200 l 25xfd
 100 200 l 25
 100 300 l 25xfb
 150 300 l 25
 150 400 l 25xfd
 100 400 l 25
 100 500 l 25xfb
 50 500 l 25
 50 600 l 29xfd
EndSplineSet
Validated: 1
EndChar

StartChar: plus
Encoding: 43 43 6
Width: 600
Flags: W
HStem: 250 100<100 250 350 500>
VStem: 250 100<50 250 350 550>
LayerCount: 2
Back
Fore
SplineSet
250 550 m 29
 350 550 l 25
 350 350 l 25
 500 350 l 25
 500 250 l 25
 350 250 l 25
 350 50 l 25
 250 50 l 25
 250 250 l 25
 100 250 l 25
 100 350 l 25
 250 350 l 25
 250 550 l 29
EndSplineSet
Validated: 1
EndChar

StartChar: comma
Encoding: 44 44 7
Width: 600
Flags: W
HStem: -200 100<199 249> 0 100<199 249>
VStem: 199 100<-200 -100> 249 100<-100 0>
LayerCount: 2
Back
Fore
SplineSet
199 -100 m 5xe0
 249 -100 l 29
 249 0 l 5xd0
 199 0 l 29
 199 100 l 29xe0
 349 100 l 29
 349 -100 l 29xd0
 299 -100 l 29
 299 -200 l 29
 199 -200 l 29
 199 -100 l 5xe0
EndSplineSet
Validated: 1
EndChar

StartChar: hyphen
Encoding: 45 45 8
Width: 600
Flags: W
HStem: 250 100<100 500>
LayerCount: 2
Back
Fore
SplineSet
100 250 m 29
 100 350 l 25
 500 350 l 25
 500 250 l 25
 100 250 l 29
EndSplineSet
Validated: 1
EndChar

StartChar: period
Encoding: 46 46 9
Width: 600
Flags: W
HStem: 0 100<250 350>
VStem: 250 100<0 100>
LayerCount: 2
Back
Fore
SplineSet
350 0 m 29
 250 0 l 29
 250 100 l 29
 350 100 l 29
 350 0 l 29
EndSplineSet
Validated: 1
EndChar

StartChar: slash
Encoding: 47 47 10
Width: 600
Flags: W
HStem: 0 100<100 150> 600 100<450 500>
VStem: 100 100<0 100> 150 100<100 200> 200 100<200 300> 250 100<300 400> 300 100<400 500> 350 100<500 600> 400 100<600 700>
LayerCount: 2
Back
Fore
SplineSet
400 700 m 29xc080
 500 700 l 25
 500 600 l 25xc080
 450 600 l 25
 450 500 l 25xc1
 400 500 l 25
 400 400 l 25xc2
 350 400 l 25
 350 300 l 25xc4
 300 300 l 25
 300 200 l 25xc8
 250 200 l 25
 250 100 l 25xd0
 200 100 l 25
 200 0 l 25
 100 0 l 25
 100 100 l 25xe0
 150 100 l 25
 150 200 l 25xd0
 200 200 l 25
 200 300 l 25xc8
 250 300 l 25
 250 400 l 25xc4
 300 400 l 25
 300 500 l 25xc2
 350 500 l 25
 350 600 l 25xc1
 400 600 l 25
 400 700 l 29xc080
EndSplineSet
Validated: 1
EndChar

StartChar: zero
Encoding: 48 48 11
Width: 600
Flags: W
HStem: 0 100<250 400> 600 100<250 400>
VStem: 100 150<100 600> 400 150<100 600>
LayerCount: 2
Back
Fore
SplineSet
400 600 m 29
 250 600 l 25
 250 100 l 25
 400 100 l 25
 400 600 l 29
150 700 m 25
 500 700 l 25
 500 600 l 25
 550 600 l 25
 550 100 l 25
 500 100 l 25
 500 0 l 25
 150 0 l 25
 150 100 l 25
 100 100 l 25
 100 600 l 25
 150 600 l 25
 150 700 l 25
EndSplineSet
Validated: 1
EndChar

StartChar: one
Encoding: 49 49 12
Width: 600
Flags: W
HStem: 0 21G<300 450> 500 100<200 300> 680 20G<300 450>
VStem: 300 150<0 500 600 700>
LayerCount: 2
Back
Fore
SplineSet
200 500 m 29
 200 600 l 29
 300 600 l 29
 300 700 l 29
 450 700 l 29
 450 0 l 29
 300 0 l 29
 300 500 l 29
 200 500 l 29
EndSplineSet
Validated: 1
EndChar

StartChar: two
Encoding: 50 50 13
Width: 600
Flags: W
HStem: 0 100<100 150 350 550> 500 100<100 150> 600 100<200 400>
VStem: 100 100<500 600> 350 150<300 400> 400 150<400 600>
LayerCount: 2
Back
Fore
SplineSet
200 500 m 29xd4
 100 500 l 1
 100 600 l 25
 150 600 l 25xd4
 150 700 l 25
 500 700 l 25
 500 600 l 25xb8
 550 600 l 25
 550 400 l 25xb4
 500 400 l 25
 500 300 l 25
 450 300 l 25
 450 200 l 25
 350 200 l 25
 350 100 l 25xb8
 550 100 l 25
 550 0 l 25xb4
 100 0 l 25
 100 100 l 25
 150 100 l 25
 150 200 l 25
 250 200 l 25
 250 300 l 25
 350 300 l 25
 350 400 l 25xb8
 400 400 l 25
 400 600 l 25
 200 600 l 1xb4
 200 500 l 29xd4
EndSplineSet
Validated: 1
EndChar

StartChar: three
Encoding: 51 51 14
Width: 600
Flags: W
HStem: 0 100<100 450> 300 100<250 350> 600 100<100 400 500 550>
VStem: 350 100<400 500> 400 100<500 600> 450 100<100 300>
CounterMasks: 1 e0
LayerCount: 2
Back
Fore
SplineSet
100 700 m 29xe8
 550 700 l 25
 550 600 l 25xe4
 500 600 l 25
 500 500 l 25xe8
 450 500 l 25
 450 400 l 25xf0
 550 400 l 25
 550 100 l 25xe4
 500 100 l 25
 500 0 l 25xe8
 100 0 l 25
 100 100 l 25
 450 100 l 25
 450 300 l 25xe4
 250 300 l 25
 250 400 l 25
 350 400 l 25
 350 500 l 25xf0
 400 500 l 25
 400 600 l 25
 100 601 l 25
 100 700 l 29xe8
EndSplineSet
Validated: 1
EndChar

StartChar: four
Encoding: 52 52 15
Width: 600
Flags: W
HStem: 0 21G<400 550> 100 100<250 400> 600 100<500 550>
VStem: 100 150<200 300> 150 150<300 400> 250 150<400 500> 400 150<0 100 200 300 600 700>
LayerCount: 2
Back
Fore
SplineSet
400 700 m 29xea
 550 700 l 25
 550 600 l 25xea
 500 600 l 25
 500 500 l 25
 400 500 l 25
 400 400 l 25xe4
 300 400 l 25
 300 300 l 25xe8
 250 300 l 25
 250 200 l 25
 400 200 l 25
 400 300 l 25
 550 300 l 25
 550 0 l 25
 400 0 l 25
 400 100 l 25
 100 100 l 25
 100 300 l 25xf2
 150 300 l 25
 150 400 l 25xe8
 250 400 l 25
 250 500 l 25xe4
 300 500 l 25
 300 600 l 25
 400 600 l 25
 400 700 l 29xea
EndSplineSet
Validated: 1
EndChar

StartChar: five
Encoding: 53 53 16
Width: 600
Flags: W
HStem: 0 100<200 400> 100 100<100 150> 300 100<200 400> 600 100<200 500>
VStem: 100 100<100 200 400 600> 400 150<100 300>
LayerCount: 2
Back
Fore
SplineSet
500 700 m 29xbc
 500 600 l 25
 200 600 l 25
 200 400 l 25
 500 400 l 25
 500 300 l 25
 550 300 l 25
 550 100 l 25
 500 100 l 25x7c
 500 0 l 25
 150 0 l 25xbc
 150 100 l 25
 100 100 l 25
 100 200 l 25
 200 200 l 25x7c
 200 100 l 25
 400 100 l 25
 400 300 l 25
 100 300 l 25
 100 700 l 25
 500 700 l 29xbc
EndSplineSet
Validated: 1
EndChar

StartChar: six
Encoding: 54 54 17
Width: 600
Flags: W
HStem: 0 100<249 450> 300 100<300 450> 600 100<350 400>
VStem: 100 149<100 300> 150 150<400 500> 200 150<500 600> 250 150<600 700> 450 100<100 300>
CounterMasks: 1 e0
LayerCount: 2
Back
Fore
SplineSet
450 300 m 29xf1
 249 300 l 25
 249 100 l 25
 450 100 l 25
 450 300 l 29xf1
400 700 m 25xe3
 400 600 l 25xe3
 350 600 l 25
 350 500 l 25xe5
 300 500 l 25
 300 400 l 25
 500 400 l 25
 500 300 l 25
 550 300 l 25
 550 100 l 25
 500 100 l 25
 500 0 l 25
 150 0 l 25
 150 100 l 25xe9
 100 100 l 25
 100 400 l 25xf1
 150 400 l 25
 150 500 l 25xe9
 200 500 l 25
 200 600 l 25xe5
 250 600 l 25
 250 700 l 25
 400 700 l 25xe3
EndSplineSet
Validated: 1
EndChar

StartChar: seven
Encoding: 55 55 18
Width: 600
Flags: W
HStem: 0 100<100 150> 600 100<50 350 500 550>
VStem: 100 150<0 100> 150 150<100 200> 200 150<200 300> 250 150<300 400> 300 150<400 500> 350 150<500 600>
LayerCount: 2
Back
Fore
SplineSet
50 700 m 1xc1
 550 700 l 25
 550 600 l 25
 500 600 l 25
 500 500 l 25xc1
 450 500 l 25
 450 400 l 25xc2
 400 400 l 25
 400 300 l 25xc4
 350 300 l 25
 350 200 l 25xc8
 300 200 l 25
 300 100 l 25xd0
 250 100 l 25
 250 0 l 25
 100 0 l 25
 100 100 l 25xe0
 150 100 l 25
 150 200 l 25xd0
 200 200 l 25
 200 300 l 25xc8
 250 300 l 25
 250 400 l 25xc4
 300 400 l 25
 300 500 l 25xc2
 350 500 l 25
 350 600 l 1
 50 600 l 25
 50 700 l 1xc1
EndSplineSet
Validated: 1
EndChar

StartChar: eight
Encoding: 56 56 19
Width: 600
Flags: W
HStem: 0 100<250 400> 300 100<250 400> 600 100<250 400>
VStem: 100 150<100 300 400 600> 400 150<100 300 400 600>
CounterMasks: 1 e0
LayerCount: 2
Back
Fore
SplineSet
250 100 m 29
 400 100 l 25
 400 300 l 25
 250 300 l 25
 250 100 l 29
250 600 m 25
 250 400 l 25
 400 400 l 25
 400 600 l 25
 250 600 l 25
150 700 m 25
 500 700 l 25
 500 600 l 25
 550 600 l 25
 550 400 l 25
 450 400 l 25
 450 300 l 25
 550 300 l 25
 550 100 l 25
 500 100 l 25
 500 0 l 25
 150 0 l 25
 150 100 l 25
 100 100 l 25
 100 300 l 25
 200 300 l 25
 200 400 l 25
 100 400 l 25
 100 600 l 25
 150 600 l 25
 150 700 l 25
EndSplineSet
Validated: 1
EndChar

StartChar: nine
Encoding: 57 57 20
Width: 600
Flags: W
HStem: 0 100<250 300> 300 100<200 350> 600 100<200 400>
VStem: 100 100<400 600> 250 150<0 100> 300 150<100 200> 350 150<200 300> 400 150<400 600>
CounterMasks: 1 e0
LayerCount: 2
Back
Fore
SplineSet
200 600 m 29xf1
 200 400 l 25
 400 400 l 25
 400 600 l 25
 200 600 l 29xf1
150 600 m 25
 150 700 l 25
 500 700 l 25
 500 600 l 25xf2
 550 600 l 25
 550 300 l 25xf1
 499 300 l 25
 500 200 l 25xf2
 450 200 l 25
 450 100 l 25xf4
 400 100 l 25
 400 0 l 25
 250 0 l 25
 250 100 l 25xf8
 300 100 l 25
 300 200 l 25xf4
 350 200 l 25
 350 300 l 25xf2
 150 300 l 25
 150 400 l 25
 100 400 l 25
 100 600 l 25
 150 600 l 25
EndSplineSet
Validated: 1
EndChar

StartChar: colon
Encoding: 58 58 21
Width: 600
Flags: W
HStem: 0 21G<250 350> 480 20G<250 349.1>
VStem: 250 100<0 200 300 500>
LayerCount: 2
Back
Fore
SplineSet
250 200 m 29
 350 200 l 25
 350 0 l 25
 250 0 l 25
 250 200 l 29
250 500 m 25
 349 500 l 25
 350 300 l 25
 250 300 l 25
 250 500 l 25
EndSplineSet
Validated: 1
EndChar

StartChar: semicolon
Encoding: 59 59 22
Width: 600
Flags: W
HStem: -200 100<200 250> 480 20G<250 350>
VStem: 200 100<-200 -100> 250 100<-100 100 300 500>
LayerCount: 2
Back
Fore
SplineSet
250 100 m 1xd0
 350 100 l 25
 350 -100 l 1xd0
 300 -100 l 25
 300 -200 l 25
 200 -200 l 25
 200 -100 l 25xe0
 250 -100 l 25
 250 100 l 1xd0
250 500 m 25
 350 500 l 25
 350 300 l 25
 250 300 l 25
 250 500 l 25
EndSplineSet
Validated: 1
EndChar

StartChar: less
Encoding: 60 60 23
Width: 600
Flags: W
HStem: 0 100<450 550> 100 100<350 400> 200 100<250 300> 300 100<100 200> 400 100<250 300> 500 100<350 400> 600 100<450 550>
VStem: 100 150<300 400> 200 150<200 300 400 500> 300 150<100 200 500 600> 400 150<0 100 600 700>
LayerCount: 2
Back
Fore
SplineSet
400 700 m 29x0220
 550 700 l 25
 550 600 l 25x0220
 450 600 l 25x0240
 450 500 l 25x0440
 350 500 l 25x0480
 350 400 l 25x0880
 250 400 l 25
 250 300 l 25x29
 350 300 l 25
 350 200 l 25x5080
 450 200 l 25
 450 100 l 25xa040
 550 100 l 25
 550 0 l 25
 400 0 l 25xa020
 400 100 l 25x4020
 300 100 l 25x4040
 300 200 l 25x2040
 200 200 l 25x2080
 200 300 l 25x1080
 100 300 l 25
 100 400 l 25x11
 200 400 l 25
 200 500 l 25x1480
 300 500 l 25
 300 600 l 25x0a40
 400 600 l 25x0420
 400 700 l 29x0220
EndSplineSet
Validated: 1
EndChar

StartChar: equal
Encoding: 61 61 24
Width: 600
Flags: W
HStem: 200 100<100 500> 400 100<100 500>
LayerCount: 2
Back
Fore
SplineSet
100 500 m 29
 500 500 l 25
 500 400 l 25
 100 400 l 25
 100 500 l 29
100 300 m 25
 500 300 l 25
 500 200 l 25
 100 200 l 25
 100 300 l 25
EndSplineSet
Validated: 1
EndChar

StartChar: greater
Encoding: 62 62 25
Width: 600
Flags: W
HStem: 0 100<100 200> 100 100<250 300> 200 100<350 400> 300 100<450 550> 400 100<350 400> 500 100<250 300> 600 100<100 200>
VStem: 100 150<0 100 600 700> 200 150<100 200 500 600> 300 150<200 300 400 500> 400 150<300 400>
LayerCount: 2
Back
Fore
SplineSet
100 600 m 29x03
 100 700 l 25
 250 700 l 25x03
 250 600 l 25x05
 350 600 l 25
 350 500 l 25x0a80
 450 500 l 25
 450 400 l 25x1440
 550 400 l 25
 550 300 l 25x1420
 450 300 l 25x1440
 450 200 l 25x2040
 350 200 l 25x2080
 350 100 l 25x4080
 250 100 l 25x41
 250 0 l 25
 100 0 l 25
 100 100 l 25x81
 200 100 l 25
 200 200 l 25xa080
 300 200 l 25
 300 300 l 25x5040
 400 300 l 25
 400 400 l 25x2820
 300 400 l 25x2840
 300 500 l 25x0440
 200 500 l 25x0480
 200 600 l 25x0280
 100 600 l 29x03
EndSplineSet
Validated: 1
EndChar

StartChar: question
Encoding: 63 63 26
Width: 600
Flags: W
HStem: 0 100<300 400> 200 100<300 400> 300 100<400 450> 600 100<200 450>
VStem: 100 100<400 600> 300 100<0 100 200 300> 400 100<300 400> 450 100<400 600>
LayerCount: 2
Back
Fore
SplineSet
300 300 m 1xdc
 400 300 l 1
 400 200 l 1
 300 200 l 1
 300 300 l 1xdc
400 0 m 25
 300 0 l 1
 300 100 l 25
 400 100 l 1
 400 0 l 25
100 600 m 25
 150 600 l 25
 150 700 l 25
 500 700 l 25
 500 600 l 25xba
 550 600 l 25
 550 400 l 25xb9
 499 400 l 25
 500 300 l 25xba
 400 300 l 25xdc
 400 400 l 25xba
 450 400 l 25
 450 600 l 25
 200 600 l 25
 200 400 l 25
 100 400 l 25xb9
 100 600 l 25
EndSplineSet
Validated: 5
EndChar

StartChar: at
Encoding: 64 64 27
Width: 600
Flags: W
HStem: -100 100<200 500> 100 100<350 450> 400 100<350 450> 600 100<200 450>
VStem: 50 100<100 500> 100 100<0 100 500 600> 250 100<200 400> 300 250<100 200 400 500> 450 100<200 400 500 600>
LayerCount: 2
Back
Fore
SplineSet
350 400 m 29xf280
 350 200 l 25
 450 200 l 25
 450 400 l 25
 350 400 l 29xf280
150 600 m 25xf8
 150 700 l 25
 500 700 l 25
 500 600 l 25
 550 600 l 25xf880
 550 100 l 25
 300 100 l 25
 300 200 l 25xf1
 250 200 l 25
 250 400 l 25xf2
 300 400 l 25
 300 500 l 25xf1
 450 500 l 25
 450 600 l 25
 200 600 l 25
 200 500 l 25xf480
 150 500 l 25
 150 100 l 25xf8
 200 100 l 25
 200 0 l 25xf4
 500 0 l 25
 500 -100 l 25
 150 -100 l 25
 150 0 l 25xf8
 100 0 l 25
 100 100 l 25xf4
 50 100 l 25
 50 500 l 25xf8
 100 500 l 25
 100 600 l 25xf4
 150 600 l 25xf8
EndSplineSet
Validated: 1
EndChar

StartChar: A
Encoding: 65 65 28
Width: 600
Flags: W
HStem: 0 21G<50 150 450 550> 200 100<150 450> 600 100<250 350>
VStem: 50 100<0 200 300 400> 100 100<400 500> 150 100<500 600> 350 100<500 600> 400 100<400 500> 450 100<0 200 300 400>
LayerCount: 2
Back
Fore
SplineSet
150 400 m 29xf0
 150 300 l 25
 450 300 l 25
 450 400 l 25xf080
 400 400 l 25
 400 500 l 25xe1
 350 500 l 25
 350 600 l 25
 250 600 l 25
 250 500 l 25xe6
 200 500 l 25
 200 400 l 25xe8
 150 400 l 29xf0
150 0 m 25
 50 0 l 25
 50 400 l 25xf080
 100 400 l 25
 100 500 l 25xe8
 150 500 l 25
 150 600 l 25xe4
 200 600 l 25
 200 700 l 25
 399 700 l 25
 400 600 l 25xe9
 450 600 l 25
 450 500 l 25xe2
 500 500 l 25
 500 400 l 25xe1
 550 400 l 25
 550 0 l 25
 450 0 l 25
 450 200 l 25
 150 200 l 25
 150 0 l 25
EndSplineSet
Validated: 1
EndChar

StartChar: B
Encoding: 66 66 29
Width: 600
Flags: W
HStem: 0 100<200 450> 300 100<200 450> 600 100<200 450>
VStem: 100 400<0 100 300 400 600 700> 100 100<100 300 400 600> 450 100<100 300 400 600>
CounterMasks: 1 e0
LayerCount: 2
Back
Fore
SplineSet
200 600 m 29xec
 200 400 l 25
 450 400 l 25
 450 600 l 25
 200 600 l 29xec
200 300 m 25
 200 100 l 25
 450 100 l 25
 450 300 l 25
 200 300 l 25
100 0 m 25xf0
 100 700 l 25
 500 700 l 25
 500 600 l 25xf0
 550 600 l 25
 550 400 l 25xe4
 500 400 l 25
 500 300 l 25xf0
 550 300 l 25
 550 100 l 25xe4
 500 100 l 25
 500 0 l 25
 100 0 l 25xf0
EndSplineSet
Validated: 1
EndChar

StartChar: C
Encoding: 67 67 30
Width: 600
Flags: W
HStem: 0 100<250 450> 100 100<500 550> 500 100<500 550> 600 100<250 450>
VStem: 100 100<200 500> 150 100<100 200 500 600> 200 300<0 100 600 700> 450 100<100 200 500 600>
LayerCount: 2
Back
Fore
SplineSet
200 700 m 29x12
 500 700 l 25x12
 500 600 l 25x22
 550 600 l 25
 550 500 l 25
 450 500 l 25x21
 450 600 l 25
 250 600 l 25x15
 250 500 l 25x25
 200 500 l 25
 200 200 l 25x68
 250 200 l 25x64
 250 100 l 25
 450 100 l 25x85
 450 200 l 25
 550 200 l 25
 550 100 l 25x45
 500 100 l 25x42
 500 0 l 25
 200 0 l 25x82
 200 100 l 25x42
 150 100 l 25
 150 200 l 25x44
 100 200 l 25
 100 500 l 25x68
 150 500 l 25x64
 150 600 l 25x14
 200 600 l 25
 200 700 l 29x12
EndSplineSet
Validated: 1
EndChar

StartChar: D
Encoding: 68 68 31
Width: 600
Flags: W
HStem: 0 100<200 400> 600 100<200 400>
VStem: 100 100<100 600> 400 100<100 200 500 600> 450 100<200 500>
LayerCount: 2
Back
Fore
SplineSet
200 600 m 29xf0
 200 100 l 25
 400 100 l 25
 400 200 l 25xf0
 450 200 l 25
 450 500 l 25xe8
 400 500 l 25
 400 600 l 25
 200 600 l 29xf0
100 700 m 25
 450 700 l 25
 450 600 l 25xe8
 500 600 l 25
 500 500 l 25xf0
 550 500 l 25
 550 200 l 25xe8
 500 200 l 25
 500 100 l 25xf0
 450 100 l 25
 450 0 l 25xe8
 100 0 l 25
 100 700 l 25
EndSplineSet
Validated: 1
EndChar

StartChar: E
Encoding: 69 69 32
Width: 600
Flags: W
HStem: 0 100<200 550> 300 100<200 450> 600 100<200 550>
VStem: 100 100<100 300 400 600>
CounterMasks: 1 e0
LayerCount: 2
Back
Fore
SplineSet
550 600 m 29
 200 600 l 25
 200 400 l 25
 450 400 l 25
 450 300 l 25
 200 300 l 25
 200 100 l 25
 550 100 l 25
 550 0 l 25
 100 0 l 25
 100 700 l 25
 550 700 l 25
 550 600 l 29
EndSplineSet
Validated: 1
EndChar

StartChar: F
Encoding: 70 70 33
Width: 600
Flags: W
HStem: 0 21G<100 200> 300 100<200 450> 600 100<200 550>
VStem: 100 100<0 300 400 600>
LayerCount: 2
Back
Fore
SplineSet
200 0 m 29
 100 0 l 25
 100 700 l 25
 550 700 l 25
 550 600 l 25
 200 600 l 25
 200 400 l 25
 450 400 l 25
 450 300 l 25
 200 300 l 25
 200 0 l 29
EndSplineSet
Validated: 1
EndChar

StartChar: G
Encoding: 71 71 34
Width: 600
Flags: W
HStem: 0 100<200 450> 200 100<300 450> 500 100<500 550> 600 100<200 450>
VStem: 100 100<100 600> 450 100<100 200 500 600>
LayerCount: 2
Back
Fore
SplineSet
450 600 m 29xdc
 200 600 l 25
 200 100 l 25
 450 100 l 25
 450 200 l 25
 300 200 l 25
 300 300 l 25
 550 300 l 25
 550 100 l 25
 500 100 l 25
 500 0 l 25
 150 0 l 25
 150 100 l 25
 100 100 l 25
 100 600 l 25
 150 600 l 25
 150 700 l 25
 500 700 l 25xdc
 500 600 l 25
 550 600 l 25
 550 500 l 25
 450 500 l 25xec
 450 600 l 29xdc
EndSplineSet
Validated: 1
EndChar

StartChar: H
Encoding: 72 72 35
Width: 600
Flags: W
HStem: 0 21G<100 200 450 550> 300 100<200 450> 680 20G<100 200 450 550>
VStem: 100 100<0 300 400 700> 450 100<0 300 400 700>
LayerCount: 2
Back
Fore
SplineSet
100 700 m 29
 200 700 l 25
 200 400 l 25
 450 400 l 25
 450 700 l 25
 550 700 l 25
 550 0 l 25
 450 0 l 25
 450 300 l 25
 200 300 l 25
 200 0 l 25
 100 0 l 25
 100 700 l 29
EndSplineSet
Validated: 1
EndChar

StartChar: I
Encoding: 73 73 36
Width: 600
Flags: W
HStem: 0 100<100 250 350 500> 600 100<100 250 350 500>
VStem: 250 100<100 600>
LayerCount: 2
Back
Fore
SplineSet
100 700 m 29
 500 700 l 25
 500 600 l 25
 350 600 l 25
 350 100 l 25
 500 100 l 25
 500 0 l 25
 100 0 l 25
 100 100 l 25
 250 100 l 25
 250 600 l 25
 100 600 l 25
 100 700 l 29
EndSplineSet
Validated: 1
EndChar

StartChar: J
Encoding: 74 74 37
Width: 600
Flags: W
HStem: 0 100<200 450> 100 100<100 150> 680 20G<450 550>
VStem: 100 100<100 200> 450 100<100 700>
LayerCount: 2
Back
Fore
SplineSet
450 700 m 29xb8
 550 700 l 25
 550 100 l 25
 500 100 l 25x78
 500 0 l 25
 150 0 l 25xb8
 150 100 l 25
 100 100 l 25
 100 200 l 25
 200 200 l 25x78
 200 100 l 25
 450 100 l 25
 450 700 l 29xb8
EndSplineSet
Validated: 1
EndChar

StartChar: K
Encoding: 75 75 38
Width: 600
Flags: W
HStem: 0 100<450 550> 200 100<300 350> 300 100<200 250> 400 100<300 350> 600 100<450 550>
VStem: 100 100<0 300 400 700> 250 150<200 300 400 500> 350 100<100 200 500 600> 400 150<0 100 600 700>
LayerCount: 2
Back
Fore
SplineSet
100 700 m 29xae
 200 700 l 25
 200 400 l 25
 250 400 l 25xae
 250 500 l 25x9e
 350 500 l 25
 350 600 l 25x9d
 400 600 l 25
 400 700 l 25
 550 700 l 25
 550 600 l 25x9c80
 450 600 l 25
 450 500 l 25x9d
 400 500 l 25
 400 400 l 25
 300 400 l 25
 300 300 l 25xde
 400 300 l 25xae
 400 200 l 25xce
 450 200 l 25
 450 100 l 25xcd
 550 100 l 25
 550 0 l 25
 400 0 l 25
 400 100 l 25xcc80
 350 100 l 25
 350 200 l 25xcd
 250 200 l 25xce
 250 300 l 25
 200 300 l 25
 200 0 l 25
 100 0 l 25
 100 700 l 29xae
EndSplineSet
Validated: 1
EndChar

StartChar: L
Encoding: 76 76 39
Width: 600
Flags: W
HStem: 0 100<200 550> 680 20G<100 200>
VStem: 100 100<100 700>
LayerCount: 2
Back
Fore
SplineSet
100 700 m 29
 200 700 l 25
 200 100 l 25
 550 100 l 25
 550 0 l 25
 100 0 l 25
 100 700 l 29
EndSplineSet
Validated: 1
EndChar

StartChar: M
Encoding: 77 77 40
Width: 600
Flags: W
HStem: 0 21G<50 150 450 550> 680 20G<50 200 400 550>
VStem: 50 150<600 700> 50 100<0 500> 250 100<300 400> 400 150<600 700> 450 100<0 500>
LayerCount: 2
Back
Fore
SplineSet
150 0 m 29xd8
 50 0 l 25xd8
 50 700 l 25
 200 700 l 25
 200 600 l 25
 250 600 l 25
 250 500 l 25
 350 500 l 25
 350 600 l 25
 400 600 l 25
 400 700 l 25
 550 700 l 25xec
 550 0 l 25
 450 0 l 25
 450 500 l 25xca
 400 500 l 25
 400 400 l 25
 350 400 l 25
 350 300 l 25
 250 300 l 25
 250 400 l 25
 200 400 l 25
 200 500 l 25xec
 150 500 l 25
 150 0 l 29xd8
EndSplineSet
Validated: 1
EndChar

StartChar: N
Encoding: 78 78 41
Width: 600
Flags: W
HStem: 0 21G<50 150 400 550> 680 20G<50 200 450 550>
VStem: 50 150<600 700> 50 100<0 500> 200 100<400 500> 250 100<300 400> 300 100<200 300> 400 150<0 100> 450 100<200 700>
LayerCount: 2
Back
Fore
SplineSet
50 700 m 29xe0
 200 700 l 25
 200 600 l 25
 250 600 l 25
 250 500 l 25xe4
 300 500 l 25
 300 400 l 25xc8
 350 400 l 25
 350 300 l 25xc4
 400 300 l 25
 400 200 l 25
 450 200 l 25
 450 700 l 25
 550 700 l 25xc280
 550 0 l 25
 400 0 l 25
 400 100 l 25
 350 100 l 25
 350 200 l 25xc5
 300 200 l 25
 300 300 l 25xc2
 250 300 l 25
 250 400 l 25xc4
 200 400 l 25
 200 500 l 25
 150 500 l 25
 150 0 l 25
 50 0 l 25xd8
 50 700 l 29xe0
EndSplineSet
Validated: 1
EndChar

StartChar: O
Encoding: 79 79 42
Width: 600
Flags: W
HStem: 0 100<200 400> 600 100<200 400>
VStem: 50 100<200 500> 100 100<100 200 500 600> 150 300<0 100 600 700> 400 100<100 200 500 600> 450 100<200 500>
LayerCount: 2
Back
Fore
SplineSet
400 100 m 29xd4
 400 200 l 25xd4
 450 200 l 25
 450 500 l 25xc2
 400 500 l 25
 400 600 l 25
 200 600 l 25
 200 500 l 25xd4
 150 500 l 25
 150 200 l 25xe0
 200 200 l 25
 200 100 l 25
 400 100 l 29xd4
450 0 m 25xc8
 150 0 l 25
 150 100 l 25xc8
 100 100 l 25
 100 200 l 25xd0
 50 200 l 25
 50 500 l 25xe0
 100 500 l 25
 100 600 l 25xd0
 150 600 l 25
 150 700 l 25
 450 700 l 25
 450 600 l 25xc8
 500 600 l 25
 500 500 l 25xc4
 550 500 l 25
 550 200 l 25xc2
 500 200 l 25
 500 100 l 25xc4
 450 100 l 25
 450 0 l 25xc8
EndSplineSet
Validated: 1
EndChar

StartChar: P
Encoding: 80 80 43
Width: 600
Flags: W
HStem: 0 21G<100 200> 300 100<200 450> 600 100<200 450>
VStem: 100 100<0 300 400 600> 450 100<400 600>
LayerCount: 2
Back
Fore
SplineSet
200 600 m 29
 200 400 l 25
 450 400 l 25
 450 600 l 25
 200 600 l 29
100 700 m 25
 500 700 l 25
 500 650 l 25
 550 650 l 25
 550 400 l 25
 500 400 l 25
 500 300 l 25
 200 300 l 25
 200 0 l 25
 100 0 l 25
 100 700 l 25
EndSplineSet
Validated: 1
EndChar

StartChar: Q
Encoding: 81 81 44
Width: 600
Flags: W
HStem: -200 100<450 550> 0 100<150 300> 600 100<150 450>
VStem: 50 100<100 600> 300 100<100 200> 350 100<-100 0> 400 150<-200 -100> 450 100<100 600>
LayerCount: 2
Back
Fore
SplineSet
150 600 m 29xf9
 150 100 l 25
 300 100 l 25
 300 200 l 25
 400 200 l 25
 400 100 l 25
 450 100 l 25
 450 600 l 25
 150 600 l 29xf9
100 700 m 25
 500 700 l 25
 500 600 l 25
 550 600 l 25
 550 100 l 25xf1
 500 100 l 25
 500 0 l 25
 450 0 l 25
 450 -100 l 25xf4
 550 -100 l 25
 550 -200 l 25
 400 -200 l 25
 400 -100 l 25xf2
 350 -100 l 25
 350 0 l 25xf4
 100 0 l 25
 100 100 l 25
 50 100 l 25
 50 600 l 25
 100 600 l 25
 100 700 l 25
EndSplineSet
Validated: 1
EndChar

StartChar: R
Encoding: 82 82 45
Width: 600
Flags: W
HStem: 0 100<450 550> 300 100<200 300 400 450> 600 100<200 450>
VStem: 100 100<0 300 400 600> 300 100<200 300> 350 100<100 200> 400 150<0 100> 450 100<400 600>
CounterMasks: 1 e0
LayerCount: 2
Back
Fore
SplineSet
200 600 m 29xf1
 200 400 l 25
 450 400 l 25
 450 600 l 25
 200 600 l 29xf1
100 700 m 25
 500 700 l 25
 500 650 l 25
 550 650 l 25
 550 400 l 25
 500 400 l 25
 500 300 l 25
 400 300 l 25
 400 200 l 25xf9
 450 200 l 25
 450 100 l 25xf4
 550 100 l 25
 550 0 l 25
 400 0 l 25
 400 100 l 25xf2
 350 100 l 25
 350 200 l 25xf4
 300 200 l 25
 300 300 l 25xf8
 200 300 l 25
 200 0 l 25
 100 0 l 25
 100 700 l 25
EndSplineSet
Validated: 1
EndChar

StartChar: S
Encoding: 83 83 46
Width: 600
Flags: W
HStem: 0 100<150 450> 300 100<200 450> 600 100<200 500>
VStem: 100 100<400 600> 150 350<0 100 300 400 600 700> 450 100<100 300>
CounterMasks: 1 e0
LayerCount: 2
Back
Fore
SplineSet
150 600 m 29xe8
 150 700 l 25
 500 700 l 25
 500 600 l 25xe8
 200 600 l 25
 200 400 l 25xf0
 500 400 l 25
 500 300 l 25xe8
 550 300 l 25
 550 100 l 25xe4
 500 100 l 25
 500 0 l 25
 150 0 l 25
 150 100 l 25xe8
 450 100 l 25
 450 300 l 25xe4
 150 300 l 25
 150 400 l 25xe8
 100 400 l 25
 100 600 l 25xf0
 150 600 l 29xe8
EndSplineSet
Validated: 1
EndChar

StartChar: T
Encoding: 84 84 47
Width: 600
Flags: W
HStem: 0 21G<250 350> 600 100<50 250 350 550>
VStem: 250 100<0 600>
LayerCount: 2
Back
Fore
SplineSet
50 700 m 1
 550 700 l 5
 550 600 l 1
 350 600 l 1
 350 0 l 25
 250 0 l 25
 250 600 l 1
 50 600 l 1
 50 700 l 1
EndSplineSet
Validated: 1
EndChar

StartChar: U
Encoding: 85 85 48
Width: 600
Flags: W
HStem: 0 100<200 450> 680 20G<100 200 450 550>
VStem: 100 100<100 700> 450 100<100 700>
LayerCount: 2
Back
Fore
SplineSet
100 700 m 29
 200 700 l 25
 200 100 l 25
 450 100 l 25
 450 700 l 25
 550 700 l 25
 550 100 l 25
 500 100 l 25
 500 0 l 25
 150 0 l 25
 150 100 l 25
 100 100 l 25
 100 700 l 29
EndSplineSet
Validated: 1
EndChar

StartChar: V
Encoding: 86 86 49
Width: 600
Flags: W
HStem: 0 21G<300 400> 680 20G<100 200 500 600>
VStem: 100 100<500 700> 150 100<300 500> 200 100<200 300> 300 100<0 100> 400 100<200 300> 450 100<300 500> 500 100<500 700>
LayerCount: 2
Back
Fore
SplineSet
100 700 m 29xe0
 200 700 l 25
 200 500 l 25xe0
 250 500 l 25
 250 300 l 25xd0
 300 300 l 25
 300 200 l 25
 400 200 l 25
 400 300 l 25xca
 450 300 l 25
 450 500 l 25xc1
 500 500 l 25
 500 700 l 25
 600 700 l 25
 600 500 l 25xc080
 550 500 l 25
 550 300 l 25xc1
 500 300 l 25
 500 200 l 25xc2
 450 200 l 25
 450 100 l 25
 400 100 l 25
 400 0 l 25
 300 0 l 25
 300 100 l 25
 250 100 l 25
 250 200 l 25xd5
 200 200 l 25
 200 300 l 25xc8
 150 300 l 25
 150 500 l 25xd0
 100 500 l 25
 100 700 l 29xe0
EndSplineSet
Validated: 1
EndChar

StartChar: W
Encoding: 87 87 50
Width: 600
Flags: W
HStem: 0 21G<100 200 400 500> 680 20G<50 150 450 550>
VStem: 50 100<200 700> 100 150<100 200> 100 100<0 100> 250 100<300 400> 350 150<100 200> 400 100<0 100> 450 100<200 700>
LayerCount: 2
Back
Fore
SplineSet
50 700 m 29xe0
 150 700 l 25
 150 200 l 25xe0
 200 200 l 25
 200 300 l 25
 250 300 l 25
 250 400 l 25
 350 400 l 25
 350 300 l 25
 400 300 l 25
 400 200 l 25xcd
 450 200 l 25
 450 700 l 25
 550 700 l 25
 550 200 l 25xc080
 500 200 l 25xc2
 500 0 l 25
 400 0 l 25
 400 100 l 25xc1
 350 100 l 25
 350 200 l 25
 250 200 l 25
 250 100 l 25xd2
 200 100 l 25
 200 0 l 25
 100 0 l 25xc8
 100 200 l 25xd0
 50 200 l 25
 50 700 l 29xe0
EndSplineSet
Validated: 1
EndChar

StartChar: X
Encoding: 88 88 51
Width: 600
Flags: W
HStem: 0 100<100 150 450 500> 600 100<100 150 450 500>
VStem: 100 100<0 100 600 700> 150 100<100 200 500 600> 200 200<200 300 400 500> 350 100<100 200 500 600> 400 100<0 100 600 700>
LayerCount: 2
Back
Fore
SplineSet
100 700 m 29xe0
 200 700 l 25
 200 600 l 25xe0
 250 600 l 25
 250 500 l 25
 350 500 l 25
 350 600 l 25xd4
 400 600 l 25
 400 700 l 25
 500 700 l 25
 500 600 l 25xc2
 450 600 l 25
 450 500 l 25xc4
 400 500 l 25
 400 400 l 25xc8
 350 400 l 25
 350 300 l 25xc4
 400 300 l 25
 400 200 l 25xc8
 450 200 l 25
 450 100 l 25xc4
 500 100 l 25
 500 0 l 25
 400 0 l 25
 400 100 l 25xc2
 350 100 l 25
 350 200 l 25
 250 200 l 25
 250 100 l 25xd4
 200 100 l 25
 200 0 l 25
 100 0 l 25
 100 100 l 25xe0
 150 100 l 25
 150 200 l 25xd0
 200 200 l 25
 200 300 l 25xc8
 250 300 l 25
 250 400 l 25xd0
 200 400 l 25
 200 500 l 25xc8
 150 500 l 25
 150 600 l 25xd0
 100 600 l 25
 100 700 l 29xe0
EndSplineSet
Validated: 1
EndChar

StartChar: Y
Encoding: 89 89 52
Width: 600
Flags: W
HStem: 0 21G<250 350> 600 100<50 100 500 550>
VStem: 50 100<600 700> 100 100<500 600> 150 100<400 500> 250 100<0 300> 350 100<400 500> 400 100<500 600> 450 100<600 700>
LayerCount: 2
Back
Fore
SplineSet
50 700 m 29xe0
 150 700 l 25
 150 600 l 25xe0
 200 600 l 25
 200 500 l 25xd0
 250 500 l 25
 250 400 l 25
 350 400 l 25
 350 500 l 25xca
 400 500 l 25
 400 600 l 25xc1
 450 600 l 25
 450 700 l 25
 550 700 l 25
 550 600 l 25xc080
 500 600 l 25
 500 500 l 25xc1
 450 500 l 25
 450 400 l 25xc2
 400 400 l 25
 400 300 l 25
 350 300 l 25
 350 0 l 25
 250 0 l 25
 250 300 l 25
 200 300 l 25
 200 400 l 25xd5
 150 400 l 25
 150 500 l 25xc8
 100 500 l 25
 100 600 l 25xd0
 50 600 l 25
 50 700 l 29xe0
EndSplineSet
Validated: 1
EndChar

StartChar: Z
Encoding: 90 90 53
Width: 600
Flags: W
HStem: 0 100<100 150 250 500> 600 100<100 350 450 500>
VStem: 150 100<100 200> 200 100<200 300> 250 100<300 400> 300 100<400 500> 350 100<500 600>
LayerCount: 2
Back
Fore
SplineSet
100 700 m 29xc2
 500 700 l 25
 500 600 l 25
 450 600 l 25
 450 500 l 25xc2
 400 500 l 25
 400 400 l 25xc4
 350 400 l 25
 350 300 l 25xc8
 300 300 l 25
 300 200 l 25xd0
 250 200 l 25
 250 100 l 25
 500 100 l 25
 500 0 l 25
 100 0 l 25
 100 100 l 25
 150 100 l 25
 150 200 l 25xe0
 200 200 l 25
 200 300 l 25xd0
 250 300 l 25
 250 400 l 25xc8
 300 400 l 25
 300 500 l 25xc4
 350 500 l 25
 350 600 l 25
 100 600 l 25
 100 700 l 29xc2
EndSplineSet
Validated: 1
EndChar

StartChar: a
Encoding: 97 97 54
Width: 600
Flags: W
HStem: 0 100<150 400 500 549> 100 100<50 100> 200 100<150 400> 400 100<100 400>
VStem: 50 100<100 200> 400 100<100 200 300 400>
LayerCount: 2
Back
Fore
SplineSet
150 200 m 29xbc
 150 100 l 25
 400 100 l 25
 400 200 l 25
 150 200 l 29xbc
100 500 m 25
 450 500 l 25
 450 400 l 25
 500 400 l 25
 500 100 l 25
 549 100 l 25
 550 0 l 25
 100 0 l 25xbc
 100 100 l 25
 50 100 l 25
 50 200 l 25
 100 200 l 25x5c
 100 300 l 25
 400 300 l 25
 400 400 l 25
 100 400 l 25
 100 500 l 25
EndSplineSet
Validated: 1
EndChar

StartChar: b
Encoding: 98 98 55
Width: 600
Flags: W
HStem: 0 100<200 450> 300 100<200 250> 400 100<250 450> 680 20G<100 200>
VStem: 100 150<300 400> 100 100<100 300 400 700> 450 100<100 400>
LayerCount: 2
Back
Fore
SplineSet
450 400 m 29xb6
 250 400 l 25
 250 300 l 25xda
 200 300 l 25xd6
 200 100 l 25
 450 100 l 25
 450 400 l 29xb6
100 700 m 25xb6
 200 700 l 25
 200 400 l 25xd6
 250 400 l 25xda
 250 500 l 25xba
 500 500 l 25
 500 400 l 25
 550 400 l 25
 550 100 l 25
 500 100 l 25
 500 0 l 25
 100 0 l 25
 100 700 l 25xb6
EndSplineSet
Validated: 5
EndChar

StartChar: c
Encoding: 99 99 56
Width: 600
Flags: W
HStem: 0 100<250 550> 200 100<100 150> 400 100<250 550>
VStem: 100 100<200 300> 150 100<100 200 300 400>
CounterMasks: 1 e0
LayerCount: 2
Back
Fore
SplineSet
200 500 m 29xf0
 550 500 l 25
 550 400 l 25
 250 400 l 25
 250 300 l 25xe8
 200 300 l 25
 200 200 l 25xf0
 250 200 l 25
 250 100 l 25xe8
 550 100 l 25
 550 0 l 25
 200 0 l 25
 200 100 l 25xf0
 150 100 l 25
 150 200 l 25xe8
 100 200 l 25
 100 300 l 25xf0
 150 300 l 25
 150 400 l 25xe8
 200 400 l 25
 200 500 l 29xf0
EndSplineSet
Validated: 1
EndChar

StartChar: d
Encoding: 100 100 57
Width: 600
Flags: W
HStem: 0 100<200 450> 300 100<400 450> 400 100<200 400> 680 20G<450 550>
VStem: 100 100<100 400> 400 150<300 400> 450 100<100 300 400 700>
LayerCount: 2
Back
Fore
SplineSet
200 100 m 29xbc
 450 100 l 25
 450 300 l 25xda
 400 300 l 25
 400 400 l 25xdc
 200 400 l 25
 200 100 l 29xbc
450 700 m 25
 550 700 l 25
 550 0 l 25xda
 150 0 l 25
 150 100 l 25
 100 100 l 25
 100 400 l 25
 150 400 l 25
 150 500 l 25
 400 500 l 25xbc
 400 400 l 25xdc
 450 400 l 25
 450 700 l 25
EndSplineSet
Validated: 5
EndChar

StartChar: e
Encoding: 101 101 58
Width: 600
Flags: W
HStem: 0 100<200 500> 200 100<200 450> 400 100<200 450>
VStem: 100 100<100 200 300 400> 450 100<300 400>
CounterMasks: 1 e0
LayerCount: 2
Back
Fore
SplineSet
200 400 m 1
 200 300 l 1
 450 300 l 1
 450 400 l 1
 200 400 l 1
150 400 m 1
 150 500 l 1
 499 500 l 1
 500 400 l 25
 550 400 l 25
 550 200 l 1
 200 200 l 1
 200 100 l 1
 500 100 l 1
 500 0 l 1
 150 0 l 1
 150 100 l 1
 100 100 l 1
 100 400 l 5
 150 400 l 1
EndSplineSet
Validated: 1
EndChar

StartChar: f
Encoding: 102 102 59
Width: 600
Flags: W
HStem: 0 21G<200 300> 300 100<100 200 300 450> 600 100<300 550>
VStem: 200 100<0 300 400 600>
LayerCount: 2
Back
Fore
SplineSet
250 600 m 29
 250 700 l 25
 550 700 l 25
 550 600 l 25
 300 600 l 25
 300 400 l 25
 450 400 l 25
 450 300 l 25
 300 300 l 25
 300 0 l 25
 200 0 l 25
 200 300 l 25
 100 300 l 25
 100 400 l 25
 200 400 l 25
 200 600 l 25
 250 600 l 29
EndSplineSet
Validated: 1
EndChar

StartChar: g
Encoding: 103 103 60
Width: 600
Flags: W
HStem: -200 100<150 450> 0 100<200 400> 100 100<400 450> 300 100<400 450> 400 100<200 400>
VStem: 100 100<100 400> 150 250<0 100 400 498> 400 150<100 200 300 400> 450 100<-100 100 200 300 400 500>
LayerCount: 2
Back
Fore
SplineSet
200 400 m 29x8c
 200 100 l 25xcc
 400 100 l 25xca
 400 200 l 25xa1
 450 200 l 25
 450 300 l 25xb080
 400 300 l 25xb1
 400 400 l 25xb2
 200 400 l 29x8c
150 400 m 25xaa
 150 498 l 25xaa
 400 500 l 25xa9
 400 400 l 25
 450 400 l 25x9280
 450 500 l 25
 550 500 l 25
 550 -100 l 25
 500 -100 l 25
 500 -200 l 25
 150 -200 l 25
 150 -100 l 25
 450 -100 l 25
 450 100 l 25xaa80
 400 100 l 25
 400 0 l 25
 150 0 l 25xc280
 150 100 l 25xa280
 100 100 l 25
 100 400 l 25xac
 150 400 l 25xaa
EndSplineSet
Validated: 5
EndChar

StartChar: h
Encoding: 104 104 61
Width: 600
Flags: W
HStem: 0 21G<100 200 450 550> 300 100<200 250> 400 100<250 450> 680 20G<100 200>
VStem: 100 150<300 400> 100 100<0 300 400 700> 450 100<0 400>
LayerCount: 2
Back
Fore
SplineSet
100 700 m 29xd6
 200 700 l 25
 200 400 l 25xd6
 250 400 l 25xda
 250 500 l 25
 500 500 l 25
 500 400 l 25
 550 400 l 25
 550 0 l 25
 450 0 l 25
 450 400 l 25xba
 250 400 l 25
 250 300 l 25xda
 200 300 l 25
 200 0 l 25
 100 0 l 25
 100 700 l 29xd6
EndSplineSet
Validated: 5
EndChar

StartChar: i
Encoding: 105 105 62
Width: 600
Flags: W
HStem: 0 100<150 250 349 450> 400 100<200 250> 600 100<200 350>
VStem: 200 150<400 500 600 700> 250 100<100 400>
LayerCount: 2
Back
Fore
SplineSet
200 500 m 1xf0
 350 500 l 25xf0
 349 100 l 25
 450 100 l 25
 450 0 l 25
 150 0 l 25
 150 100 l 25
 250 100 l 25
 250 400 l 1xe8
 200 400 l 29
 200 500 l 1xf0
200 700 m 25
 350 700 l 25
 350 600 l 25
 200 600 l 25
 200 700 l 25
EndSplineSet
Validated: 1
EndChar

StartChar: j
Encoding: 106 106 63
Width: 600
Flags: W
HStem: -200 100<200 450> -100 100<100 150> 400 100<400 450> 600 100<400 549>
VStem: 100 100<-100 0> 400 150<400 500 600 700> 450 100<-100 400>
LayerCount: 2
Back
Fore
SplineSet
400 400 m 29xbc
 400 500 l 25
 550 500 l 25xbc
 550 -100 l 25
 500 -100 l 25x7a
 500 -200 l 25
 150 -200 l 25xba
 150 -100 l 25
 100 -100 l 25
 100 0 l 25
 200 0 l 25x7a
 200 -100 l 25
 450 -100 l 25
 450 400 l 25xba
 400 400 l 29xbc
400 700 m 25
 549 700 l 25
 550 600 l 25
 400 600 l 25
 400 700 l 25
EndSplineSet
Validated: 1
EndChar

StartChar: k
Encoding: 107 107 64
Width: 600
Flags: W
HStem: 0 100<400 500> 200 100<200 300> 400 100<400 500> 680 20G<100 200>
VStem: 100 100<0 200 300 700> 300 100<100 200 300 400> 350 150<0 100 400 500>
LayerCount: 2
Back
Fore
SplineSet
100 700 m 29xfc
 200 700 l 25
 200 300 l 25
 300 300 l 25
 300 400 l 25xfc
 350 400 l 25
 350 500 l 25
 500 500 l 25
 500 400 l 25xfa
 400 400 l 25
 400 300 l 25xfc
 350 300 l 25
 350 200 l 25xfa
 400 200 l 25
 400 100 l 25xfc
 500 100 l 25
 500 0 l 25
 350 0 l 25
 350 100 l 25xfa
 300 100 l 25
 300 200 l 25
 200 200 l 25
 200 0 l 25
 100 0 l 25
 100 700 l 29xfc
EndSplineSet
Validated: 1
EndChar

StartChar: l
Encoding: 108 108 65
Width: 600
Flags: W
HStem: 0 100<100 250 350 500> 650 100<150 250>
VStem: 250 100<100 650>
LayerCount: 2
Back
Fore
SplineSet
150 750 m 29
 350 750 l 25
 350 100 l 25
 500 100 l 25
 500 0 l 25
 100 0 l 25
 100 100 l 25
 250 100 l 25
 250 650 l 25
 150 650 l 25
 150 750 l 29
EndSplineSet
Validated: 1
EndChar

StartChar: m
Encoding: 109 109 66
Width: 600
Flags: W
HStem: 0 21G<50 150 250 350 450 550> 400 100<150 250 350 450>
VStem: 50 100<0 400> 250 100<0 400> 450 100<0 400>
CounterMasks: 1 38
LayerCount: 2
Back
Fore
SplineSet
50 0 m 29
 50 500 l 25
 499 500 l 25
 500 400 l 25
 550 400 l 25
 550 0 l 25
 450 0 l 25
 450 400 l 25
 350 400 l 25
 350 0 l 25
 250 0 l 25
 250 400 l 25
 150 400 l 25
 150 0 l 25
 50 0 l 29
EndSplineSet
Validated: 1
EndChar

StartChar: n
Encoding: 110 110 67
Width: 600
Flags: W
HStem: 0 21G<100 200 450 550> 300 100<200 250> 400 100<250 450>
VStem: 100 150<300 400> 100 100<0 300 400 500> 450 100<0 400>
LayerCount: 2
Back
Fore
SplineSet
100 0 m 29xcc
 100 500 l 25
 200 500 l 25xac
 200 400 l 25xcc
 250 400 l 25xd4
 250 500 l 25
 500 500 l 25
 500 400 l 25
 550 400 l 25
 550 0 l 25
 450 0 l 25
 450 400 l 25xb4
 250 400 l 25
 250 300 l 25xd4
 200 300 l 25
 200 0 l 25
 100 0 l 29xcc
EndSplineSet
Validated: 5
EndChar

StartChar: o
Encoding: 111 111 68
Width: 600
Flags: W
HStem: 0 100<200 450> 400 100<200 450>
VStem: 100 100<100 400> 450 100<100 400>
LayerCount: 2
Back
Fore
SplineSet
200 400 m 29
 200 100 l 25
 450 100 l 25
 450 400 l 25
 200 400 l 29
150 500 m 25
 500 500 l 25
 500 400 l 25
 550 400 l 25
 550 100 l 25
 500 100 l 25
 500 0 l 25
 150 0 l 25
 150 100 l 25
 100 100 l 25
 100 400 l 25
 150 400 l 25
 150 500 l 25
EndSplineSet
Validated: 1
EndChar

StartChar: p
Encoding: 112 112 69
Width: 600
Flags: W
HStem: -200 21G<100 200> 0 100<250 450> 100 100<200 250> 300 100<200 250> 400 100<250 450>
VStem: 100 150<100 200 300 400> 100 100<-200 100 200 300 400 500> 250 250<0 100 400 500> 450 100<100 400>
LayerCount: 2
Back
Fore
SplineSet
250 300 m 29x9480
 200 300 l 25
 200 200 l 25xb2
 250 200 l 25xb4
 250 100 l 25
 450 100 l 25
 450 400 l 25xcc80
 250 400 l 25
 250 300 l 29x9480
100 500 m 25xaa
 200 500 l 25xaa
 200 400 l 25x92
 250 400 l 25x94
 250 500 l 25
 500 500 l 25
 500 400 l 25x89
 550 400 l 25
 550 100 l 25xa880
 500 100 l 25xa9
 500 0 l 25
 250 0 l 25xc1
 250 100 l 25xc4
 200 100 l 25
 200 -200 l 25
 100 -200 l 25
 100 500 l 25xaa
EndSplineSet
Validated: 5
EndChar

StartChar: q
Encoding: 113 113 70
Width: 600
Flags: W
HStem: -200 21G<450 550> 0 100<200 400> 100 100<400 450> 300 100<400 450> 400 100<200 400>
VStem: 100 100<100 400> 150 250<0 100 400 500> 400 150<100 200 300 400> 450 100<-200 100 200 300 400 500>
LayerCount: 2
Back
Fore
SplineSet
200 400 m 29x8c
 200 100 l 25xcc
 400 100 l 25xca
 400 200 l 25xa1
 450 200 l 25
 450 300 l 25xb080
 400 300 l 25xb1
 400 400 l 25xb2
 200 400 l 29x8c
150 500 m 25xaa
 400 500 l 25xaa
 400 400 l 25
 450 400 l 25x9280
 450 500 l 25
 550 500 l 25
 550 -200 l 25
 450 -200 l 25
 450 100 l 25xaa80
 400 100 l 25
 400 0 l 25
 150 0 l 25xc280
 150 100 l 25xa280
 100 100 l 25
 100 400 l 25xac
 150 400 l 25
 150 500 l 25xaa
EndSplineSet
Validated: 5
EndChar

StartChar: r
Encoding: 114 114 71
Width: 600
Flags: W
HStem: 0 21G<100 200> 300 100<200 300> 400 100<300 550>
VStem: 100 100<0 300 400 500>
LayerCount: 2
Back
Fore
SplineSet
100 0 m 29xd0
 100 500 l 25
 200 500 l 25xb0
 200 400 l 25
 300 400 l 25xd0
 300 500 l 25
 550 500 l 25
 550 400 l 25xb0
 300 400 l 25
 300 300 l 25
 200 300 l 25
 200 0 l 25
 100 0 l 29xd0
EndSplineSet
Validated: 5
EndChar

StartChar: s
Encoding: 115 115 72
Width: 600
Flags: W
HStem: 0 100<150 450> 100 100<500 550> 200 100<200 450> 300 100<100 150> 400 100<200 500>
VStem: 100 100<300 400> 150 350<0 100 200 300 400 500> 450 100<100 200>
LayerCount: 2
Back
Fore
SplineSet
500 400 m 1x0a
 200 400 l 1
 200 300 l 1x2c
 500 300 l 1
 500 200 l 25x52
 550 200 l 25
 550 100 l 25x51
 500 100 l 25x52
 500 0 l 1
 150 0 l 5
 150 100 l 1x82
 450 100 l 1
 450 200 l 1xa1
 150 200 l 1xa2
 150 300 l 1x12
 100 300 l 1
 100 400 l 1x14
 150 400 l 1x12
 150 500 l 1
 500 500 l 1
 500 400 l 1x0a
EndSplineSet
Validated: 1
EndChar

StartChar: t
Encoding: 116 116 73
Width: 600
Flags: W
HStem: 0 100<300 550> 400 100<100 200 300 450> 680 20G<200 300>
VStem: 200 100<100 400 500 700>
LayerCount: 2
Back
Fore
SplineSet
200 700 m 25
 300 700 l 25
 300 500 l 1
 450 500 l 5
 450 400 l 1
 300 400 l 1
 300 100 l 25
 550 100 l 25
 550 0 l 25
 250 0 l 25
 250 100 l 25
 200 100 l 25
 200 400 l 25
 100 400 l 25
 100 500 l 25
 200 500 l 25
 200 700 l 25
EndSplineSet
Validated: 1
EndChar

StartChar: u
Encoding: 117 117 74
Width: 600
Flags: W
HStem: 0 100<200 400> 100 100<400 450> 480 20G<100 200 450 550>
VStem: 100 100<100 500> 400 150<100 200> 450 100<0 100 200 500>
LayerCount: 2
Back
Fore
SplineSet
100 500 m 29x78
 200 500 l 25
 200 100 l 25
 400 100 l 25xb8
 400 200 l 25x78
 450 200 l 25x74
 450 500 l 25
 550 500 l 25
 550 0 l 25
 450 0 l 25xb4
 450 100 l 25x74
 400 100 l 25
 400 0 l 25
 150 0 l 25xb8
 150 100 l 25
 100 100 l 25
 100 500 l 29x78
EndSplineSet
Validated: 5
EndChar

StartChar: v
Encoding: 118 118 75
Width: 600
Flags: W
HStem: 0 21G<250 350> 400 100<50 100 500 550>
VStem: 50 100<400 500> 100 100<300 400> 150 100<200 300> 250 100<0 100> 350 100<200 300> 400 100<300 400> 450 100<400 500>
LayerCount: 2
Back
Fore
SplineSet
50 500 m 29xe0
 150 500 l 25
 150 400 l 25xe0
 200 400 l 25
 200 300 l 25xd0
 250 300 l 25
 250 200 l 25
 350 200 l 25
 350 300 l 25xca
 400 300 l 25
 400 400 l 25xc1
 450 400 l 25
 450 500 l 25
 550 500 l 25
 550 400 l 25xc080
 500 400 l 25
 500 300 l 25xc1
 450 300 l 25
 450 200 l 25xc2
 400 200 l 25
 400 100 l 25
 350 100 l 25
 350 0 l 25
 250 0 l 25
 250 100 l 25
 200 100 l 25
 200 200 l 25xd5
 150 200 l 25
 150 300 l 25xc8
 100 300 l 25
 100 400 l 25xd0
 50 400 l 25
 50 500 l 29xe0
EndSplineSet
Validated: 1
EndChar

StartChar: w
Encoding: 119 119 76
Width: 600
Flags: W
HStem: 0 100<200 250 350 400> 480 20G<50 150 450 550>
VStem: 50 100<200 500> 100 100<100 200> 250 100<100 400> 400 100<100 200> 450 100<200 500>
LayerCount: 2
Back
Fore
SplineSet
450 500 m 29xca
 550 500 l 25
 550 200 l 25xca
 500 200 l 25
 500 100 l 25xcc
 450 100 l 25
 450 0 l 25
 350 0 l 25
 350 100 l 25
 250 100 l 25
 250 0 l 25
 150 0 l 25
 150 100 l 25xea
 100 100 l 25
 100 200 l 25xd8
 50 200 l 25
 50 500 l 25
 150 500 l 25
 150 200 l 25xe8
 200 200 l 25
 200 100 l 25
 250 100 l 25
 250 400 l 25
 350 400 l 25
 350 100 l 25
 400 100 l 25
 400 200 l 25xdc
 450 200 l 25
 450 500 l 29xca
EndSplineSet
Validated: 5
EndChar

StartChar: x
Encoding: 120 120 77
Width: 600
Flags: W
HStem: 0 100<50 150 450 550> 200 100<250 350> 400 100<50 150 450 550>
VStem: 50 150<0 100 400 500> 150 100<100 200 300 400> 350 100<100 200 300 400> 400 150<0 100 400 500>
CounterMasks: 1 e0
LayerCount: 2
Back
Fore
SplineSet
50 500 m 29xf0
 200 500 l 25
 200 400 l 25xf0
 250 400 l 25
 250 300 l 25
 350 300 l 25
 350 400 l 25xec
 400 400 l 25
 400 500 l 25
 550 500 l 25
 550 400 l 25xe2
 450 400 l 25
 450 300 l 25xe4
 400 300 l 25
 400 200 l 25xe2
 450 200 l 25
 450 100 l 25xe4
 550 100 l 25
 550 0 l 25
 400 0 l 25
 400 100 l 25xe2
 350 100 l 25
 350 200 l 25
 250 200 l 25
 250 100 l 25xec
 200 100 l 25
 200 0 l 25
 50 0 l 25
 50 100 l 25xf0
 150 100 l 25
 150 200 l 25xe8
 200 200 l 25
 200 300 l 25xf0
 150 300 l 25
 150 400 l 25xe8
 50 400 l 25
 50 500 l 29xf0
EndSplineSet
Validated: 1
EndChar

StartChar: y
Encoding: 121 121 78
Width: 600
Flags: W
HStem: -200 100<100 200> 400 100<100 150 500 550>
VStem: 100 100<400 500> 150 100<300 400> 200 100<-100 0 200 300> 250 150<100 200> 250 100<0 100> 350 100<200 300> 400 100<300 400> 450 100<400 500>
LayerCount: 2
Back
Fore
SplineSet
100 500 m 29xe0
 200 500 l 25
 200 400 l 25xe0
 250 400 l 25
 250 300 l 25xd0
 300 300 l 25
 300 200 l 25
 350 200 l 25
 350 300 l 25xc9
 400 300 l 25
 400 400 l 25xc080
 450 400 l 25
 450 500 l 25
 550 500 l 25
 550 400 l 25xc040
 500 400 l 25
 500 300 l 25xc080
 450 300 l 25
 450 200 l 25xc1
 400 200 l 25
 400 100 l 25xc4
 350 100 l 25
 350 0 l 25xc2
 300 0 l 25
 300 -100 l 25xc8
 250 -100 l 25
 250 -200 l 25
 100 -200 l 25
 100 -100 l 25xe2
 200 -100 l 25
 200 0 l 25xc8
 250 0 l 25xc2
 250 200 l 25xc4
 200 200 l 25
 200 300 l 25xc8
 150 300 l 25
 150 400 l 25xd0
 100 400 l 25
 100 500 l 29xe0
EndSplineSet
Validated: 1
EndChar

StartChar: z
Encoding: 122 122 79
Width: 600
Flags: W
HStem: 0 100<100 200 300 500> 400 100<100 300 400 500>
VStem: 200 100<100 200> 250 100<200 300> 300 100<300 400>
LayerCount: 2
Back
Fore
SplineSet
100 500 m 29xc8
 500 500 l 25
 500 400 l 25
 400 400 l 25
 400 300 l 25xc8
 350 300 l 25
 350 200 l 25xd0
 300 200 l 25
 300 100 l 25
 500 100 l 25
 500 0 l 25
 100 0 l 25
 100 100 l 25
 200 100 l 25
 200 200 l 25xe0
 250 200 l 25
 250 300 l 25xd0
 300 300 l 25
 300 400 l 25
 100 400 l 25
 100 500 l 29xc8
EndSplineSet
Validated: 1
EndChar

StartChar: edieresis
Encoding: 235 235 82
Width: 600
Flags: W
HStem: 0 100<200 500> 200 100<200 450> 400 100<200 450> 600 100<150 250 400 500>
VStem: 100 100<100 200 300 400> 150 100<600 700> 400 100<600 700> 450 100<300 400>
LayerCount: 2
Back
Fore
SplineSet
400 700 m 25xf2
 500 700 l 25
 500 600 l 25
 400 600 l 25
 400 700 l 25xf2
150 700 m 25xf4
 250 700 l 25
 250 600 l 25
 150 600 l 25
 150 700 l 25xf4
200 400 m 1xf9
 200 300 l 1
 450 300 l 1
 450 400 l 1
 200 400 l 1xf9
150 400 m 1xf4
 151 500 l 1
 499 500 l 1
 500 400 l 25xf6
 550 400 l 25
 550 200 l 1
 200 200 l 1
 200 100 l 1xf9
 500 100 l 1
 500 0 l 1
 150 0 l 1
 150 100 l 1xf6
 100 100 l 1
 100 400 l 5xf8
 150 400 l 1xf4
EndSplineSet
Validated: 1
EndChar

StartChar: uni0401
Encoding: 1025 1025 97
Width: 600
Flags: W
HStem: 0 100<200 550> 300 100<200 450> 500 100<200 550> 700 100<150 250 400 500>
VStem: 100 100<100 300 400 500> 150 100<700 800> 400 100<700 800>
LayerCount: 2
Back
Fore
SplineSet
400 700 m 25xf2
 400 800 l 25
 500 800 l 25
 500 700 l 25
 400 700 l 25xf2
150 700 m 25xf6
 150 800 l 25
 250 800 l 25
 250 700 l 25
 150 700 l 25xf6
550 500 m 1
 200 500 l 1
 200 400 l 1
 450 400 l 25
 450 300 l 25
 200 300 l 25
 200 100 l 25
 550 100 l 25
 550 0 l 25
 100 0 l 1
 100 600 l 1xfa
 550 600 l 1
 550 500 l 1
EndSplineSet
Validated: 1
EndChar

StartChar: uni0402
Encoding: 1026 1026 98
Width: 600
Flags: W
HStem: 0 100<350 500> 300 100<300 500> 600 100<50 200 300 450>
VStem: 200 100<0 300 400 600> 500 100<100 300>
CounterMasks: 1 e0
LayerCount: 2
Back
Fore
SplineSet
200 0 m 29
 200 600 l 25
 50 600 l 25
 50 700 l 25
 450 700 l 25
 450 600 l 25
 300 600 l 25
 300 400 l 25
 550 400 l 25
 550 300 l 25
 600 300 l 25
 600 100 l 25
 550 100 l 25
 550 0 l 25
 350 0 l 25
 350 100 l 25
 500 100 l 25
 500 300 l 25
 300 300 l 25
 300 0 l 25
 200 0 l 29
EndSplineSet
Validated: 1
EndChar

StartChar: uni0403
Encoding: 1027 1027 99
Width: 600
Flags: W
HStem: 0 21G<100 200> 500 100<200 250 350 550> 700 100<350 400>
VStem: 100 100<0 500> 250 100<600 700> 300 100<700 800>
LayerCount: 2
Back
Fore
SplineSet
100 0 m 29xf8
 100 600 l 25
 250 600 l 25
 250 700 l 25xf8
 300 700 l 25
 300 800 l 25
 400 800 l 25
 400 700 l 25xf4
 350 700 l 25
 350 600 l 25
 550 600 l 25
 550 500 l 25
 200 500 l 25
 200 0 l 25
 100 0 l 29xf8
EndSplineSet
Validated: 1
EndChar

StartChar: uni0404
Encoding: 1028 1028 100
Width: 600
Flags: W
HStem: 0 100<200 400> 100 100<450 500> 300 100<150 350> 500 100<450 500> 600 100<200 400>
VStem: 50 100<200 300 400 500> 100 100<100 200 500 600> 150 300<0 100 600 700> 400 100<100 200 500 600>
LayerCount: 2
Back
Fore
SplineSet
200 500 m 29x3280
 150 500 l 25
 150 400 l 25
 350 400 l 25
 350 300 l 25
 150 300 l 25
 150 200 l 25x74
 200 200 l 25x72
 200 100 l 25
 400 100 l 25xa280
 400 200 l 25
 500 200 l 25
 500 100 l 25x6280
 450 100 l 25x61
 450 0 l 25
 150 0 l 25xa1
 150 100 l 25x61
 100 100 l 25
 100 200 l 25x62
 50 200 l 25
 50 500 l 25x74
 100 500 l 25x72
 100 600 l 25x2a
 150 600 l 25
 150 700 l 25
 450 700 l 25x29
 450 600 l 25x31
 500 600 l 25
 500 500 l 25
 400 500 l 25x3080
 400 600 l 25
 200 600 l 25x2a80
 200 500 l 29x3280
EndSplineSet
Validated: 1
EndChar

StartChar: uni0405
Encoding: 1029 1029 101
Width: 600
Flags: W
HStem: 0 100<150 450> 300 100<200 450> 600 100<200 500>
VStem: 100 100<400 600> 150 350<0 100 300 400 600 700> 450 100<100 300>
CounterMasks: 1 e0
LayerCount: 2
Back
Fore
SplineSet
150 600 m 29xe8
 150 700 l 25
 500 700 l 25
 500 600 l 25xe8
 200 600 l 25
 200 400 l 25xf0
 500 400 l 25
 500 300 l 25xe8
 550 300 l 25
 550 100 l 25xe4
 500 100 l 25
 500 0 l 25
 150 0 l 25
 150 100 l 25xe8
 450 100 l 25
 450 300 l 25xe4
 150 300 l 25
 150 400 l 25xe8
 100 400 l 25
 100 600 l 25xf0
 150 600 l 29xe8
EndSplineSet
Validated: 1
EndChar

StartChar: uni0406
Encoding: 1030 1030 102
Width: 600
Flags: W
HStem: 0 100<100 250 350 500> 600 100<100 250 350 500>
VStem: 250 100<100 600>
LayerCount: 2
Back
Fore
SplineSet
100 700 m 29
 500 700 l 25
 500 600 l 25
 350 600 l 25
 350 100 l 25
 500 100 l 25
 500 0 l 25
 100 0 l 25
 100 100 l 25
 250 100 l 25
 250 600 l 25
 100 600 l 25
 100 700 l 29
EndSplineSet
Validated: 1
EndChar

StartChar: uni0407
Encoding: 1031 1031 103
Width: 600
Flags: HMW
LayerCount: 2
Back
Fore
SplineSet
350 700 m 1
 350 800 l 1
 450 800 l 1
 450 700 l 5
 350 700 l 1
150 700 m 1
 150 800 l 25
 250 800 l 25
 250 700 l 1
 150 700 l 1
100 500 m 25
 100 600 l 25
 500 600 l 25
 500 500 l 25
 350 500 l 25
 350 100 l 25
 500 100 l 25
 500 0 l 25
 100 0 l 25
 100 100 l 25
 250 100 l 25
 250 500 l 25
 100 500 l 25
EndSplineSet
Validated: 1
EndChar

StartChar: uni0408
Encoding: 1032 1032 104
Width: 600
Flags: W
HStem: 0 100<200 450> 100 100<100 150> 680 20G<450 550>
VStem: 100 100<100 200> 450 100<100 700>
LayerCount: 2
Back
Fore
SplineSet
450 700 m 29xb8
 550 700 l 25
 550 100 l 25
 500 100 l 25x78
 500 0 l 25
 150 0 l 25xb8
 150 100 l 25
 100 100 l 25
 100 200 l 25
 200 200 l 25x78
 200 100 l 25
 450 100 l 25
 450 700 l 29xb8
EndSplineSet
Validated: 1
EndChar

StartChar: uni0409
Encoding: 1033 1033 105
Width: 600
Flags: W
HStem: 0 100<50 100 400 500> 300 100<400 500> 600 100<200 300>
VStem: 50 100<0 100> 100 100<100 600> 300 250<0 50 300 400> 300 100<100 300 400 600> 500 100<100 300>
CounterMasks: 1 e0
LayerCount: 2
Back
Fore
SplineSet
400 100 m 29xe3
 500 100 l 25
 500 300 l 25
 400 300 l 25
 400 100 l 29xe3
50 0 m 25xf0
 50 100 l 25xf0
 100 100 l 25
 100 600 l 25xe8
 150 600 l 25
 150 700 l 25
 400 700 l 25
 400 400 l 25xf2
 550 400 l 25
 550 300 l 25xe4
 600 300 l 25
 600 50 l 25xe1
 550 50 l 25
 550 0 l 25
 300 0 l 25xe4
 300 600 l 25
 200 600 l 25
 200 100 l 25xea
 150 100 l 25
 150 0 l 25
 50 0 l 25xf0
EndSplineSet
Validated: 1
EndChar

StartChar: uni040A
Encoding: 1034 1034 106
Width: 600
Flags: W
HStem: 0 100<400 500> 300 100<150 300 400 500> 680 20G<50 150 300 400>
VStem: 50 100<0 300 400 700> 300 100<100 300 400 700> 500 100<100 300>
LayerCount: 2
Back
Fore
SplineSet
400 300 m 29
 400 100 l 25
 500 100 l 25
 500 300 l 25
 400 300 l 29
50 700 m 25
 150 700 l 25
 150 400 l 25
 300 400 l 25
 300 700 l 25
 400 700 l 25
 400 400 l 25
 550 400 l 25
 550 300 l 25
 600 300 l 25
 600 50 l 25
 550 50 l 25
 550 0 l 25
 300 0 l 25
 300 300 l 25
 150 300 l 25
 150 0 l 25
 50 0 l 25
 50 700 l 25
EndSplineSet
Validated: 1
EndChar

StartChar: uni040B
Encoding: 1035 1035 107
Width: 600
Flags: W
HStem: 0 21G<200 300 500 600> 300 100<300 500> 600 100<50 200 300 450>
VStem: 200 100<0 300 400 600> 500 100<0 300>
LayerCount: 2
Back
Fore
SplineSet
50 600 m 29
 50 700 l 25
 450 700 l 25
 450 600 l 25
 300 600 l 25
 300 400 l 25
 550 400 l 25
 550 300 l 25
 600 300 l 25
 600 0 l 25
 500 0 l 25
 500 300 l 25
 300 300 l 25
 300 0 l 25
 200 0 l 25
 200 600 l 25
 50 600 l 29
EndSplineSet
Validated: 1
EndChar

StartChar: uni040C
Encoding: 1036 1036 108
Width: 600
Flags: W
HStem: 0 100<400 500> 100 100<300 350> 400 100<300 350> 500 100<400 500> 600 100<250 300> 700 100<350 400>
VStem: 100 200<200 400> 100 100<0 200 400 600> 250 100<600 700> 300 100<700 800> 350 150<0 100 500 600>
LayerCount: 2
Back
Fore
SplineSet
100 0 m 29x8180
 100 600 l 25
 200 600 l 25
 200 400 l 25
 250 400 l 25xa980
 250 500 l 25x1180
 350 500 l 25x2020
 350 600 l 25x2880
 500 600 l 25
 500 500 l 25x1020
 400 500 l 25x1040
 400 400 l 25x2040
 300 400 l 25
 300 200 l 25x62
 400 200 l 25x6040
 400 100 l 25x8040
 500 100 l 25
 500 0 l 25
 350 0 l 25x8020
 350 100 l 25x4020
 250 100 l 25
 250 200 l 25
 200 200 l 25x4180
 200 0 l 25
 100 0 l 29x8180
250 600 m 25
 250 700 l 25x0880
 300 700 l 25x0840
 300 800 l 25
 400 800 l 25
 400 700 l 25x0440
 350 700 l 25x0480
 350 600 l 25
 250 600 l 25
EndSplineSet
Validated: 5
EndChar

StartChar: uni040E
Encoding: 1038 1038 109
Width: 600
Flags: W
HStem: 0 100<200 450> 100 100<100 150> 300 100<200 450> 680 20G<100 200 450 550> 700 100<300 350>
VStem: 100 100<100 200 400 700> 300 50<700 800> 450 100<100 300 400 700>
CounterMasks: 1 07
LayerCount: 2
Back
Fore
SplineSet
300 700 m 29x2f
 300 800 l 25
 350 800 l 25
 350 700 l 25
 300 700 l 29x2f
100 700 m 25xb7
 200 700 l 25
 200 400 l 25
 450 400 l 25
 450 700 l 25
 550 700 l 25
 550 100 l 25
 500 100 l 25x77
 500 0 l 25
 150 0 l 25xa7
 150 100 l 25
 100 100 l 25
 100 200 l 25
 200 200 l 25x67
 200 100 l 25
 450 100 l 25
 450 300 l 25
 150 300 l 25
 150 400 l 25
 100 400 l 25
 100 700 l 25xb7
EndSplineSet
Validated: 1
EndChar

StartChar: uni040F
Encoding: 1039 1039 110
Width: 600
Flags: W
HStem: -200 21G<300 400> 0 100<200 300 400 500> 680 20G<100 200 500 600>
VStem: 100 100<100 700> 300 100<-200 0> 500 100<100 700>
CounterMasks: 1 1c
LayerCount: 2
Back
Fore
SplineSet
100 0 m 29
 100 700 l 25
 200 700 l 25
 200 100 l 25
 500 100 l 25
 500 700 l 25
 600 700 l 25
 600 0 l 25
 400 0 l 25
 400 -200 l 25
 300 -200 l 25
 300 0 l 25
 100 0 l 29
EndSplineSet
Validated: 1
EndChar

StartChar: uni0410
Encoding: 1040 1040 111
Width: 600
Flags: W
HStem: 0 21G<50 150 450 550> 200 100<150 450> 600 100<250 350>
VStem: 50 100<0 200 300 400> 100 100<400 500> 150 100<500 600> 350 100<500 600> 400 100<400 500> 450 100<0 200 300 400>
LayerCount: 2
Back
Fore
SplineSet
150 400 m 29xf0
 150 300 l 25
 450 300 l 25
 450 400 l 25xf080
 400 400 l 25
 400 500 l 25xe1
 350 500 l 25
 350 600 l 25
 250 600 l 25
 250 500 l 25xe6
 200 500 l 25
 200 400 l 25xe8
 150 400 l 29xf0
150 0 m 25
 50 0 l 25
 50 400 l 25xf080
 100 400 l 25
 100 500 l 25xe8
 150 500 l 25
 150 600 l 25xe4
 200 600 l 25
 200 700 l 25
 399 700 l 25
 400 600 l 25xe9
 450 600 l 25
 450 500 l 25xe2
 500 500 l 25
 500 400 l 25xe1
 550 400 l 25
 550 0 l 25
 450 0 l 25
 450 200 l 25
 150 200 l 25
 150 0 l 25
EndSplineSet
Validated: 1
EndChar

StartChar: uni0411
Encoding: 1041 1041 112
Width: 600
Flags: W
HStem: 0 100<200 450> 300 100<200 450> 600 100<200 500>
VStem: 100 400<0 100 300 400 600 700> 100 100<100 300 400 600> 450 100<100 300>
CounterMasks: 1 e0
LayerCount: 2
Back
Fore
SplineSet
200 100 m 29xec
 450 100 l 25
 450 300 l 25
 200 300 l 25
 200 100 l 29xec
100 700 m 25xf0
 500 700 l 25
 500 600 l 25xf0
 200 600 l 25
 200 400 l 25xe8
 500 400 l 25
 500 300 l 25xf0
 550 300 l 25
 550 100 l 25xe4
 500 100 l 25
 500 0 l 25
 100 0 l 25
 100 700 l 25xf0
EndSplineSet
Validated: 1
EndChar

StartChar: uni0412
Encoding: 1042 1042 113
Width: 600
Flags: W
HStem: 0 100<200 450> 300 100<200 450> 600 100<200 450>
VStem: 100 400<0 100 300 400 600 700> 100 100<100 300 400 600> 450 100<100 300 400 600>
CounterMasks: 1 e0
LayerCount: 2
Back
Fore
SplineSet
200 600 m 29xec
 200 400 l 25
 450 400 l 25
 450 600 l 25
 200 600 l 29xec
200 300 m 25
 200 100 l 25
 450 100 l 25
 450 300 l 25
 200 300 l 25
100 0 m 25xf0
 100 700 l 25
 500 700 l 25
 500 600 l 25xf0
 550 600 l 25
 550 400 l 25xe4
 500 400 l 25
 500 300 l 25xf0
 550 300 l 25
 550 100 l 25xe4
 500 100 l 25
 500 0 l 25
 100 0 l 25xf0
EndSplineSet
Validated: 1
EndChar

StartChar: uni0413
Encoding: 1043 1043 114
Width: 600
Flags: W
HStem: 0 21G<100 200> 600 100<200 550>
VStem: 100 100<0 600>
LayerCount: 2
Back
Fore
SplineSet
100 700 m 29
 550 700 l 25
 550 600 l 25
 200 600 l 25
 200 0 l 25
 100 0 l 25
 100 700 l 29
EndSplineSet
Validated: 1
EndChar

StartChar: uni0414
Encoding: 1044 1044 115
Width: 600
Flags: W
HStem: 0 100<250 400> 600 100<300 400>
VStem: 100 100<-100 0> 150 100<100 500> 200 100<500 600> 400 100<100 600> 450 100<-100 0>
LayerCount: 2
Back
Fore
SplineSet
300 600 m 29xcc
 300 500 l 25xcc
 250 500 l 25
 250 100 l 25xd0
 400 100 l 25
 400 600 l 25
 300 600 l 29xcc
200 500 m 25
 200 600 l 25xc8
 250 600 l 25
 250 700 l 25
 500 700 l 25
 500 100 l 25xd4
 550 100 l 25
 550 -100 l 25
 450 -100 l 25
 450 0 l 25
 200 0 l 25
 200 -100 l 25
 100 -100 l 25
 100 100 l 25xe2
 150 100 l 25
 150 500 l 25xd0
 200 500 l 25
EndSplineSet
Validated: 1
EndChar

StartChar: uni0415
Encoding: 1045 1045 116
Width: 600
Flags: W
HStem: 0 100<200 550> 300 100<200 450> 600 100<200 550>
VStem: 100 100<100 300 400 600>
CounterMasks: 1 e0
LayerCount: 2
Back
Fore
SplineSet
550 600 m 29
 200 600 l 29
 200 400 l 29
 450 400 l 29
 450 300 l 29
 200 300 l 29
 200 100 l 29
 550 100 l 29
 550 0 l 29
 100 0 l 29
 100 700 l 29
 550 700 l 29
 550 600 l 29
EndSplineSet
Validated: 1
EndChar

StartChar: uni0416
Encoding: 1046 1046 117
Width: 600
Flags: W
HStem: 0 21G<50 150 250 350 450 550> 300 100<200 250 350 400> 680 20G<50 149.1 250 350 450 550>
VStem: 50 100<0 200 500 700> 100 100<200 300 400 500> 250 100<0 300 400 700> 400 100<200 300 400 500> 450 100<0 200 500 700>
LayerCount: 2
Back
Fore
SplineSet
50 700 m 29xf4
 149 700 l 25
 150 500 l 25xf4
 199 500 l 25
 200 400 l 25
 250 400 l 25
 250 700 l 25
 350 700 l 25
 350 400 l 25
 400 400 l 25
 400 500 l 25xee
 450 500 l 25
 450 700 l 25
 550 700 l 25
 550 500 l 25xe5
 500 500 l 25
 500 400 l 25xe6
 450 400 l 25xe5
 449 300 l 25
 500 300 l 25
 500 200 l 25xe6
 550 200 l 25
 550 0 l 25
 450 0 l 25
 450 200 l 25xe5
 400 200 l 25
 400 300 l 25
 350 300 l 25
 350 0 l 25
 250 0 l 25
 250 300 l 25
 200 300 l 25
 200 200 l 25xee
 150 200 l 25
 150 0 l 25
 50 0 l 25
 50 200 l 25xf4
 100 200 l 25
 100 300 l 25xec
 150 300 l 25
 150 400 l 25xf4
 100 400 l 25
 100 500 l 25xec
 50 500 l 25
 50 700 l 29xf4
EndSplineSet
Validated: 1
EndChar

StartChar: uni0417
Encoding: 1047 1047 118
Width: 600
Flags: W
HStem: 0 100<200 450> 100 100<100 150> 300 100<250 450> 500 100<100 150> 600 100<200 450>
VStem: 100 100<100 200 500 600> 450 100<100 300 400 600>
LayerCount: 2
Back
Fore
SplineSet
100 500 m 29x36
 100 600 l 1
 150 600 l 25x36
 150 700 l 25
 500 700 l 25
 500 600 l 25
 550 600 l 25
 550 400 l 25
 500 400 l 25
 500 300 l 25
 550 300 l 25
 550 100 l 25
 500 100 l 25x6e
 500 0 l 25
 150 0 l 25xa6
 150 100 l 25
 100 100 l 25
 100 200 l 25
 199 200 l 25x66
 200 100 l 25
 450 100 l 25
 450 300 l 25
 250 300 l 25
 250 400 l 25
 450 400 l 25
 450 600 l 25
 200 600 l 25xae
 200 500 l 1
 100 500 l 29x36
EndSplineSet
Validated: 1
EndChar

StartChar: uni0418
Encoding: 1048 1048 119
Width: 600
Flags: W
HStem: 0 21G<50 200 450 550> 680 20G<50 150 400 550>
VStem: 50 150<0 100> 50 100<200 700> 200 100<200 300> 250 100<300 400> 300 100<400 500> 400 150<600 700> 450 100<0 500>
LayerCount: 2
Back
Fore
SplineSet
50 700 m 29xd0
 150 700 l 29
 150 200 l 29
 200 200 l 29
 200 300 l 29xd8
 250 300 l 29
 250 400 l 29xc4
 300 400 l 29
 300 500 l 29xc2
 350 500 l 29
 350 600 l 29
 400 600 l 29
 400 700 l 29
 550 700 l 29xc5
 550 0 l 29
 450 0 l 29
 450 500 l 29
 400 500 l 29
 400 400 l 29xc280
 350 400 l 29
 350 300 l 29xc4
 300 300 l 29
 300 200 l 29xc8
 250 200 l 29
 250 100 l 29
 200 100 l 29
 200 0 l 29
 50 0 l 29xe4
 50 700 l 29xd0
EndSplineSet
Validated: 1
EndChar

StartChar: uni0419
Encoding: 1049 1049 120
Width: 600
Flags: W
HStem: 0 21G<50 200 450 550> 680 20G<50 150 400 550> 700 100<250 300>
VStem: 50 150<0 100> 50 100<200 700> 200 100<200 300> 250 100<300 400> 250 50<700 800> 300 100<400 500> 400 150<600 700> 450 100<0 500>
LayerCount: 2
Back
Fore
SplineSet
250 700 m 29xa1
 250 800 l 25
 300 800 l 25
 300 700 l 25
 250 700 l 29xa1
50 700 m 25xc8
 150 700 l 25
 150 200 l 25
 200 200 l 25
 200 300 l 25xcc
 250 300 l 25
 250 400 l 25xc2
 300 400 l 25
 300 500 l 25xc080
 350 500 l 25
 350 600 l 25
 400 600 l 25
 400 700 l 25
 550 700 l 25xc240
 550 0 l 25
 450 0 l 25
 450 500 l 25
 400 500 l 25
 400 400 l 25xc0a0
 350 400 l 25
 350 300 l 25xc2
 300 300 l 25
 300 200 l 25xc4
 250 200 l 25
 250 100 l 25
 200 100 l 25
 200 0 l 25
 50 0 l 25xd1
 50 700 l 25xc8
EndSplineSet
Validated: 1
EndChar

StartChar: uni041A
Encoding: 1050 1050 121
Width: 600
Flags: W
HStem: 0 100<450 550> 200 100<300 350> 300 100<200 250> 400 100<300 350> 600 100<450 550>
VStem: 100 100<0 300 400 700> 250 150<200 300 400 500> 350 100<100 200 500 600> 400 150<0 100 600 700>
LayerCount: 2
Back
Fore
SplineSet
100 700 m 29xae
 200 700 l 25
 200 400 l 25
 250 400 l 25xae
 250 500 l 25x9e
 350 500 l 25
 350 600 l 25x9d
 400 600 l 25
 400 700 l 25
 550 700 l 25
 550 600 l 25x9c80
 450 600 l 25
 450 500 l 25x9d
 400 500 l 25
 400 400 l 25
 300 400 l 25
 300 300 l 25xde
 400 300 l 25xae
 400 200 l 25xce
 450 200 l 25
 450 100 l 25xcd
 550 100 l 25
 550 0 l 25
 400 0 l 25
 400 100 l 25xcc80
 350 100 l 25
 350 200 l 25xcd
 250 200 l 25xce
 250 300 l 25
 200 300 l 25
 200 0 l 25
 100 0 l 25
 100 700 l 29xae
EndSplineSet
Validated: 1
EndChar

StartChar: uni041B
Encoding: 1051 1051 122
Width: 600
Flags: W
HStem: 0 100<100 150> 600 100<300 450>
VStem: 100 100<0 100> 150 100<100 200> 200 100<200 600> 450 100<0 600>
LayerCount: 2
Back
Fore
SplineSet
100 0 m 29xe4
 100 100 l 25xe4
 150 100 l 25
 150 200 l 25xd4
 200 200 l 25
 200 600 l 25xcc
 250 600 l 25
 250 700 l 25xd4
 550 700 l 25
 550 0 l 25
 450 0 l 25
 450 600 l 25
 300 600 l 25
 300 200 l 25xcc
 250 200 l 25
 250 100 l 25xd4
 200 100 l 25
 200 0 l 25
 100 0 l 29xe4
EndSplineSet
Validated: 1
EndChar

StartChar: uni041C
Encoding: 1052 1052 123
Width: 600
Flags: W
HStem: 0 21G<50 150 450 550> 680 20G<50 200 400 550>
VStem: 50 150<600 700> 50 100<0 500> 250 100<300 400> 400 150<600 700> 450 100<0 500>
LayerCount: 2
Back
Fore
SplineSet
150 0 m 29xd8
 50 0 l 25xd8
 50 700 l 25
 200 700 l 25
 200 600 l 25
 250 600 l 25
 250 500 l 25
 350 500 l 25
 350 600 l 25
 400 600 l 25
 400 700 l 25
 550 700 l 25xec
 550 0 l 25
 450 0 l 25
 450 500 l 25xca
 400 500 l 25
 400 400 l 25
 350 400 l 25
 350 300 l 25
 250 300 l 25
 250 400 l 25
 200 400 l 25
 200 500 l 25xec
 150 500 l 25
 150 0 l 29xd8
EndSplineSet
Validated: 1
EndChar

StartChar: uni041D
Encoding: 1053 1053 124
Width: 600
Flags: W
HStem: 0 21G<100 200 450 550> 300 100<200 450> 680 20G<100 200 450 550>
VStem: 100 100<0 300 400 700> 450 100<0 300 400 700>
LayerCount: 2
Back
Fore
SplineSet
100 700 m 29
 200 700 l 25
 200 400 l 25
 450 400 l 25
 450 700 l 25
 550 700 l 25
 550 0 l 25
 450 0 l 25
 450 300 l 25
 200 300 l 25
 200 0 l 25
 100 0 l 25
 100 700 l 29
EndSplineSet
Validated: 1
EndChar

StartChar: uni041E
Encoding: 1054 1054 125
Width: 600
Flags: W
HStem: 0 100<200 400> 600 100<200 400>
VStem: 50 100<200 500> 100 100<100 200 500 600> 150 300<0 100 600 700> 400 100<100 200 500 600> 450 100<200 500>
LayerCount: 2
Back
Fore
SplineSet
400 100 m 29xd4
 400 200 l 25xd4
 450 200 l 25
 450 500 l 25xc2
 400 500 l 25
 400 600 l 25
 200 600 l 25
 200 500 l 25xd4
 150 500 l 25
 150 200 l 25xe0
 200 200 l 25
 200 100 l 25
 400 100 l 29xd4
450 0 m 25xc8
 150 0 l 25
 150 100 l 25xc8
 100 100 l 25
 100 200 l 25xd0
 50 200 l 25
 50 500 l 25xe0
 100 500 l 25
 100 600 l 25xd0
 150 600 l 25
 150 700 l 25
 450 700 l 25
 450 600 l 25xc8
 500 600 l 25
 500 500 l 25xc4
 550 500 l 25
 550 200 l 25xc2
 500 200 l 25
 500 100 l 25xc4
 450 100 l 25
 450 0 l 25xc8
EndSplineSet
Validated: 1
EndChar

StartChar: uni041F
Encoding: 1055 1055 126
Width: 600
Flags: W
HStem: 0 21G<100 200 450 550> 600 100<200 450>
VStem: 100 100<0 600> 450 100<0 600>
LayerCount: 2
Back
Fore
SplineSet
100 700 m 29
 550 700 l 25
 550 0 l 25
 450 0 l 25
 450 600 l 25
 200 600 l 25
 200 0 l 25
 100 0 l 25
 100 700 l 29
EndSplineSet
Validated: 1
EndChar

StartChar: uni0420
Encoding: 1056 1056 127
Width: 600
Flags: W
HStem: 0 21G<100 200> 300 100<200 450> 600 100<200 450>
VStem: 100 100<0 300 400 600> 450 100<400 600>
LayerCount: 2
Back
Fore
SplineSet
200 600 m 29
 200 400 l 25
 450 400 l 25
 450 600 l 25
 200 600 l 29
100 700 m 25
 500 700 l 25
 500 650 l 25
 550 650 l 25
 550 400 l 25
 500 400 l 25
 500 300 l 25
 200 300 l 25
 200 0 l 25
 100 0 l 25
 100 700 l 25
EndSplineSet
Validated: 1
EndChar

StartChar: uni0421
Encoding: 1057 1057 128
Width: 600
Flags: W
HStem: 0 100<250 450> 100 100<500 550> 500 100<500 550> 600 100<250 450>
VStem: 100 100<200 500> 150 100<100 200 500 600> 200 300<0 100 600 700> 450 100<100 200 500 600>
LayerCount: 2
Back
Fore
SplineSet
200 700 m 29x12
 500 700 l 25x12
 500 600 l 25x22
 550 600 l 25
 550 500 l 25
 450 500 l 25x21
 450 600 l 25
 250 600 l 25x15
 250 500 l 25x25
 200 500 l 25
 200 200 l 25x68
 250 200 l 25x64
 250 100 l 25
 450 100 l 25x85
 450 200 l 25
 550 200 l 25
 550 100 l 25x45
 500 100 l 25x42
 500 0 l 25
 200 0 l 25x82
 200 100 l 25x42
 150 100 l 25
 150 200 l 25x44
 100 200 l 25
 100 500 l 25x68
 150 500 l 25x64
 150 600 l 25x14
 200 600 l 25
 200 700 l 29x12
EndSplineSet
Validated: 1
EndChar

StartChar: uni0422
Encoding: 1058 1058 129
Width: 600
Flags: W
HStem: 0 21G<250 350> 600 100<50 250 350 550>
VStem: 250 100<0 600>
LayerCount: 2
Back
Fore
SplineSet
50 700 m 1
 550 700 l 5
 550 600 l 1
 350 600 l 1
 350 0 l 25
 250 0 l 25
 250 600 l 1
 50 600 l 1
 50 700 l 1
EndSplineSet
Validated: 1
EndChar

StartChar: uni0423
Encoding: 1059 1059 130
Width: 600
Flags: W
HStem: 0 100<200 450> 100 100<100 150> 300 100<200 450> 680 20G<100 200 450 550>
VStem: 100 100<100 200 400 700> 450 100<100 300 400 700>
LayerCount: 2
Back
Fore
SplineSet
100 700 m 29xbc
 200 700 l 25
 200 400 l 25
 450 400 l 25
 450 700 l 25
 550 700 l 25
 550 100 l 25
 500 100 l 25x7c
 500 0 l 25
 150 0 l 25xbc
 150 100 l 25
 100 100 l 25
 100 200 l 25
 200 200 l 25x7c
 200 100 l 25
 450 100 l 25
 450 300 l 25
 150 300 l 25
 150 400 l 25
 100 400 l 25
 100 700 l 29xbc
EndSplineSet
Validated: 1
EndChar

StartChar: uni0424
Encoding: 1060 1060 131
Width: 600
Flags: W
HStem: 0 21G<250 350> 100 100<150 250 350 450> 500 100<150 250 350 450> 680 20G<250 350>
VStem: 50 100<200 500> 250 100<0 100 200 500 600 700> 450 100<200 500>
CounterMasks: 1 0e
LayerCount: 2
Back
Fore
SplineSet
350 500 m 29
 350 200 l 25
 450 200 l 25
 450 500 l 25
 350 500 l 29
150 500 m 25
 150 200 l 25
 250 200 l 25
 250 500 l 25
 150 500 l 25
250 600 m 25
 250 700 l 1
 350 700 l 25
 350 600 l 25
 500 600 l 25
 500 500 l 25
 550 500 l 25
 550 200 l 25
 500 200 l 25
 500 100 l 25
 350 100 l 25
 350 0 l 25
 250 0 l 25
 250 100 l 25
 100 100 l 25
 100 200 l 25
 50 200 l 25
 50 500 l 25
 100 500 l 25
 100 600 l 1
 250 600 l 25
EndSplineSet
Validated: 1
EndChar

StartChar: uni0425
Encoding: 1061 1061 132
Width: 600
Flags: W
HStem: 0 100<100 150 450 500> 600 100<100 150 450 500>
VStem: 100 100<0 100 600 700> 150 100<100 200 500 600> 200 200<200 300 400 500> 350 100<100 200 500 600> 400 100<0 100 600 700>
LayerCount: 2
Back
Fore
SplineSet
100 700 m 29xe0
 200 700 l 25
 200 600 l 25xe0
 250 600 l 25
 250 500 l 25
 350 500 l 25
 350 600 l 25xd4
 400 600 l 25
 400 700 l 25
 500 700 l 25
 500 600 l 25xc2
 450 600 l 25
 450 500 l 25xc4
 400 500 l 25
 400 400 l 25xc8
 350 400 l 25
 350 300 l 25xc4
 400 300 l 25
 400 200 l 25xc8
 450 200 l 25
 450 100 l 25xc4
 500 100 l 25
 500 0 l 25
 400 0 l 25
 400 100 l 25xc2
 350 100 l 25
 350 200 l 25
 250 200 l 25
 250 100 l 25xd4
 200 100 l 25
 200 0 l 25
 100 0 l 25
 100 100 l 25xe0
 150 100 l 25
 150 200 l 25xd0
 200 200 l 25
 200 300 l 25xc8
 250 300 l 25
 250 400 l 25xd0
 200 400 l 25
 200 500 l 25xc8
 150 500 l 25
 150 600 l 25xd0
 100 600 l 25
 100 700 l 29xe0
EndSplineSet
Validated: 1
EndChar

StartChar: uni0426
Encoding: 1062 1062 133
Width: 600
Flags: W
HStem: 0 100<200 350> 680 20G<100 200 350 450>
VStem: 100 100<100 700> 350 100<100 700> 450 100<-100 0>
LayerCount: 2
Back
Fore
SplineSet
100 700 m 29xe8
 200 700 l 25
 200 100 l 25
 350 100 l 25
 350 700 l 25
 450 700 l 25
 450 100 l 25xf0
 550 100 l 25
 550 -100 l 25
 450 -100 l 25
 450 0 l 25
 100 0 l 25
 100 700 l 29xe8
EndSplineSet
Validated: 1
EndChar

StartChar: uni0427
Encoding: 1063 1063 134
Width: 600
Flags: W
HStem: 0 21G<450 550> 300 100<250 450> 680 20G<100 200 450 550>
VStem: 100 100<500 700> 150 100<400 500> 450 100<0 300 400 700>
LayerCount: 2
Back
Fore
SplineSet
100 700 m 29xf4
 200 700 l 25
 200 500 l 25xf4
 250 500 l 25
 250 400 l 25xec
 450 400 l 25
 450 700 l 25
 550 700 l 25
 550 0 l 25
 450 0 l 25
 450 300 l 25
 200 300 l 25
 200 400 l 25xf4
 150 400 l 25
 150 500 l 25xec
 100 500 l 25
 100 700 l 29xf4
EndSplineSet
Validated: 1
EndChar

StartChar: uni0428
Encoding: 1064 1064 135
Width: 600
Flags: W
HStem: 0 100<150 250 350 450> 680 20G<50 150 250 350 450 550>
VStem: 50 100<100 700> 250 100<100 700> 450 100<100 700>
CounterMasks: 1 38
LayerCount: 2
Back
Fore
SplineSet
50 700 m 29
 150 700 l 25
 150 100 l 25
 250 100 l 25
 250 700 l 25
 350 700 l 25
 350 100 l 25
 450 100 l 25
 450 700 l 25
 550 700 l 25
 550 0 l 25
 50 0 l 25
 50 700 l 29
EndSplineSet
Validated: 1
EndChar

StartChar: uni0429
Encoding: 1065 1065 136
Width: 600
Flags: W
HStem: 0 100<150 250 350 450> 680 20G<50 150 250 350 450 550>
VStem: 50 100<100 700> 250 100<100 700> 450 100<100 700> 500 100<-100 0>
LayerCount: 2
Back
Fore
SplineSet
50 700 m 29xf4
 150 700 l 25
 150 100 l 25
 250 100 l 25
 250 700 l 25
 350 700 l 25
 350 100 l 25
 450 100 l 25
 450 700 l 25
 550 700 l 25
 550 100 l 25xf8
 600 100 l 25
 600 -100 l 25
 500 -100 l 25
 500 0 l 25
 50 0 l 25
 50 700 l 29xf4
EndSplineSet
Validated: 1
EndChar

StartChar: uni042A
Encoding: 1066 1066 137
Width: 600
Flags: W
HStem: 0 100<250 450> 300 100<250 450> 600 100<50 150>
VStem: 150 100<100 300 400 600> 450 100<100 300>
CounterMasks: 1 e0
LayerCount: 2
Back
Fore
SplineSet
250 300 m 29
 250 100 l 25
 450 100 l 25
 450 300 l 25
 250 300 l 29
50 700 m 25
 250 700 l 25
 250 400 l 25
 500 400 l 25
 500 300 l 25
 550 300 l 25
 550 100 l 25
 500 100 l 25
 500 0 l 25
 150 0 l 25
 150 600 l 25
 50 600 l 25
 50 700 l 25
EndSplineSet
Validated: 1
EndChar

StartChar: uni042B
Encoding: 1067 1067 138
Width: 600
Flags: W
HStem: 0 100<150 300> 300 100<150 300> 680 20G<50 150 450 550>
VStem: 50 300<0 100 300 400> 50 100<100 300 400 700> 300 100<100 300> 450 100<0 700>
LayerCount: 2
Back
Fore
SplineSet
300 300 m 29xee
 150 300 l 25
 150 100 l 25
 300 100 l 25
 300 300 l 29xee
450 700 m 25
 550 700 l 25
 550 0 l 25
 450 0 l 25
 450 700 l 25
50 700 m 25
 150 700 l 25
 150 400 l 25xea
 350 400 l 25
 350 300 l 25xf2
 400 300 l 25
 400 100 l 25xe6
 350 100 l 25
 350 0 l 25
 50 0 l 25xf2
 50 700 l 25
EndSplineSet
Validated: 1
EndChar

StartChar: uni042C
Encoding: 1068 1068 139
Width: 600
Flags: W
HStem: 0 100<250 450> 300 100<250 450> 680 20G<150 249>
VStem: 150 99<100 300 400 700> 450 100<101 300>
LayerCount: 2
Back
Fore
SplineSet
250 100 m 29
 450 100 l 25
 450 300 l 25
 250 300 l 25
 250 100 l 29
150 700 m 25
 249 700 l 25
 249 400 l 25
 500 400 l 25
 500 300 l 25
 548 300 l 25
 550 101 l 25
 500 100 l 25
 500 0 l 25
 150 0 l 25
 150 700 l 25
EndSplineSet
Validated: 1
EndChar

StartChar: uni042D
Encoding: 1069 1069 140
Width: 600
Flags: W
HStem: 0 100<200 400> 100 100<100 150> 300 100<250 450> 500 100<100 150> 600 100<200 400>
VStem: 100 100<100 200 500 600> 150 300<0 100 600 700> 400 100<100 200 500 600> 450 100<200 300 400 500>
LayerCount: 2
Back
Fore
SplineSet
100 500 m 29x35
 100 600 l 25x35
 150 600 l 25x32
 150 700 l 25
 450 700 l 25
 450 600 l 25x2a
 500 600 l 25x29
 500 500 l 25x31
 550 500 l 25
 550 200 l 25x7080
 500 200 l 25
 500 100 l 25x71
 450 100 l 25x72
 450 0 l 25
 150 0 l 25xa2
 150 100 l 25x62
 100 100 l 25
 100 200 l 25
 200 200 l 25x64
 200 100 l 25
 400 100 l 25xa5
 400 200 l 25x65
 450 200 l 25
 450 300 l 25
 250 300 l 25
 250 400 l 25
 450 400 l 25
 450 500 l 25x7080
 400 500 l 25x71
 400 600 l 25
 200 600 l 25x2d
 200 500 l 25
 100 500 l 29x35
EndSplineSet
Validated: 1
EndChar

StartChar: uni042E
Encoding: 1070 1070 141
Width: 600
Flags: W
HStem: 0 100<350 450> 300 100<200 250> 600 100<350 450>
VStem: 100 100<0 300 400 700> 250 100<100 300 400 600> 300 200<0 100 600 700> 450 100<100 600>
CounterMasks: 1 e0
LayerCount: 2
Back
Fore
SplineSet
350 600 m 29xfa
 350 100 l 25
 450 100 l 25
 450 600 l 25
 350 600 l 29xfa
100 700 m 25
 200 700 l 25
 200 400 l 25
 250 400 l 25
 250 600 l 25xf8
 300 600 l 25
 300 700 l 25
 500 700 l 25
 500 600 l 25xf4
 550 600 l 25
 550 100 l 25xf2
 500 100 l 25
 500 0 l 25
 300 0 l 25
 300 100 l 25xf4
 250 100 l 25
 250 300 l 25
 200 300 l 25
 200 0 l 25
 100 0 l 25
 100 700 l 25
EndSplineSet
Validated: 1
EndChar

StartChar: uni042F
Encoding: 1071 1071 142
Width: 600
Flags: W
HStem: 0 100<100 200> 300 100<200 300> 600 100<200 450>
VStem: 100 100<400 600> 200 150<100 200> 450 100<0 200 400 600>
CounterMasks: 1 e0
LayerCount: 2
Back
Fore
SplineSet
200 600 m 29xf4
 200 400 l 25
 450 400 l 25
 450 600 l 25
 200 600 l 29xf4
150 700 m 25
 550 700 l 25
 550 0 l 25
 450 0 l 25
 450 200 l 25
 350 200 l 25
 350 100 l 25xec
 300 100 l 25
 300 0 l 25
 100 0 l 25
 100 100 l 25xf4
 200 100 l 25
 200 200 l 25xec
 300 200 l 25
 300 300 l 25
 150 300 l 25
 150 400 l 25
 100 400 l 25
 100 600 l 25
 150 600 l 25
 150 700 l 25
EndSplineSet
Validated: 1
EndChar

StartChar: uni0430
Encoding: 1072 1072 143
Width: 600
Flags: W
HStem: 0 100<150 400 500 549> 100 100<50 100> 200 100<150 400> 400 100<100 400>
VStem: 50 100<100 200> 400 100<100 200 300 400>
LayerCount: 2
Back
Fore
SplineSet
150 200 m 29xbc
 150 100 l 25
 400 100 l 25
 400 200 l 25
 150 200 l 29xbc
100 500 m 25
 450 500 l 25
 450 400 l 25
 500 400 l 25
 500 100 l 25
 549 100 l 25
 550 0 l 25
 100 0 l 25xbc
 100 100 l 25
 50 100 l 25
 50 200 l 25
 100 200 l 25x5c
 100 300 l 25
 400 300 l 25
 400 400 l 25
 100 400 l 25
 100 500 l 25
EndSplineSet
Validated: 1
EndChar

StartChar: uni0431
Encoding: 1073 1073 144
Width: 600
Flags: W
HStem: 0 100<200 450> 300 200<300 450> 300 100<200 300> 600 100<150 200 300 550>
VStem: 100 100<100 300> 200 100<500 600> 300 150<400 500> 450 100<100 300>
LayerCount: 2
Back
Fore
SplineSet
200 300 m 29xb9
 200 100 l 25
 450 100 l 25
 450 300 l 25xd9
 200 300 l 29xb9
150 700 m 25
 550 700 l 25
 550 600 l 25
 300 600 l 25
 300 500 l 25xd5
 450 500 l 25xd2
 450 400 l 25xb2
 500 400 l 25
 500 300 l 25
 550 300 l 25
 550 100 l 25xb1
 500 100 l 25
 500 0 l 25
 150 0 l 25
 150 100 l 25
 100 100 l 25
 100 300 l 25
 150 300 l 25
 150 400 l 25
 300 400 l 25xba
 300 500 l 25
 200 500 l 25
 200 600 l 25xd4
 150 600 l 25
 150 700 l 25
EndSplineSet
Validated: 5
EndChar

StartChar: uni0432
Encoding: 1074 1074 145
Width: 600
Flags: W
HStem: 0 100<200 450> 100 100<500 550> 200 100<200 450> 300 100<500 550> 400 100<200 450>
VStem: 100 400<0 100 200 300 400 500> 100 100<100 200 300 400> 450 100<100 200 300 400>
LayerCount: 2
Back
Fore
SplineSet
200 200 m 29xa3
 200 100 l 25
 450 100 l 25
 450 200 l 25
 200 200 l 29xa3
200 400 m 25x2b
 200 300 l 25
 450 300 l 25
 450 400 l 25
 200 400 l 25x2b
100 500 m 25x8c
 500 500 l 25x8c
 500 400 l 25x14
 550 400 l 25
 550 300 l 25x11
 500 300 l 25
 500 200 l 25x54
 550 200 l 25
 550 100 l 25x51
 500 100 l 25x54
 500 0 l 25
 100 0 l 25
 100 500 l 25x8c
EndSplineSet
Validated: 1
EndChar

StartChar: uni0433
Encoding: 1075 1075 146
Width: 600
Flags: W
HStem: 0 21G<100 200> 400 100<200 550>
VStem: 100 100<0 400>
LayerCount: 2
Back
Fore
SplineSet
100 0 m 29
 100 500 l 25
 550 500 l 25
 550 401 l 25
 200 400 l 25
 200 0 l 25
 100 0 l 29
EndSplineSet
Validated: 1
EndChar

StartChar: uni0434
Encoding: 1076 1076 147
Width: 600
Flags: W
HStem: -100 200<50 149 450 550> -1 101<149 150 250 350> 400 100<250 350>
VStem: 50 100<-100 -1> 150 100<100 400> 350 100<100 400> 450 100<-100 0>
LayerCount: 2
Back
Fore
SplineSet
250 400 m 29x6c
 250 100 l 25
 350 100 l 25
 350 400 l 25
 250 400 l 29x6c
200 500 m 25
 450 500 l 25x6a
 450 100 l 25xa4
 550 100 l 25
 550 -100 l 25
 450 -100 l 25xa2
 450 0 l 25
 149 -1 l 25x62
 150 -100 l 25
 50 -100 l 25
 50 100 l 25xb2
 150 100 l 25
 150 400 l 25
 200 400 l 25
 200 500 l 25
EndSplineSet
Validated: 1
EndChar

StartChar: uni0435
Encoding: 1077 1077 148
Width: 600
Flags: W
HStem: 0 100<200 500> 200 100<200 450> 400 100<200 450>
VStem: 100 100<100 200 300 400> 450 100<300 400>
CounterMasks: 1 e0
LayerCount: 2
Back
Fore
SplineSet
200 400 m 1
 200 300 l 1
 450 300 l 1
 450 400 l 1
 200 400 l 1
150 400 m 1
 150 500 l 1
 499 500 l 1
 500 400 l 25
 550 400 l 25
 550 200 l 1
 200 200 l 1
 200 100 l 1
 500 100 l 1
 500 0 l 1
 150 0 l 1
 150 100 l 1
 100 100 l 1
 100 400 l 5
 150 400 l 1
EndSplineSet
Validated: 1
EndChar

StartChar: uni0436
Encoding: 1078 1078 149
Width: 600
Flags: W
HStem: 0 100<50 100 500 550> 200 100<200 250 350 400> 400 100<50 100 500 550>
VStem: 50 100<0 100 400 500> 100 100<100 200 300 400> 250 100<0 200 300 500> 400 100<100 200 300 400> 450 100<0 100 400 500>
CounterMasks: 1 e0
LayerCount: 2
Back
Fore
SplineSet
50 500 m 29xf4
 150 500 l 25
 150 400 l 25xf4
 200 400 l 25
 200 300 l 25
 250 300 l 25
 250 500 l 25
 350 500 l 25
 350 300 l 25
 400 300 l 25
 400 400 l 25xee
 450 400 l 25
 450 500 l 25
 550 500 l 25
 550 400 l 25xe5
 500 400 l 25
 500 300 l 25xe6
 450 300 l 25
 450 200 l 25xe5
 500 200 l 25
 500 100 l 25xe6
 550 100 l 25
 550 0 l 25
 450 0 l 25
 450 100 l 25xe5
 400 100 l 25
 400 200 l 25
 350 200 l 25
 350 0 l 25
 250 0 l 25
 250 200 l 25
 200 200 l 25
 200 100 l 25xee
 150 100 l 25
 150 0 l 25
 50 0 l 25
 50 100 l 25xf4
 100 100 l 25
 100 200 l 25xec
 150 200 l 25
 150 300 l 25xf4
 100 300 l 25
 100 400 l 25xec
 50 400 l 25
 50 500 l 29xf4
EndSplineSet
Validated: 1
EndChar

StartChar: uni0437
Encoding: 1079 1079 150
Width: 600
Flags: W
HStem: 0 100<200 450> 100 100<100 150 500 550> 300 100<100 150 500 550> 400 100<200 450>
VStem: 100 100<100 200 300 400> 450 100<100 200 300 400>
LayerCount: 2
Back
Fore
SplineSet
100 400 m 29x2c
 150 400 l 1x2c
 150 500 l 25
 500 500 l 25x1c
 500 400 l 25
 550 400 l 25
 550 300 l 25
 500 300 l 25
 500 200 l 25
 550 200 l 25
 550 100 l 25
 500 100 l 25x6c
 500 0 l 25
 150 0 l 25x8c
 150 100 l 25
 100 100 l 25
 100 200 l 25
 200 200 l 25x4c
 200 100 l 25
 450 100 l 25x8c
 450 200 l 25
 300 200 l 25
 300 300 l 25
 450 300 l 25x6c
 450 400 l 25
 200 400 l 25x1c
 200 300 l 25
 100 300 l 1
 100 400 l 29x2c
EndSplineSet
Validated: 1
EndChar

StartChar: uni0438
Encoding: 1080 1080 151
Width: 600
Flags: W
HStem: 0 100<200 250> 100 100<250 300> 200 100<300 350> 300 100<350 400> 400 100<400 450>
VStem: 100 150<0 100> 100 100<100 500> 250 50<100 200> 300 50<200 300> 350 50<300 400> 400 150<400 500> 450 100<0 400>
LayerCount: 2
Back
Fore
SplineSet
100 0 m 29x84
 100 500 l 5
 200 500 l 29
 200 100 l 29x8a
 250 100 l 29x8c
 250 200 l 29
 300 200 l 29x41
 300 300 l 29
 350 300 l 29x2080
 350 400 l 29
 400 400 l 29x1040
 400 500 l 29
 550 500 l 29x0820
 550 0 l 29
 450 0 l 29
 450 400 l 29x8810
 400 400 l 29
 400 300 l 29x1050
 350 300 l 29
 350 200 l 29x2080
 300 200 l 29
 300 100 l 29x41
 250 100 l 29
 250 0 l 5
 100 0 l 29x84
EndSplineSet
Validated: 5
EndChar

StartChar: uni0439
Encoding: 1081 1081 152
Width: 600
Flags: W
HStem: 0 100<200 250> 100 100<250 300> 200 100<300 350> 300 100<350 400> 400 100<400 450> 600 100<250 400> 700 100<150 200 450 500>
VStem: 100 100<100 500> 150 100<700 800> 250 50<100 200> 300 50<200 300> 350 50<300 400> 400 100<700 800> 450 100<0 400>
LayerCount: 2
Back
Fore
SplineSet
150 800 m 29x0280
 250 800 l 29x0280
 250 700 l 29
 400 700 l 29x0488
 400 800 l 29
 500 800 l 29
 500 700 l 29x0288
 450 700 l 29x0204
 450 600 l 29
 200 600 l 29x0504
 200 700 l 29x0304
 150 700 l 29
 150 800 l 29x0280
100 0 m 25x8140
 100 500 l 1
 200 500 l 25
 200 100 l 25
 250 100 l 25x8940
 250 200 l 25
 300 200 l 25x4140
 300 300 l 25
 350 300 l 25x2020
 350 400 l 25
 400 400 l 25x1010
 400 500 l 25x0808
 550 500 l 25
 550 0 l 25
 450 0 l 25
 450 400 l 25x8804
 400 400 l 25
 400 300 l 25x1014
 350 300 l 25
 350 200 l 25x2020
 300 200 l 25
 300 100 l 25x4040
 250 100 l 25
 250 0 l 1
 100 0 l 25x8140
EndSplineSet
Validated: 5
EndChar

StartChar: uni043A
Encoding: 1082 1082 153
Width: 600
Flags: W
HStem: 0 100<450 550> 200 100<200 350> 400 100<450 550>
VStem: 100 100<0 200 300 500> 350 100<100 200 300 400> 400 150<0 100 400 500>
CounterMasks: 1 e0
LayerCount: 2
Back
Fore
SplineSet
100 500 m 29xf8
 200 500 l 25
 200 300 l 25
 350 300 l 25
 350 400 l 25xf8
 400 400 l 25
 400 500 l 25
 550 500 l 25
 550 400 l 25xf4
 450 400 l 25
 450 300 l 25xf8
 400 300 l 25
 400 200 l 25xf4
 450 200 l 25
 450 100 l 25xf8
 550 100 l 25
 550 0 l 25
 400 0 l 25
 400 100 l 25xf4
 350 100 l 25
 350 200 l 25
 200 200 l 25
 200 0 l 25
 100 0 l 25
 100 500 l 29xf8
EndSplineSet
Validated: 1
EndChar

StartChar: uni043B
Encoding: 1083 1083 154
Width: 600
Flags: W
HStem: 0 100<100 150> 400 100<250 450>
VStem: 100 100<0 100> 150 100<100 400> 450 100<0 400>
LayerCount: 2
Back
Fore
SplineSet
100 100 m 29xe8
 150 100 l 25
 150 400 l 25xd8
 200 400 l 25
 200 500 l 25xe8
 550 500 l 25
 550 0 l 25
 450 0 l 25
 450 400 l 25
 250 400 l 25
 250 100 l 25xd8
 200 100 l 25
 200 0 l 25
 100 0 l 25
 100 100 l 29xe8
EndSplineSet
Validated: 1
EndChar

StartChar: uni043C
Encoding: 1084 1084 155
Width: 600
Flags: W
HStem: 0 21G<100 200 450 550> 480 20G<100 250 400 550>
VStem: 100 150<400 500> 100 100<0 300> 250 150<200 300> 400 150<400 500> 450 100<0 300>
LayerCount: 2
Back
Fore
SplineSet
100 0 m 29xda
 100 500 l 25
 250 500 l 25
 250 400 l 25
 300 400 l 25
 300 300 l 25
 350 300 l 25
 350 400 l 25
 400 400 l 25
 400 500 l 25
 550 500 l 25xe4
 550 0 l 25
 450 0 l 25
 450 300 l 25
 400 300 l 25
 400 200 l 25
 350 200 l 25
 350 100 l 25
 300 100 l 25
 300 200 l 25
 250 200 l 25
 250 300 l 25
 200 300 l 25
 200 0 l 25
 100 0 l 29xda
EndSplineSet
Validated: 1
EndChar

StartChar: uni043D
Encoding: 1085 1085 156
Width: 600
Flags: W
HStem: 0 21G<100 200 400 500> 200 100<200 400> 480 20G<100 200 400 500>
VStem: 100 100<0 200 300 500> 400 100<0 200 300 500>
LayerCount: 2
Back
Fore
SplineSet
100 500 m 25
 200 500 l 25
 200 300 l 1
 400 300 l 1
 400 500 l 5
 500 500 l 1
 500 0 l 1
 400 0 l 1
 400 200 l 1
 200 200 l 1
 200 0 l 25
 100 0 l 25
 100 500 l 25
EndSplineSet
Validated: 1
EndChar

StartChar: uni043E
Encoding: 1086 1086 157
Width: 600
Flags: W
HStem: 0 100<200 450> 400 100<200 450>
VStem: 100 100<100 400> 450 100<100 400>
LayerCount: 2
Back
Fore
SplineSet
200 400 m 29
 200 100 l 25
 450 100 l 25
 450 400 l 25
 200 400 l 29
150 500 m 25
 500 500 l 25
 500 400 l 25
 550 400 l 25
 550 100 l 25
 500 100 l 25
 500 0 l 25
 150 0 l 25
 150 100 l 25
 100 100 l 25
 100 400 l 25
 150 400 l 25
 150 500 l 25
EndSplineSet
Validated: 1
EndChar

StartChar: uni043F
Encoding: 1087 1087 158
Width: 600
Flags: W
HStem: 0 21G<100 200 450 550> 400 100<200 450>
VStem: 100 100<0 400> 450 100<0 400>
LayerCount: 2
Back
Fore
SplineSet
100 0 m 29
 100 500 l 25
 550 500 l 25
 550 0 l 25
 450 0 l 25
 450 400 l 25
 200 400 l 25
 200 0 l 25
 100 0 l 29
EndSplineSet
Validated: 1
EndChar

StartChar: uni0440
Encoding: 1088 1088 159
Width: 600
Flags: W
HStem: -200 21G<100 200> 0 100<250 450> 100 100<200 250> 300 100<200 250> 400 100<250 450>
VStem: 100 150<100 200 300 400> 100 100<-200 100 200 300 400 500> 250 250<0 100 400 500> 450 100<100 400>
LayerCount: 2
Back
Fore
SplineSet
250 300 m 29x9480
 200 300 l 25
 200 200 l 25xb2
 250 200 l 25xb4
 250 100 l 25
 450 100 l 25
 450 400 l 25xcc80
 250 400 l 25
 250 300 l 29x9480
100 500 m 25xaa
 200 500 l 25xaa
 200 400 l 25x92
 250 400 l 25x94
 250 500 l 25
 500 500 l 25
 500 400 l 25x89
 550 400 l 25
 550 100 l 25xa880
 500 100 l 25xa9
 500 0 l 25
 250 0 l 25xc1
 250 100 l 25xc4
 200 100 l 25
 200 -200 l 25
 100 -200 l 25
 100 500 l 25xaa
EndSplineSet
Validated: 5
EndChar

StartChar: uni0441
Encoding: 1089 1089 160
Width: 600
Flags: W
HStem: 0 100<250 550> 200 100<100 150> 400 100<250 550>
VStem: 100 100<200 300> 150 100<100 200 300 400>
CounterMasks: 1 e0
LayerCount: 2
Back
Fore
SplineSet
200 500 m 29xf0
 550 500 l 25
 550 400 l 25
 250 400 l 25
 250 300 l 25xe8
 200 300 l 25
 200 200 l 25xf0
 250 200 l 25
 250 100 l 25xe8
 550 100 l 25
 550 0 l 25
 200 0 l 25
 200 100 l 25xf0
 150 100 l 25
 150 200 l 25xe8
 100 200 l 25
 100 300 l 25xf0
 150 300 l 25
 150 400 l 25xe8
 200 400 l 25
 200 500 l 29xf0
EndSplineSet
Validated: 1
EndChar

StartChar: uni0442
Encoding: 1090 1090 161
Width: 600
Flags: W
HStem: 0 21G<250 350> 400 100<50 250 350 550>
VStem: 250 100<0 400>
LayerCount: 2
Back
Fore
SplineSet
50 500 m 1
 550 500 l 1
 550 400 l 5
 350 400 l 1
 350 0 l 25
 250 0 l 25
 250 400 l 1
 50 400 l 1
 50 500 l 1
EndSplineSet
Validated: 1
EndChar

StartChar: uni0443
Encoding: 1091 1091 162
Width: 600
Flags: W
HStem: -200 100<100 200> 400 100<100 150 500 550>
VStem: 100 100<400 500> 150 100<300 400> 200 100<-100 0 200 300> 250 150<100 200> 250 100<0 100> 350 100<200 300> 400 100<300 400> 450 100<400 500>
LayerCount: 2
Back
Fore
SplineSet
100 500 m 29xe0
 200 500 l 25
 200 400 l 25xe0
 250 400 l 25
 250 300 l 25xd0
 300 300 l 25
 300 200 l 25
 350 200 l 25
 350 300 l 25xc9
 400 300 l 25
 400 400 l 25xc080
 450 400 l 25
 450 500 l 25
 550 500 l 25
 550 400 l 25xc040
 500 400 l 25
 500 300 l 25xc080
 450 300 l 25
 450 200 l 25xc1
 400 200 l 25
 400 100 l 25xc4
 350 100 l 25
 350 0 l 25xc2
 300 0 l 25
 300 -100 l 25xc8
 250 -100 l 25
 250 -200 l 25
 100 -200 l 25
 100 -100 l 25xe2
 200 -100 l 25
 200 0 l 25xc8
 250 0 l 25xc2
 250 200 l 25xc4
 200 200 l 25
 200 300 l 25xc8
 150 300 l 25
 150 400 l 25xd0
 100 400 l 25
 100 500 l 29xe0
EndSplineSet
Validated: 1
EndChar

StartChar: uni0444
Encoding: 1092 1092 163
Width: 600
Flags: W
HStem: -200 21G<250 350> 0 100<150 250 350 450> 400 100<150 250 350 450> 680 20G<250 350>
VStem: 50 100<100 400> 250 100<-200 0 100 400 500 700> 450 100<100 400>
CounterMasks: 1 0e
LayerCount: 2
Back
Fore
SplineSet
250 400 m 29
 150 400 l 25
 150 100 l 25
 250 100 l 25
 250 400 l 29
350 400 m 25
 350 100 l 25
 450 100 l 25
 450 400 l 25
 350 400 l 25
250 700 m 25
 350 700 l 25
 350 500 l 25
 500 500 l 25
 500 400 l 25
 550 400 l 25
 550 100 l 25
 500 100 l 25
 500 0 l 25
 350 0 l 25
 350 -200 l 25
 250 -200 l 25
 250 0 l 25
 100 0 l 25
 100 100 l 25
 50 100 l 25
 50 400 l 25
 100 400 l 25
 100 500 l 25
 250 500 l 25
 250 700 l 25
EndSplineSet
Validated: 1
EndChar

StartChar: uni0445
Encoding: 1093 1093 164
Width: 600
Flags: W
HStem: 0 100<50 150 450 550> 200 100<250 350> 400 100<50 150 450 550>
VStem: 50 150<0 100 400 500> 150 100<100 200 300 400> 350 100<100 200 300 400> 400 150<0 100 400 500>
CounterMasks: 1 e0
LayerCount: 2
Back
Fore
SplineSet
50 500 m 29xf0
 200 500 l 25
 200 400 l 25xf0
 250 400 l 25
 250 300 l 25
 350 300 l 25
 350 400 l 25xec
 400 400 l 25
 400 500 l 25
 550 500 l 25
 550 400 l 25xe2
 450 400 l 25
 450 300 l 25xe4
 400 300 l 25
 400 200 l 25xe2
 450 200 l 25
 450 100 l 25xe4
 550 100 l 25
 550 0 l 25
 400 0 l 25
 400 100 l 25xe2
 350 100 l 25
 350 200 l 25
 250 200 l 25
 250 100 l 25xec
 200 100 l 25
 200 0 l 25
 50 0 l 25
 50 100 l 25xf0
 150 100 l 25
 150 200 l 25xe8
 200 200 l 25
 200 300 l 25xf0
 150 300 l 25
 150 400 l 25xe8
 50 400 l 25
 50 500 l 29xf0
EndSplineSet
Validated: 1
EndChar

StartChar: uni0446
Encoding: 1094 1094 165
Width: 600
Flags: W
HStem: 0 100<200 350> 480 20G<100 200 350 450>
VStem: 100 100<100 500> 350 100<100 500> 450 100<-100 0>
LayerCount: 2
Back
Fore
SplineSet
100 500 m 29xe8
 200 500 l 25
 200 100 l 25
 350 100 l 25
 350 500 l 25
 450 500 l 25
 450 100 l 25xf0
 550 100 l 25
 550 -100 l 25
 450 -100 l 25
 450 0 l 25
 100 0 l 25
 100 500 l 29xe8
EndSplineSet
Validated: 1
EndChar

StartChar: uni0447
Encoding: 1095 1095 166
Width: 600
Flags: W
HStem: 0 21G<450 550> 200 100<200 450> 480 20G<100 200 450 550>
VStem: 100 100<300 500> 450 100<0 200 300 500>
LayerCount: 2
Back
Fore
SplineSet
100 500 m 29
 200 500 l 25
 200 300 l 25
 450 300 l 25
 450 500 l 25
 550 500 l 25
 550 0 l 25
 450 0 l 25
 450 200 l 25
 150 200 l 25
 150 300 l 25
 100 300 l 25
 100 500 l 29
EndSplineSet
Validated: 1
EndChar

StartChar: uni0448
Encoding: 1096 1096 167
Width: 600
Flags: W
HStem: 0 100<150 250 350 450> 480 20G<50 150 250 350 450 550>
VStem: 50 100<100 500> 250 100<100 500> 450 100<100 500>
CounterMasks: 1 38
LayerCount: 2
Back
Fore
SplineSet
50 500 m 29
 150 500 l 25
 150 100 l 25
 250 100 l 25
 250 500 l 25
 350 500 l 25
 350 100 l 25
 450 100 l 25
 450 500 l 25
 550 500 l 25
 550 0 l 25
 50 0 l 25
 50 500 l 29
EndSplineSet
Validated: 1
EndChar

StartChar: uni0449
Encoding: 1097 1097 168
Width: 600
Flags: W
HStem: 0 100<150 250 350 450> 480 20G<50 150 250 350 450 550>
VStem: 50 100<100 500> 250 100<100 500> 450 100<100 500> 500 100<-100 0>
LayerCount: 2
Back
Fore
SplineSet
50 500 m 29xf4
 150 500 l 25
 150 100 l 25
 250 100 l 25
 250 500 l 25
 350 500 l 25
 350 100 l 25
 450 100 l 25
 450 500 l 25
 550 500 l 25
 550 100 l 25xf8
 600 100 l 25
 600 -100 l 25
 500 -100 l 25
 500 0 l 25
 50 0 l 25
 50 500 l 29xf4
EndSplineSet
Validated: 1
EndChar

StartChar: uni044A
Encoding: 1098 1098 169
Width: 600
Flags: W
HStem: 0 100<250 450> 100 100<500 550> 200 100<250 450> 400 100<50 150>
VStem: 150 100<100 200 300 400> 450 100<100 200>
LayerCount: 2
Back
Fore
SplineSet
250 200 m 29xbc
 250 100 l 25
 450 100 l 25
 450 200 l 25
 250 200 l 29xbc
50 500 m 25
 250 500 l 25
 250 300 l 25
 500 300 l 25xbc
 500 200 l 25
 550 200 l 25
 550 100 l 25
 500 100 l 25x5c
 500 0 l 25
 150 0 l 25
 150 400 l 25
 50 400 l 25
 50 500 l 25
EndSplineSet
Validated: 1
EndChar

StartChar: uni044B
Encoding: 1099 1099 170
Width: 600
Flags: W
HStem: 0 100<150 300> 100 100<350 400> 200 100<150 300> 480 20G<50 150 450 550>
VStem: 50 300<0 100 200 300> 50 100<100 200 300 500> 300 100<100 200> 450 100<0 500>
LayerCount: 2
Back
Fore
SplineSet
450 0 m 29x91
 450 500 l 25
 550 500 l 25
 550 0 l 25
 450 0 l 29x91
150 200 m 25xb7
 150 100 l 25
 300 100 l 25
 300 200 l 25
 150 200 l 25xb7
50 500 m 25
 150 500 l 25
 150 300 l 25xb5
 350 300 l 25xb9
 350 200 l 25x59
 400 200 l 25
 400 100 l 25x53
 350 100 l 25x59
 350 0 l 25
 50 0 l 25x99
 50 500 l 25
EndSplineSet
Validated: 1
EndChar

StartChar: uni044C
Encoding: 1100 1100 171
Width: 600
Flags: W
HStem: 0 100<200 450> 100 100<500 550> 200 100<200 450> 480 20G<100 200>
VStem: 100 100<100 200 300 500> 450 100<100 200>
LayerCount: 2
Back
Fore
SplineSet
200 100 m 1xbc
 450 100 l 1
 450 200 l 1
 200 200 l 1
 200 100 l 1xbc
100 500 m 1
 200 500 l 1
 200 300 l 5
 500 300 l 1xbc
 500 200 l 25
 550 200 l 25
 550 100 l 25
 500 100 l 25x5c
 500 0 l 1
 100 0 l 1
 100 500 l 1
EndSplineSet
Validated: 1
EndChar

StartChar: uni044D
Encoding: 1101 1101 172
Width: 600
Flags: W
HStem: 0 100<200 450> 100 100<100 150> 200 100<300 450> 300 100<100 150> 400 100<200 450>
VStem: 100 100<100 200 300 400> 450 100<100 200 300 400>
LayerCount: 2
Back
Fore
SplineSet
100 300 m 29x16
 100 400 l 25
 150 400 l 25x16
 150 500 l 25
 500 500 l 25
 500 400 l 25
 550 400 l 25
 550 100 l 25
 500 100 l 25x4e
 500 0 l 25
 150 0 l 25x86
 150 100 l 25
 100 100 l 25
 100 200 l 25x46
 200 200 l 25
 200 100 l 25
 450 100 l 25
 450 200 l 25
 300 200 l 25
 300 300 l 25
 450 300 l 25
 450 400 l 25
 200 400 l 25xae
 200 300 l 25
 100 300 l 29x16
EndSplineSet
Validated: 1
EndChar

StartChar: uni044E
Encoding: 1102 1102 173
Width: 600
Flags: W
HStem: 0 100<350 450> 200 100<200 250> 400 100<350 450>
VStem: 100 100<0 200 300 500> 250 100<100 200 300 400> 300 200<0 100 400 500> 450 100<100 400>
CounterMasks: 1 e0
LayerCount: 2
Back
Fore
SplineSet
350 100 m 29xfa
 450 100 l 25
 450 400 l 25
 350 400 l 25
 350 100 l 29xfa
100 0 m 25
 100 500 l 25
 200 500 l 25
 200 300 l 25
 250 300 l 25
 250 400 l 25xf8
 300 400 l 25
 300 500 l 25
 500 500 l 25
 500 400 l 25xf4
 550 400 l 25
 550 100 l 25xf2
 500 100 l 25
 500 0 l 25
 300 0 l 25
 300 100 l 25xf4
 250 100 l 25
 250 200 l 25
 200 200 l 25
 200 0 l 25
 100 0 l 25
EndSplineSet
Validated: 1
EndChar

StartChar: uni044F
Encoding: 1103 1103 174
Width: 600
Flags: W
HStem: 0 100<100 200> 200 100<150 200 350 400> 300 100<50 100> 400 100<150 400>
VStem: 50 100<300 400> 100 150<0 100> 200 150<100 200> 400 100<0 200 300 400>
LayerCount: 2
Back
Fore
SplineSet
150 400 m 29xd9
 150 300 l 25
 400 300 l 25
 400 400 l 25
 150 400 l 29xd9
50 400 m 25xa9
 100 400 l 25xa5
 100 500 l 25x95
 500 500 l 25
 500 0 l 25
 400 0 l 25
 400 200 l 25
 350 200 l 25
 350 100 l 25xd3
 250 100 l 25
 250 0 l 25
 100 0 l 25
 100 100 l 25xd5
 200 100 l 25
 200 200 l 25xd3
 100 200 l 25xd5
 100 300 l 25xa5
 50 300 l 25
 50 400 l 25xa9
EndSplineSet
Validated: 1
EndChar

StartChar: uni2116
Encoding: 8470 8470 175
Width: 600
Flags: W
HStem: 0 21G<0 100 200 300> 200 100<350 600> 400 100<450 500> 500 100<350 400 550 600> 600 100<450 500>
VStem: 0 150<400 600> 0 100<0 250 600 700> 150 150<100 250> 200 100<0 100 400 700> 350 100<500 600> 400 150<400 500 600 700> 500 100<500 600>
LayerCount: 2
Back
Fore
SplineSet
350 300 m 29xc050
 600 300 l 25
 600 200 l 25
 350 200 l 25
 350 300 l 29xc050
450 600 m 25xe850
 450 500 l 25
 500 500 l 25
 500 600 l 25
 450 600 l 25xe850
400 600 m 25xd020
 400 700 l 25
 550 700 l 25xc820
 550 600 l 25xd020
 600 600 l 25
 600 500 l 25xd010
 550 500 l 25xd020
 550 400 l 25
 400 400 l 25xe020
 400 500 l 25xd020
 350 500 l 25
 350 600 l 25xd040
 400 600 l 25xd020
0 0 m 25xeb
 0 700 l 25
 100 700 l 25
 100 600 l 25xeb
 150 600 l 25
 150 400 l 25
 200 400 l 25
 200 700 l 25
 300 700 l 25
 300 0 l 25
 200 0 l 25
 200 100 l 25xec80
 150 100 l 25
 150 250 l 25
 100 250 l 25
 100 0 l 25
 0 0 l 25xeb
EndSplineSet
Validated: 1
EndChar

StartChar: asciitilde
Encoding: 126 126 176
Width: 600
Flags: W
HStem: 500 100<100 150 350 450> 600 100<200 300 500 550>
VStem: 100 100<501 600> 450 100<600 700>
LayerCount: 2
Back
Fore
SplineSet
100 600 m 29xb0
 150 600 l 25xb0
 150 700 l 25
 350 700 l 25x70
 350 600 l 25
 450 600 l 25xb0
 450 700 l 25
 550 700 l 25
 550 600 l 25
 500 600 l 25x70
 500 500 l 25
 300 500 l 25xb0
 300 600 l 25
 200 600 l 25x70
 200 500 l 25
 100 501 l 25
 100 600 l 29xb0
EndSplineSet
Validated: 1
EndChar

StartChar: section
Encoding: 167 167 177
Width: 600
Flags: W
HStem: 0 100<150 300> 100 100<50 100> 200 100<250 300> 300 100<150 200 400 450> 400 100<300 350> 500 100<500 550> 600 100<300 450>
VStem: 50 100<100 200> 150 100<300 400> 200 100<500 600> 300 100<100 200> 350 100<300 400> 450 100<500 600>
LayerCount: 2
Back
Fore
SplineSet
350 400 m 29x0890
 250 400 l 25
 250 300 l 25x2890
 350 300 l 25x1090
 350 400 l 29x0890
450 500 m 25x0488
 450 600 l 25
 300 600 l 25
 300 500 l 25x0a48
 400 500 l 25
 400 400 l 25x1420
 450 400 l 25
 450 300 l 25x1410
 400 300 l 25
 400 100 l 25x5420
 350 100 l 25x5410
 350 0 l 25
 100 0 l 25x8010
 100 100 l 25
 50 100 l 25
 50 200 l 25x4110
 150 200 l 25
 150 100 l 25
 300 100 l 25
 300 200 l 25xa120
 200 200 l 25xa040
 200 300 l 25x1040
 150 300 l 25
 150 400 l 25x1080
 200 400 l 25
 200 600 l 25x1240
 250 600 l 25
 250 700 l 25
 500 700 l 25x1280
 500 600 l 25
 550 600 l 25
 550 500 l 25
 450 500 l 25x0488
EndSplineSet
Validated: 1
EndChar

StartChar: parenleft
Encoding: 40 40 178
Width: 600
Flags: W
HStem: 0 100<300 400> 600 100<300 400>
VStem: 150 100<200 500> 200 100<100 200 500 600> 250 150<0 100 600 700>
LayerCount: 2
Back
Fore
SplineSet
250 600 m 29xc8
 250 700 l 25
 400 700 l 25
 400 600 l 25xc8
 300 600 l 25
 300 500 l 25xd0
 250 500 l 25
 250 200 l 25xe0
 300 200 l 25
 300 100 l 25xd0
 400 100 l 25
 400 0 l 25
 250 0 l 25
 250 100 l 25xc8
 200 100 l 25
 200 200 l 25xd0
 150 200 l 25
 150 500 l 25xe0
 200 500 l 25
 200 600 l 25xd0
 250 600 l 29xc8
EndSplineSet
Validated: 1
EndChar

StartChar: quotedbl
Encoding: 34 34 179
Width: 600
Flags: HMW
LayerCount: 2
Back
Fore
SplineSet
350 500 m 29
 350 700 l 29
 450 700 l 29
 450 500 l 29
 350 500 l 29
150 500 m 5
 150 700 l 29
 250 700 l 5
 250 500 l 29
 150 500 l 5
EndSplineSet
Validated: 1
EndChar

StartChar: numbersign
Encoding: 35 35 180
Width: 600
Flags: W
HStem: 0 21G<150 250 350 450> 200 100<50 150 250 350 450 550> 400 100<50 150 250 350 450 550> 680 20G<150 250 350 450>
VStem: 150 100<0 200 300 400 500 700> 350 100<0 200 300 400 500 700>
LayerCount: 2
Back
Fore
SplineSet
250 300 m 29
 350 300 l 25
 350 400 l 25
 250 400 l 25
 250 300 l 29
150 700 m 25
 250 700 l 25
 250 500 l 25
 350 500 l 25
 350 700 l 25
 450 700 l 25
 450 500 l 25
 550 500 l 25
 550 400 l 25
 450 400 l 25
 450 300 l 25
 550 300 l 25
 550 200 l 25
 450 200 l 25
 450 0 l 25
 350 0 l 25
 350 200 l 25
 250 200 l 25
 250 0 l 25
 150 0 l 25
 150 200 l 25
 50 200 l 25
 50 300 l 25
 150 300 l 25
 150 400 l 25
 50 400 l 25
 50 500 l 25
 150 500 l 25
 150 700 l 25
EndSplineSet
Validated: 1
EndChar

StartChar: dollar
Encoding: 36 36 181
Width: 600
Flags: W
HStem: 0 100<150 250 350 450> 100 100<50 100> 300 100<150 250 350 450> 500 100<500 550> 600 100<150 250 350 450>
VStem: 50 100<100 200 400 600> 100 400<0 100 300 400 600 700> 250 100<-100 0 100 300 400 600 700 800> 450 100<100 300 500 600>
LayerCount: 2
Back
Fore
SplineSet
450 100 m 29xa180
 450 300 l 25
 350 300 l 25
 350 100 l 25
 450 100 l 29xa180
250 600 m 25x2d
 150 600 l 25
 150 400 l 25
 250 400 l 25
 250 600 l 25x2d
350 800 m 25
 350 700 l 1xa9
 500 700 l 25xaa
 500 600 l 25x32
 550 600 l 25
 550 500 l 25
 450 500 l 25x3080
 450 600 l 25
 350 600 l 25
 350 400 l 25x2980
 500 400 l 25
 500 300 l 25x2a
 550 300 l 25
 550 100 l 25x6880
 500 100 l 25x6a
 500 0 l 25xa2
 350 0 l 25
 350 -100 l 25
 250 -100 l 25
 250 0 l 25xa1
 100 0 l 25xa2
 100 100 l 25x62
 50 100 l 25
 50 200 l 25
 150 200 l 25x64
 150 100 l 25
 250 100 l 25
 250 300 l 25xa5
 100 300 l 25
 100 400 l 25xa2
 50 400 l 25
 50 600 l 25xac
 100 600 l 25
 100 700 l 25xaa
 250 700 l 25
 250 800 l 1
 350 800 l 25
EndSplineSet
Validated: 1
EndChar

StartChar: percent
Encoding: 37 37 182
Width: 600
Flags: W
HStem: 0 100<100 150 450 500> 100 100<350 400 550 600> 200 100<450 500> 400 100<100 150> 500 100<0 50 200 250> 600 100<100 150 450 500>
VStem: 0 100<500 600> 50 150<400 500 600 700> 100 100<0 100> 150 100<100 200 500 600> 200 100<200 300> 250 100<300 400> 300 100<400 500> 350 100<100 200 500 600> 400 150<0 100 200 300> 400 100<600 700> 500 100<100 200>
LayerCount: 2
Back
Fore
SplineSet
400 700 m 29x0401
 500 700 l 25
 500 600 l 25x0401
 450 600 l 25x0404
 450 500 l 25x0804
 400 500 l 25x0808
 400 400 l 25x1008
 350 400 l 25
 350 300 l 25x3010
 300 300 l 25
 300 200 l 25x3020
 250 200 l 25x3040
 250 100 l 25x4040
 200 100 l 25x4080
 200 0 l 25
 100 0 l 25
 100 100 l 25x8080
 150 100 l 25
 150 200 l 25xa040
 200 200 l 25
 200 300 l 25xa020
 250 300 l 25
 250 400 l 25xb010
 300 400 l 25xb008
 300 500 l 25x0808
 350 500 l 25x0804
 350 600 l 25x0404
 400 600 l 25
 400 700 l 29x0401
450 100 m 25xa00480
 500 100 l 25
 500 200 l 25
 450 200 l 25
 450 100 l 25xa00480
400 300 m 25x2002
 550 300 l 25x2002
 550 200 l 25x4002
 600 200 l 25
 600 100 l 25x400080
 550 100 l 25x4002
 550 0 l 25
 400 0 l 25x8002
 400 100 l 25x4002
 350 100 l 25
 350 200 l 25x4004
 400 200 l 25x4002
 400 300 l 25x2002
100 600 m 25x1640
 100 500 l 25
 150 500 l 25
 150 600 l 25
 100 600 l 25x1640
0 600 m 25x0a
 50 600 l 25x09
 50 700 l 25
 200 700 l 25x05
 200 600 l 25x09
 250 600 l 25
 250 500 l 25x0840
 200 500 l 25x09
 200 400 l 25
 50 400 l 25x11
 50 500 l 25x09
 0 500 l 25
 0 600 l 25x0a
EndSplineSet
Validated: 1
EndChar

StartChar: ampersand
Encoding: 38 38 183
Width: 600
Flags: W
HStem: 0 100<150 350 500 600> 100 100<50 100 400 450> 200 100<500 550> 300 100<200 300> 600 100<200 300>
VStem: 50 100<100 200> 100 100<200 300 400 600> 150 200<300 400 600 700> 300 100<200 300 400 600> 450 150<0 100> 450 100<200 300>
LayerCount: 2
Back
Fore
SplineSet
200 300 m 29x1a80
 200 200 l 25x2a80
 150 200 l 25
 150 100 l 25xac
 350 100 l 25
 350 200 l 25xa9
 300 200 l 25xa880
 300 300 l 25
 200 300 l 29x1a80
200 600 m 25
 200 400 l 25
 300 400 l 25x1a80
 300 600 l 25
 200 600 l 25
150 700 m 25x59
 350 700 l 25
 350 600 l 25x59
 400 600 l 25
 400 400 l 25x5880
 350 400 l 25
 350 300 l 25x59
 400 300 l 25
 400 200 l 25
 450 200 l 25
 450 300 l 25x58a0
 550 300 l 25
 550 200 l 25x28a0
 500 200 l 25
 500 100 l 25
 600 100 l 25
 600 0 l 25
 450 0 l 25xa840
 450 100 l 25
 400 100 l 25x48c0
 400 0 l 25
 100 0 l 25x8ac0
 100 100 l 25x4ac0
 50 100 l 25
 50 200 l 25x4c
 100 200 l 25
 100 300 l 25x5a
 150 300 l 25
 150 400 l 25x59
 100 400 l 25
 100 600 l 25x5a
 150 600 l 25
 150 700 l 25x59
EndSplineSet
Validated: 1
EndChar

StartChar: quotesingle
Encoding: 39 39 184
Width: 600
Flags: HMW
LayerCount: 2
Back
Fore
SplineSet
250 700 m 29
 350 700 l 29
 350 500 l 29
 250 500 l 29
 250 700 l 29
EndSplineSet
Validated: 1
EndChar

StartChar: parenright
Encoding: 41 41 185
Width: 600
Flags: W
HStem: 0 100<200 300> 600 100<200 300>
VStem: 200 150<0 100 600 700> 300 100<100 200 500 600> 350 100<200 500>
LayerCount: 2
Back
Fore
SplineSet
200 700 m 29xe0
 350 700 l 25
 350 600 l 25xe0
 400 600 l 25
 400 500 l 25xd0
 450 500 l 25
 450 200 l 25xc8
 400 200 l 25
 400 100 l 25xd0
 350 100 l 25
 350 0 l 25
 200 0 l 25
 200 100 l 25xe0
 300 100 l 25
 300 200 l 25xd0
 350 200 l 25
 350 500 l 25xc8
 300 500 l 25
 300 600 l 25xd0
 200 600 l 25
 200 700 l 29xe0
EndSplineSet
Validated: 1
EndChar

StartChar: braceleft
Encoding: 123 123 186
Width: 600
Flags: W
HStem: 0 100<350 450> 300 100<150 250> 600 100<350 450>
VStem: 150 150<300 400> 250 100<100 300 400 600> 300 150<0 100 600 700>
CounterMasks: 1 e0
LayerCount: 2
Back
Fore
SplineSet
450 700 m 29xe4
 450 600 l 1xe4
 350 600 l 25
 350 400 l 25xe8
 300 400 l 25
 300 300 l 25xf0
 350 300 l 25
 350 100 l 25xe8
 450 100 l 25
 450 0 l 25
 300 0 l 25
 300 100 l 25xe4
 250 100 l 25
 250 300 l 25xe8
 150 300 l 25
 150 400 l 25xf0
 250 400 l 25
 250 600 l 25xe8
 300 600 l 25
 300 700 l 1
 450 700 l 29xe4
EndSplineSet
Validated: 1
EndChar

StartChar: bar
Encoding: 124 124 187
Width: 600
Flags: W
HStem: 0 21G<250 350> 680 20G<250 350>
VStem: 250 100<0 700>
LayerCount: 2
Back
Fore
SplineSet
250 700 m 29
 350 700 l 25
 350 0 l 25
 250 0 l 25
 250 700 l 29
EndSplineSet
Validated: 1
EndChar

StartChar: braceright
Encoding: 125 125 188
Width: 600
Flags: W
HStem: 0 100<150 250> 300 100<350 450> 600 100<150 250>
VStem: 150 150<0 100 600 700> 250 100<100 300 400 600> 300 150<300 400>
CounterMasks: 1 e0
LayerCount: 2
Back
Fore
SplineSet
150 700 m 29xf0
 300 700 l 25
 300 600 l 25xf0
 350 600 l 25
 350 400 l 25xe8
 450 400 l 25
 450 300 l 25xe4
 350 300 l 25
 350 100 l 25xe8
 300 100 l 25
 300 0 l 25
 150 0 l 25
 150 100 l 25xf0
 250 100 l 25
 250 300 l 25xe8
 300 300 l 25
 300 400 l 25xe4
 250 400 l 25
 250 600 l 25xe8
 150 600 l 25
 150 700 l 29xf0
EndSplineSet
Validated: 1
EndChar

StartChar: uni0451
Encoding: 1105 1105 189
Width: 600
Flags: W
HStem: 0 100<200 500> 200 100<200 450> 400 100<200 450> 600 100<150 250 400 500>
VStem: 100 100<100 200 300 400> 150 100<600 700> 400 100<600 700> 450 100<300 400>
LayerCount: 2
Back
Fore
SplineSet
400 700 m 25xf2
 500 700 l 25
 500 600 l 25
 400 600 l 25
 400 700 l 25xf2
150 700 m 25xf4
 250 700 l 25
 250 600 l 25
 150 600 l 25
 150 700 l 25xf4
200 400 m 1xf9
 200 300 l 1
 450 300 l 1
 450 400 l 1
 200 400 l 1xf9
150 400 m 1xf4
 151 500 l 1
 499 500 l 1
 500 400 l 25xf6
 550 400 l 25
 550 200 l 1
 200 200 l 1
 200 100 l 1xf9
 500 100 l 1
 500 0 l 1
 150 0 l 1
 150 100 l 1xf6
 100 100 l 1
 100 400 l 5xf8
 150 400 l 1xf4
EndSplineSet
Validated: 1
EndChar

StartChar: underscore
Encoding: 95 95 190
Width: 600
Flags: W
HStem: -100 100<50 550>
LayerCount: 2
Back
Fore
SplineSet
50 -100 m 29
 50 0 l 1
 550 0 l 25
 550 -100 l 1
 50 -100 l 29
EndSplineSet
Validated: 1
EndChar

StartChar: asciicircum
Encoding: 94 94 191
Width: 600
Flags: W
HStem: 400 100<150 200 450 500> 600 100<300 350>
VStem: 150 100<400 500> 200 100<500 600> 350 100<500 600> 400 100<400 500>
LayerCount: 2
Back
Fore
SplineSet
150 400 m 29xe0
 150 500 l 25xe0
 200 500 l 25
 200 600 l 25xd0
 250 600 l 25
 250 700 l 25
 400 700 l 25
 400 600 l 25xe4
 450 600 l 25
 450 500 l 25xc8
 500 500 l 25
 500 400 l 25
 400 400 l 25
 400 500 l 25xc4
 350 500 l 25
 350 600 l 25
 300 600 l 25
 300 500 l 25xd8
 250 500 l 25
 250 400 l 25
 150 400 l 29xe0
EndSplineSet
Validated: 1
EndChar

StartChar: grave
Encoding: 96 96 192
Width: 600
Flags: W
HStem: 400 100<300 350> 600 100<150 200>
VStem: 150 100<600 700> 200 100<500 600> 250 100<400 500>
LayerCount: 2
Back
Fore
SplineSet
150 700 m 29xe0
 250 700 l 25
 250 600 l 25xe0
 300 600 l 25
 300 500 l 25xd0
 350 500 l 25
 350 400 l 25
 250 400 l 25
 250 500 l 25xc8
 200 500 l 25
 200 600 l 25xd0
 150 600 l 25
 150 700 l 29xe0
EndSplineSet
Validated: 1
EndChar

StartChar: bracketleft
Encoding: 91 91 193
Width: 600
Flags: W
HStem: 0 100<300 400> 600 100<300 400>
VStem: 200 200<0 100 600 700> 200 100<100 600>
LayerCount: 2
Back
Fore
SplineSet
400 600 m 29xe0
 300 600 l 25
 300 100 l 25xd0
 400 100 l 25
 400 0 l 25
 200 0 l 25
 200 700 l 25
 400 700 l 25
 400 600 l 29xe0
EndSplineSet
Validated: 1
EndChar

StartChar: bracketright
Encoding: 93 93 194
Width: 600
Flags: W
HStem: 0 100<200 300> 600 100<200 300>
VStem: 200 200<0 100 600 700> 300 100<100 600>
LayerCount: 2
Back
Fore
SplineSet
200 700 m 29xe0
 399 700 l 1
 400 0 l 25
 200 0 l 25
 200 100 l 25xe0
 300 100 l 25
 300 600 l 25xd0
 200 600 l 1
 200 700 l 29xe0
EndSplineSet
Validated: 1
EndChar

StartChar: backslash
Encoding: 92 92 195
Width: 600
Flags: W
HStem: 0 100<450 500> 600 100<100 150>
VStem: 100 100<600 700> 150 100<500 600> 200 100<400 500> 250 100<300 400> 300 100<200 300> 350 100<100 200> 400 100<0 100>
LayerCount: 2
Back
Fore
SplineSet
100 600 m 29xe0
 100 700 l 25
 200 700 l 25
 200 600 l 25xe0
 250 600 l 25
 250 500 l 25xd0
 300 500 l 25
 300 400 l 25xc8
 350 400 l 25
 350 300 l 25xc4
 400 300 l 25
 400 200 l 25xc2
 450 200 l 25
 450 100 l 25xc1
 500 100 l 25
 500 0 l 25
 400 0 l 25
 400 100 l 25xc080
 350 100 l 25
 350 200 l 25xc1
 300 200 l 25
 300 300 l 25xc2
 250 300 l 25
 250 400 l 25xc4
 200 400 l 25
 200 500 l 25xc8
 150 500 l 25
 150 600 l 25xd0
 100 600 l 29xe0
EndSplineSet
Validated: 1
EndChar

StartChar: Odieresis
Encoding: 214 214 196
Width: 600
Flags: MW
LayerCount: 2
Back
Fore
SplineSet
200 500 m 29
 200 400 l 25
 150 400 l 25
 150 200 l 25
 200 200 l 25
 200 100 l 25
 400 100 l 25
 400 200 l 25
 450 200 l 25
 450 400 l 25
 400 400 l 25
 400 500 l 25
 200 500 l 29
150 600 m 25
 450 600 l 25
 450 500 l 25
 500 500 l 25
 500 400 l 25
 550 400 l 25
 550 200 l 25
 500 200 l 25
 500 100 l 25
 450 100 l 25
 450 0 l 25
 150 0 l 25
 150 100 l 25
 100 100 l 25
 100 200 l 25
 50 200 l 25
 50 400 l 25
 100 400 l 25
 100 500 l 25
 150 500 l 25
 150 600 l 25
350 700 m 25
 350 800 l 25
 450 800 l 25
 450 700 l 25
 350 700 l 25
150 700 m 25
 150 800 l 25
 250 800 l 25
 250 700 l 25
 150 700 l 25
EndSplineSet
Validated: 1
EndChar

StartChar: acute
Encoding: 180 180 197
Width: 600
Flags: W
HStem: 400 100<150 200> 600 100<300 350>
VStem: 150 100<400 500> 200 100<500 600> 250 100<600 700>
LayerCount: 2
Back
Fore
SplineSet
250 600 m 29xc8
 250 700 l 25
 350 700 l 25
 350 600 l 25xc8
 300 600 l 25
 300 500 l 25xd0
 250 500 l 25
 250 400 l 25
 150 400 l 25
 150 500 l 25xe0
 200 500 l 25
 200 600 l 25xd0
 250 600 l 29xc8
EndSplineSet
Validated: 1
EndChar

StartChar: plusminus
Encoding: 177 177 198
Width: 600
Flags: W
HStem: 100 100<100 500> 451 99<100 250 350 500> 680 20G<250 350>
VStem: 250 100<300 450 550 700>
LayerCount: 2
Back
Fore
SplineSet
100 200 m 29
 500 200 l 25
 500 101 l 25
 100 100 l 25
 100 200 l 29
100 550 m 25
 250 550 l 25
 250 700 l 25
 350 700 l 25
 350 550 l 25
 500 551 l 25
 500 450 l 25
 350 450 l 25
 350 300 l 25
 250 300 l 25
 250 451 l 25
 100 451 l 25
 100 550 l 25
EndSplineSet
Validated: 1
EndChar

StartChar: uni20BD
Encoding: 8381 8381 199
Width: 600
Flags: W
HStem: 0 21G<100 200> 150 100<0 100 200 400> 300 100<0 100 200 450> 600 100<200 450>
VStem: 100 100<0 150 250 300 400 600> 450 100<400 600>
LayerCount: 2
Back
Fore
SplineSet
200 400 m 25
 450 400 l 25
 450 600 l 25
 200 600 l 25
 200 400 l 25
100 700 m 25
 500 700 l 25
 500 650 l 25
 550 650 l 25
 550 400 l 25
 500 400 l 25
 500 300 l 25
 200 300 l 25
 200 250 l 1
 400 250 l 5
 400 150 l 1
 200 150 l 1
 200 0 l 25
 100 0 l 25
 100 150 l 25
 0 150 l 25
 0 250 l 25
 100 250 l 25
 100 300 l 25
 0 300 l 25
 0 400 l 25
 100 400 l 25
 100 700 l 25
EndSplineSet
Validated: 1
EndChar

StartChar: Udieresis
Encoding: 220 220 200
Width: 600
Flags: W
HStem: 0 100<200 450> 700 100<150 250 400 500>
VStem: 100 100<100 600> 150 100<700 800> 400 100<700 800> 450 100<100 600>
LayerCount: 2
Back
Fore
SplineSet
400 800 m 29xc8
 500 800 l 25
 500 700 l 25
 400 700 l 25
 400 800 l 29xc8
150 700 m 25xd0
 150 800 l 25
 250 800 l 25
 250 700 l 25
 150 700 l 25xd0
100 600 m 1xe0
 200 600 l 1
 200 100 l 1
 450 100 l 1
 450 600 l 1
 550 600 l 1
 550 100 l 1xe4
 500 100 l 25
 500 0 l 25
 150 0 l 25
 150 100 l 25xd8
 100 100 l 1
 100 600 l 1xe0
EndSplineSet
Validated: 1
EndChar

StartChar: Adieresis
Encoding: 196 196 201
Width: 600
Flags: W
HStem: 0 21G<50 150 450 550> 200 100<150 450> 500 100<200 400> 700 100<150 250 350 450>
VStem: 50 100<0 200 300 400> 100 100<400 500> 150 100<700 800> 350 100<700 800> 400 100<400 500> 450 100<0 200 300 400>
LayerCount: 2
Back
Fore
SplineSet
350 700 m 25xf1
 350 800 l 25
 450 800 l 25
 450 700 l 25
 350 700 l 25xf1
150 700 m 25xf2
 150 800 l 25
 250 800 l 25
 250 700 l 25
 150 700 l 25xf2
150 300 m 25xf8
 450 300 l 25
 450 400 l 25xf840
 400 400 l 1
 400 500 l 25
 200 500 l 1
 200 400 l 29xf480
 150 400 l 1
 150 300 l 25xf8
50 0 m 25
 50 400 l 1xf840
 100 400 l 25
 100 500 l 25xf4
 150 500 l 25
 150 600 l 25
 450 600 l 25
 450 500 l 25xf240
 500 500 l 25
 500 400 l 25xf080
 550 400 l 25
 550 0 l 25
 450 0 l 25
 450 200 l 25
 150 200 l 25
 150 0 l 1
 50 0 l 25
EndSplineSet
Validated: 1
EndChar

StartChar: adieresis
Encoding: 228 228 202
Width: 600
Flags: W
HStem: 0 100<150 400 500 549> 100 100<50 100> 200 100<150 400> 400 100<100 400> 600 100<150 250 350 450>
VStem: 50 100<100 200> 150 100<600 700> 350 100<600 700> 400 100<100 200 300 400>
LayerCount: 2
Back
Fore
SplineSet
350 600 m 29x19
 350 700 l 29
 450 700 l 29
 450 600 l 29
 350 600 l 29x19
150 600 m 29x1a
 150 700 l 29
 250 700 l 29
 250 600 l 29
 150 600 l 29x1a
150 200 m 25xbc80
 150 100 l 25
 400 100 l 25
 400 200 l 25
 150 200 l 25xbc80
100 500 m 25
 450 500 l 25
 450 400 l 25x39
 500 400 l 25
 500 100 l 25
 549 100 l 25
 550 0 l 25
 100 0 l 25xb880
 100 100 l 25
 50 100 l 25
 50 200 l 25
 100 200 l 25x5c80
 100 300 l 25
 400 300 l 25
 400 400 l 25
 100 400 l 25
 100 500 l 25
EndSplineSet
Validated: 1
EndChar

StartChar: odieresis
Encoding: 246 246 203
Width: 600
Flags: W
HStem: 0 100<200 450> 400 100<200 450> 600 100<150 250 400 500>
VStem: 100 100<100 400> 150 100<600 700> 400 100<600 700> 450 100<100 400>
LayerCount: 2
Back
Fore
SplineSet
400 600 m 29xe4
 400 700 l 29
 500 700 l 29
 500 600 l 29
 400 600 l 29xe4
150 600 m 25xe8
 150 700 l 25
 250 700 l 25
 250 600 l 25
 150 600 l 25xe8
200 400 m 25xf2
 200 100 l 25
 450 100 l 25
 450 400 l 25
 200 400 l 25xf2
150 500 m 25xe8
 500 500 l 25
 500 400 l 25xec
 550 400 l 25
 550 100 l 25xe2
 500 100 l 25
 500 0 l 25
 150 0 l 25
 150 100 l 25xec
 100 100 l 25
 100 400 l 25xf0
 150 400 l 25
 150 500 l 25xe8
EndSplineSet
Validated: 1
EndChar

StartChar: germandbls
Encoding: 223 223 204
Width: 600
Flags: W
HStem: 0 100<250 450> 300 100<300 400> 600 100<250 400>
VStem: 100 100<0 500> 150 100<500 600> 300 150<300 400> 400 100<400 600> 450 100<100 300>
CounterMasks: 1 e0
LayerCount: 2
Back
Fore
SplineSet
200 600 m 25xf0
 200 700 l 1
 450 700 l 25
 450 600 l 25xf1
 500 600 l 25
 500 400 l 25xe2
 450 400 l 25
 450 300 l 25xe4
 550 300 l 25
 550 100 l 25xe1
 500 100 l 25
 500 0 l 25xe2
 250 0 l 25
 250 100 l 25
 450 100 l 25xe9
 450 300 l 25
 300 300 l 25
 300 400 l 25xe4
 400 400 l 25
 400 600 l 25
 250 600 l 25
 250 500 l 25xea
 200 500 l 25
 200 0 l 25
 100 0 l 25
 100 500 l 25xf0
 150 500 l 25
 150 600 l 1xe8
 200 600 l 25xf0
EndSplineSet
Validated: 5
EndChar

StartChar: uniFFFD
Encoding: 65533 65533 205
Width: 600
Flags: W
HStem: -200 21G<200 400> 100 100<250 350> 480 20G<250 350> 600 200<200 400>
VStem: 50 100<400 500> 100 150<0 100> 100 100<500 600> 150 300<-100 0 600 700> 200 200<-200 -100 700 800> 250 100<400 500> 350 150<0 100> 400 100<500 600> 450 150<300 400> 450 100<400 500>
LayerCount: 2
Back
Fore
SplineSet
250 200 m 29xf040
 400 200 l 25
 400 300 l 25xf050
 450 300 l 25xf008
 450 500 l 25xf004
 400 500 l 25
 400 600 l 25
 200 600 l 25
 200 500 l 25xf210
 150 500 l 25
 150 400 l 25
 250 400 l 25
 250 500 l 25
 350 500 l 25xf840
 350 300 l 25xf020
 250 300 l 25
 250 200 l 29xf040
250 0 m 25xf420
 350 0 l 25
 350 100 l 25
 250 100 l 25
 250 0 l 25xf420
0 200 m 25
 0 400 l 25
 50 400 l 25
 50 500 l 25xf8
 100 500 l 25
 100 600 l 25xf2
 150 600 l 25
 150 700 l 25xf1
 200 700 l 25
 200 800 l 25
 400 800 l 25
 400 700 l 25xf080
 450 700 l 25
 450 600 l 25xf1
 500 600 l 25
 500 500 l 25xf010
 550 500 l 25
 550 400 l 25xf004
 600 400 l 25
 600 200 l 25xf008
 550 200 l 25
 550 100 l 25xf004
 500 100 l 25
 500 0 l 25xf020
 450 0 l 25
 450 -100 l 25xf1
 400 -100 l 25
 400 -200 l 25
 200 -200 l 25
 200 -100 l 25xf080
 150 -100 l 25
 150 0 l 25xf1
 100 0 l 25
 100 100 l 25xf4
 50 100 l 25
 50 200 l 25xf8
 0 200 l 25
EndSplineSet
Validated: 1
EndChar

StartChar: Oslash
Encoding: 216 216 206
Width: 600
Flags: W
HStem: 0 100<200 400> 600 100<200 400>
VStem: 50 100<200 500> 100 100<100 200 500 600> 150 300<0 100 600 700> 400 100<100 200 500 600> 450 100<200 500>
LayerCount: 2
Back
Fore
SplineSet
400 100 m 29xd4
 400 200 l 25xd4
 450 200 l 25
 450 500 l 25xc2
 400 500 l 25
 400 600 l 25
 200 600 l 25
 200 500 l 25xd4
 150 500 l 25
 150 200 l 25xe0
 200 200 l 25
 200 100 l 25
 400 100 l 29xd4
450 0 m 25xc8
 150 0 l 25
 150 100 l 25xc8
 100 100 l 25
 100 200 l 25xd0
 50 200 l 25
 50 500 l 25xe0
 100 500 l 25
 100 600 l 25xd0
 150 600 l 25
 150 700 l 25
 450 700 l 25
 450 600 l 25xc8
 500 600 l 25
 500 500 l 25xc4
 550 500 l 25
 550 200 l 25xc2
 500 200 l 25
 500 100 l 25xc4
 450 100 l 25
 450 0 l 25xc8
EndSplineSet
Validated: 1
EndChar

StartChar: multiply
Encoding: 215 215 207
Width: 600
Flags: HMW
LayerCount: 2
Back
Fore
SplineSet
150 200 m 29
 150 300 l 25
 250 300 l 25
 250 400 l 25
 150 400 l 25
 150 500 l 25
 250 500 l 25
 250 400 l 25
 350 400 l 25
 350 500 l 25
 450 500 l 25
 450 400 l 25
 350 400 l 25
 350 300 l 25
 450 300 l 25
 450 200 l 25
 350 200 l 25
 350 300 l 25
 250 300 l 25
 250 200 l 25
 150 200 l 29
EndSplineSet
Validated: 5
EndChar

StartChar: divide
Encoding: 247 247 208
Width: 600
Flags: HMW
LayerCount: 2
Back
Fore
SplineSet
250 100 m 29
 250 200 l 25
 350 200 l 25
 350 100 l 25
 250 100 l 29
100 300 m 25
 100 400 l 25
 500 400 l 25
 500 300 l 25
 100 300 l 25
250 500 m 25
 250 600 l 25
 350 600 l 25
 350 500 l 25
 250 500 l 25
EndSplineSet
Validated: 1
EndChar

StartChar: brokenbar
Encoding: 166 166 209
Width: 600
Flags: W
HStem: 0 21G<250 350> 680 20G<250 350>
VStem: 250 100<0 700>
LayerCount: 2
Back
Fore
SplineSet
250 700 m 29
 350 700 l 25
 350 0 l 25
 250 0 l 25
 250 700 l 29
EndSplineSet
Validated: 1
EndChar

StartChar: degree
Encoding: 176 176 210
Width: 600
Flags: HMW
LayerCount: 2
Back
Fore
SplineSet
250 600 m 29
 250 500 l 25
 350 500 l 25
 350 600 l 25
 250 600 l 29
200 600 m 25
 200 700 l 25
 400 700 l 25
 400 600 l 25
 450 600 l 25
 450 500 l 25
 400 500 l 25
 400 400 l 25
 200 400 l 25
 200 500 l 25
 150 500 l 25
 150 600 l 25
 200 600 l 25
EndSplineSet
Validated: 1
EndChar

StartChar: arrowright
Encoding: 8594 8594 211
Width: 600
Flags: W
HStem: 100 100<250 300> 300 100<0 300 450 550> 500 100<250 300>
VStem: 250 100<100 200 500 600> 300 150<200 300 400 500>
CounterMasks: 1 e0
LayerCount: 2
Back
Fore
SplineSet
250 500 m 29xf0
 250 600 l 25
 350 600 l 25
 350 500 l 25xf0
 450 500 l 25
 450 400 l 25
 550 400 l 25
 550 300 l 25
 450 300 l 25
 450 200 l 25xe8
 350 200 l 25
 350 100 l 25
 250 100 l 25
 250 200 l 25xf0
 300 200 l 25
 300 300 l 25
 0 300 l 25
 0 400 l 25
 300 400 l 25
 300 500 l 25xe8
 250 500 l 29xf0
EndSplineSet
Validated: 1
EndChar

StartChar: arrowleft
Encoding: 8592 8592 212
Width: 600
Flags: W
HStem: 100 100<350 400> 300 100<100 200 350 600> 500 100<350 400>
VStem: 200 150<200 300 400 500> 300 100<100 200 500 600>
CounterMasks: 1 e0
LayerCount: 2
Back
Fore
SplineSet
300 500 m 29xe8
 300 600 l 25
 400 600 l 25
 400 500 l 25xe8
 350 500 l 25
 350 400 l 25
 600 400 l 25
 600 300 l 25
 350 300 l 25
 350 200 l 25xf0
 400 200 l 25
 400 100 l 25
 300 100 l 25
 300 200 l 25xe8
 200 200 l 25
 200 300 l 25
 100 300 l 25
 100 400 l 25
 200 400 l 25
 200 500 l 25xf0
 300 500 l 29xe8
EndSplineSet
Validated: 1
EndChar

StartChar: arrowup
Encoding: 8593 8593 213
Width: 600
Flags: W
HStem: 0 21G<250 350> 300 100<100 150 450 500> 680 20G<250 350>
VStem: 100 100<300 400> 250 100<0 400 600 700> 400 100<300 400>
CounterMasks: 1 1c
LayerCount: 2
Back
Fore
SplineSet
200 300 m 29
 100 300 l 25
 100 400 l 25
 150 400 l 25
 150 500 l 25
 200 500 l 25
 200 600 l 25
 250 600 l 25
 250 700 l 25
 350 700 l 25
 350 600 l 25
 400 600 l 25
 400 500 l 25
 450 500 l 25
 450 400 l 25
 500 400 l 25
 500 300 l 25
 400 300 l 25
 400 400 l 25
 350 400 l 25
 350 0 l 25
 250 0 l 25
 250 400 l 25
 200 400 l 25
 200 300 l 29
EndSplineSet
Validated: 1
EndChar

StartChar: arrowdown
Encoding: 8595 8595 214
Width: 600
Flags: W
HStem: 0 21G<250 350> 300 100<100 150 450 500> 680 20G<250 350>
VStem: 100 100<300 400> 250 100<0 100 300 700> 400 100<300 400>
CounterMasks: 1 1c
LayerCount: 2
Back
Fore
SplineSet
250 300 m 29
 250 700 l 1
 350 700 l 25
 350 300 l 25
 400 300 l 25
 400 400 l 25
 500 400 l 25
 500 300 l 25
 450 300 l 25
 450 200 l 25
 400 200 l 25
 400 100 l 25
 350 100 l 25
 350 0 l 25
 250 0 l 25
 250 100 l 25
 200 100 l 25
 200 200 l 25
 150 200 l 25
 150 300 l 25
 100 300 l 25
 100 400 l 25
 200 400 l 25
 200 300 l 1
 250 300 l 29
EndSplineSet
Validated: 1
EndChar

StartChar: arrowboth
Encoding: 8596 8596 215
Width: 1200
Flags: W
HStem: 100 100<400 500 700 800> 200 300<300 400 800 900> 300 100<200 300 400 800 900 1000> 500 100<400 500 700 800>
VStem: 300 100<200 300 400 500> 400 100<100 200 500 600> 700 100<100 200 500 600> 800 100<200 300 400 500>
LayerCount: 2
Back
Fore
SplineSet
200 300 m 29x28
 200 400 l 25
 300 400 l 25x28
 300 500 l 25
 400 500 l 25x48
 400 600 l 25
 500 600 l 25
 500 500 l 25x14
 400 500 l 25x48
 400 400 l 25
 800 400 l 25x29
 800 500 l 25x42
 700 500 l 25
 700 600 l 25
 800 600 l 25x12
 800 500 l 25x42
 900 500 l 25x41
 900 400 l 25
 1000 400 l 25
 1000 300 l 25
 900 300 l 25x21
 900 200 l 25x41
 800 200 l 25
 800 100 l 25
 700 100 l 25
 700 200 l 25
 800 200 l 25x82
 800 300 l 25
 400 300 l 25
 400 200 l 25xa9
 500 200 l 25
 500 100 l 25
 400 100 l 25xa4
 400 200 l 25xa8
 300 200 l 25x48
 300 300 l 25
 200 300 l 29x28
EndSplineSet
Validated: 5
EndChar

StartChar: arrowupdn
Encoding: 8597 8597 216
Width: 600
Flags: W
HStem: 0 21G<200 400> 200 100<100 150 450 500> 400 100<100 150 450 500> 680 20G<200 400>
VStem: 100 100<200 300 400 500> 150 300<100 200 500 600> 200 200<0 100 600 700> 400 100<200 300 400 500>
LayerCount: 2
Back
Fore
SplineSet
100 200 m 29xf8
 100 300 l 25
 200 300 l 25
 200 200 l 25
 250 200 l 25
 250 500 l 25
 200 500 l 25
 200 400 l 25
 100 400 l 25
 100 500 l 25xf8
 150 500 l 25
 150 600 l 25xf4
 200 600 l 25
 200 700 l 25
 400 700 l 25
 400 600 l 25xf2
 450 600 l 25
 450 500 l 25xf4
 500 500 l 25
 500 400 l 25
 400 400 l 25
 400 500 l 25
 350 500 l 25
 350 200 l 25
 400 200 l 25
 400 300 l 25
 500 300 l 25
 500 200 l 25xf1
 450 200 l 25
 450 100 l 25xf4
 400 100 l 25
 400 0 l 25
 200 0 l 25
 200 100 l 25xf2
 150 100 l 25
 150 200 l 25xf4
 100 200 l 29xf8
EndSplineSet
Validated: 1
EndChar

StartChar: uni2600
Encoding: 9728 9728 217
Width: 1200
Flags: W
HStem: -100 100<550 650> 0 100<300 400 800 900> 200 300<450 550 650 750> 300 100<100 250 350 450 750 850 950 1100> 600 100<250 350 850 950> 700 100<550 650>
VStem: 100 150<300 400> 250 100<600 700> 300 100<0 100> 450 300<200 300 400 500> 550 100<-100 0 100 200 500 600 700 800> 800 100<0 100> 850 100<600 700> 950 150<300 400>
LayerCount: 2
Back
Fore
SplineSet
850 600 m 25x0808
 850 700 l 25
 950 700 l 25
 950 600 l 25
 850 600 l 25x0808
550 700 m 25x0420
 550 800 l 25
 650 800 l 25
 650 700 l 25
 550 700 l 25x0420
250 600 m 25x09
 250 700 l 25
 350 700 l 25
 350 600 l 25
 250 600 l 25x09
950 300 m 1x1004
 950 400 l 25
 1100 400 l 1
 1100 300 l 25
 950 300 l 1x1004
100 300 m 1x12
 100 400 l 25
 250 400 l 1
 250 300 l 25
 100 300 l 1x12
800 0 m 25x4010
 800 100 l 25
 900 100 l 25
 900 0 l 25
 800 0 l 25x4010
550 -100 m 25x8020
 550 0 l 25
 650 0 l 25
 650 -100 l 25
 550 -100 l 25x8020
300 0 m 25x4080
 300 100 l 25
 400 100 l 25
 400 0 l 25
 300 0 l 25x4080
350 300 m 25x1140
 350 400 l 1
 450 400 l 25x1140
 450 500 l 1x2140
 550 500 l 1
 550 600 l 1
 650 600 l 1
 650 500 l 25x2820
 750 500 l 25x2840
 750 400 l 25
 850 400 l 25
 850 300 l 25
 750 300 l 25x1048
 750 200 l 25x2048
 650 200 l 25
 650 100 l 25
 550 100 l 25
 550 200 l 25x6020
 450 200 l 25x6040
 450 300 l 1
 350 300 l 25x1140
EndSplineSet
Validated: 1
EndChar

StartChar: uni2601
Encoding: 9729 9729 218
Width: 600
Flags: W
HStem: 100 300<100 200 350 500> 200 100<0 100 550 600> 480 20G<200 350>
VStem: 200 150<400 500>
LayerCount: 2
Back
Fore
SplineSet
0 200 m 29x70
 0 300 l 25
 100 300 l 25x70
 100 400 l 25
 200 400 l 25
 200 500 l 25
 350 500 l 25
 350 400 l 25
 500 400 l 25xb0
 500 300 l 25
 600 300 l 25
 600 200 l 25
 550 200 l 25x70
 550 100 l 25
 100 100 l 25xb0
 100 200 l 25
 0 200 l 29x70
EndSplineSet
Validated: 1
EndChar

StartChar: uni2602
Encoding: 9730 9730 219
Width: 600
Flags: W
HStem: -100 100<150 250> 400 200<100 200 400 500> 400 100<0 100 500 600> 680 20G<200 400>
VStem: 150 150<-100 0> 250 100<0 400>
LayerCount: 2
Back
Fore
SplineSet
0 400 m 29xb4
 0 500 l 25
 100 500 l 25xb4
 100 600 l 25
 200 600 l 25
 200 700 l 25
 400 700 l 25
 400 600 l 25
 500 600 l 25xd4
 500 500 l 25
 600 500 l 25
 600 400 l 25
 350 400 l 25
 350 0 l 25xb4
 300 0 l 25
 300 -100 l 25
 150 -100 l 25
 150 0 l 25xb8
 250 0 l 25
 250 400 l 25
 0 400 l 29xb4
EndSplineSet
Validated: 1
EndChar

StartChar: uni2603
Encoding: 9731 9731 220
Width: 600
Flags: W
HStem: -100 100<50 150 500 600> -100 50<250 300 350 400> 0 100<200 450> 50 50<0 50 550 600> 100 100<100 150 500 550> 150 50<0 50> 200 100<250 300 350 400> 250 50<50 100 550 600> 350 50<0 50 550 600> 400 100<100 150 250 300 350 400 500 550> 500 100<50 100 150 200 450 500 550 600> 600 200<250 400> 650 50<50 100 500 550> 750 50<0 50 150 200 450 500 550 600>
VStem: 0 50<50 100 150 200 350 400 750 800> 50 50<250 300 500 600 650 700> 100 50<400 500> 150 100<300 400 500 600> 150 50<750 800> 200 100<400 500> 250 50<-100 -50> 350 100<400 500> 350 50<-100 -50> 400 100<300 400 500 600> 450 50<750 800> 500 50<400 500 650 700> 550 50<50 100 250 300 350 400 500 600 750 800>
LayerCount: 2
Back
Fore
SplineSet
250 500 m 29x225041
 300 500 l 29
 300 400 l 29x225010
 250 400 l 29
 250 300 l 29x225040
 300 300 l 29
 300 200 l 29x225008
 200 200 l 29
 200 100 l 29
 450 100 l 29
 450 200 l 29
 350 200 l 29
 350 300 l 29x22501280
 400 300 l 29
 400 400 l 29x225001
 350 400 l 29
 350 500 l 29x225004
 400 500 l 29
 400 600 l 29
 250 600 l 29
 250 500 l 29x225041
50 -100 m 29x800110a0
 50 0 l 29
 150 0 l 29
 150 100 l 29x880120
 100 100 l 29
 100 200 l 29x880080
 150 200 l 29x880020
 150 400 l 29
 200 400 l 29x884090
 200 500 l 29x002090
 150 500 l 29x004090
 150 600 l 29x002040
 200 600 l 29
 200 700 l 29x002810
 250 700 l 29x002808
 250 800 l 29
 400 800 l 29x001009
 400 700 l 29x000809
 450 700 l 29
 450 600 l 29x00280080
 500 600 l 29x002801
 500 500 l 29x004001
 450 500 l 29x002004
 450 400 l 29x004004
 500 400 l 29x004001
 500 200 l 29x08400040
 550 200 l 29x08400020
 550 100 l 29x10000020
 500 100 l 29
 500 0 l 29x88000040
 600 0 l 29
 600 -100 l 29x88000020
 450 -100 l 29
 450 0 l 29
 200 0 l 29
 200 -100 l 29x600010a0
 50 -100 l 29x800110a0
100 500 m 29x0041
 150 500 l 29
 150 400 l 29
 100 400 l 29x004080
 100 500 l 29x0041
50 600 m 29x0021
 100 600 l 29x0021
 100 500 l 29x0041
 50 500 l 29
 50 600 l 29x0021
0 50 m 29x1002
 0 100 l 5
 50 100 l 29
 50 50 l 5
 0 50 l 29x1002
0 150 m 29x0402
 0 200 l 5
 50 200 l 29
 50 150 l 5
 0 150 l 29x0402
50 250 m 29x0101
 50 300 l 5
 100 300 l 29
 100 250 l 5
 50 250 l 29x0101
0 350 m 29x0082
 0 400 l 5
 50 400 l 29
 50 350 l 5
 0 350 l 29x0082
250 -100 m 29x400008
 250 -50 l 29
 300 -50 l 29
 300 -100 l 29
 250 -100 l 29x400008
350 -100 m 29x400002
 350 -50 l 29
 400 -50 l 29
 400 -100 l 29
 350 -100 l 29x400002
550 50 m 29x10000020
 550 100 l 29
 600 100 l 29
 600 50 l 29
 550 50 l 29x10000020
550 250 m 29x01000020
 550 300 l 29
 600 300 l 29
 600 250 l 29
 550 250 l 29x01000020
550 350 m 29x00800020
 550 400 l 29x00800040
 600 400 l 29
 600 350 l 29
 550 350 l 29x00800020
500 400 m 29x004001
 500 500 l 29x004001
 550 500 l 29x00400040
 550 400 l 29x00800040
 500 400 l 29x004001
550 500 m 29x00400040
 550 600 l 29
 600 600 l 29
 600 500 l 29x00200020
 550 500 l 29x00400040
500 650 m 29x00080040
 500 700 l 29
 550 700 l 29
 550 650 l 29
 500 650 l 29x00080040
550 750 m 29x00040020
 550 800 l 29
 600 800 l 29
 600 750 l 29
 550 750 l 29x00040020
450 750 m 29x00040080
 450 800 l 29
 500 800 l 29
 500 750 l 29
 450 750 l 29x00040080
150 750 m 29x000420
 150 800 l 5
 200 800 l 29
 200 750 l 5
 150 750 l 29x000420
0 750 m 29x0006
 0 800 l 5
 50 800 l 29
 50 750 l 5
 0 750 l 29x0006
50 650 m 29x0009
 50 700 l 5
 100 700 l 29
 100 650 l 5
 50 650 l 29x0009
EndSplineSet
Validated: 5
EndChar

StartChar: uni26C4
Encoding: 9924 9924 221
Width: 600
Flags: W
HStem: -100 100<50 150 500 600> 100 100<100 150 500 550> 200 100<250 300 350 400> 400 100<100 150 250 300 350 400 500 550> 500 100<50 100 150 200 450 500 550 600> 600 200<250 400>
VStem: 50 50<500 600> 100 100<100 200> 100 50<400 500> 150 100<300 400 500 600> 200 100<400 500> 250 150<700 800> 350 100<400 500> 400 100<300 400 500 600> 450 100<100 200> 500 50<400 500> 550 50<500 600>
LayerCount: 2
Back
Fore
SplineSet
250 500 m 29xb444
 300 500 l 29
 300 400 l 29xb420
 250 400 l 29
 250 300 l 29xb440
 300 300 l 29
 300 200 l 29xb420
 200 200 l 29xb5
 200 100 l 29
 450 100 l 29xc102
 450 200 l 29xa102
 350 200 l 29
 350 300 l 29xa008
 400 300 l 29
 400 400 l 29xb004
 350 400 l 29
 350 500 l 29xb008
 400 500 l 29
 400 600 l 29
 250 600 l 29
 250 500 l 29xb444
50 -100 m 29xd222
 50 0 l 29
 150 0 l 29
 150 100 l 29xd240
 100 100 l 29
 100 200 l 29xd1
 150 200 l 29xd040
 150 400 l 29
 200 400 l 29xd0a0
 200 500 l 29x88a0
 150 500 l 29x90a0
 150 600 l 29x8840
 200 600 l 29
 200 700 l 29x8820
 250 700 l 29
 250 800 l 29
 400 800 l 29x8410
 400 700 l 29
 450 700 l 29
 450 600 l 29x8812
 500 600 l 29x8804
 500 500 l 29x9004
 450 500 l 29x8808
 450 400 l 29x9008
 500 400 l 29x9004
 500 200 l 29xd001
 550 200 l 5
 550 100 l 29xd002
 500 100 l 5
 500 0 l 29xd001
 600 0 l 29
 600 -100 l 29xd00080
 450 -100 l 29
 450 0 l 29
 200 0 l 29
 200 -100 l 29
 50 -100 l 29xd222
100 500 m 29
 150 500 l 29
 150 400 l 29
 100 400 l 29x9080
 100 500 l 29
50 600 m 29x8a
 100 600 l 29x8a
 100 500 l 29x92
 50 500 l 29
 50 600 l 29x8a
500 400 m 29x9004
 500 500 l 29x9004
 550 500 l 29
 550 400 l 29x9001
 500 400 l 29x9004
550 500 m 29x9001
 550 600 l 29
 600 600 l 29
 600 500 l 29x880080
 550 500 l 29x9001
EndSplineSet
Validated: 5
EndChar

StartChar: uni2614
Encoding: 9748 9748 222
Width: 600
Flags: W
HStem: -100 100<150 250> 0 100<50 100 500 550> 150 100<0 50 550 600> 250 100<100 150 450 500> 400 200<100 200 400 500> 400 100<0 100 500 600> 600 100<0 50 550 600> 700 100<100 150 450 500>
VStem: 0 50<150 250 600 700> 50 50<0 100> 100 50<250 350 700 800> 150 150<-100 0> 250 100<0 400> 450 50<250 350 700 800> 500 50<0 100> 550 50<150 250 600 700>
LayerCount: 2
Back
Fore
SplineSet
150 -100 m 29x8010
 150 0 l 25x8010
 250 0 l 25
 250 400 l 25
 0 400 l 25
 0 500 l 25
 100 500 l 25x84a8
 100 600 l 25
 200 600 l 25
 200 700 l 25
 400 700 l 25
 400 600 l 25
 500 600 l 25x09aa
 500 500 l 25x04aa
 600 500 l 25
 600 400 l 25
 350 400 l 25
 350 0 l 25x4409
 300 0 l 25x4410
 300 -100 l 25
 150 -100 l 29x8010
50 0 m 1x4040
 50 100 l 1
 100 100 l 1
 100 0 l 1
 50 0 l 1x4040
500 0 m 1x4002
 500 100 l 1
 550 100 l 1
 550 0 l 1
 500 0 l 1x4002
0 150 m 1x2080
 0 250 l 1
 50 250 l 1
 50 150 l 1
 0 150 l 1x2080
100 250 m 1x1020
 100 350 l 1
 150 350 l 1
 150 250 l 1
 100 250 l 1x1020
550 150 m 1x2001
 550 250 l 1
 600 250 l 1
 600 150 l 1
 550 150 l 1x2001
450 250 m 1x1004
 450 350 l 1
 500 350 l 1
 500 250 l 1
 450 250 l 1x1004
550 600 m 1x0201
 550 700 l 1
 600 700 l 1
 600 600 l 1
 550 600 l 1x0201
0 600 m 1x0280
 0 700 l 1
 50 700 l 1
 50 600 l 1
 0 600 l 1x0280
450 700 m 1x0104
 450 800 l 1
 500 800 l 1
 500 700 l 1
 450 700 l 1x0104
100 700 m 1x0120
 100 800 l 1
 150 800 l 1
 150 700 l 1
 100 700 l 1x0120
EndSplineSet
Validated: 1
EndChar

StartChar: uni2669
Encoding: 9833 9833 223
Width: 600
Flags: W
HStem: 0 300<150 350> 100 100<100 150>
VStem: 350 100<300 800>
LayerCount: 2
Back
Fore
SplineSet
150 100 m 29x60
 100 100 l 25
 100 200 l 25
 150 200 l 25x60
 150 300 l 25
 350 300 l 25xa0
 350 800 l 25
 450 800 l 25
 450 100 l 25
 400 100 l 25x60
 400 0 l 25
 150 0 l 25xa0
 150 100 l 29x60
EndSplineSet
Validated: 1
EndChar

StartChar: uni2757
Encoding: 10071 10071 225
Width: 600
Flags: W
HStem: 0 100<250 350> 680 20G<250 350>
VStem: 250 100<0 100 200 700>
LayerCount: 2
Back
Fore
SplineSet
250 700 m 29
 350 700 l 25
 350 200 l 25
 250 200 l 25
 250 700 l 29
350 0 m 25
 250 0 l 1
 250 100 l 25
 350 100 l 1
 350 0 l 25
EndSplineSet
Validated: 1
EndChar

StartChar: uni2753
Encoding: 10067 10067 226
Width: 600
Flags: W
HStem: 0 100<300 400> 200 100<300 400> 300 100<400 450> 600 100<200 450>
VStem: 100 100<400 600> 300 100<0 100 200 300> 400 100<300 400> 450 100<400 600>
LayerCount: 2
Back
Fore
SplineSet
300 300 m 1xdc
 400 300 l 1
 400 200 l 1
 300 200 l 1
 300 300 l 1xdc
400 0 m 25
 300 0 l 1
 300 100 l 25
 400 100 l 1
 400 0 l 25
100 600 m 25
 150 600 l 25
 150 700 l 25
 500 700 l 25
 500 600 l 25xba
 550 600 l 25
 550 400 l 25xb9
 499 400 l 25
 500 300 l 25xba
 400 300 l 25xdc
 400 400 l 25xba
 450 400 l 25
 450 600 l 25
 200 600 l 25
 200 400 l 25
 100 400 l 25xb9
 100 600 l 25
EndSplineSet
Validated: 5
EndChar

StartChar: uni2795
Encoding: 10133 10133 227
Width: 600
Flags: W
HStem: 250 100<100 250 350 500>
VStem: 250 100<50 250 350 550>
LayerCount: 2
Back
Fore
SplineSet
250 550 m 29
 350 550 l 25
 350 350 l 25
 500 350 l 25
 500 250 l 25
 350 250 l 25
 350 50 l 25
 250 50 l 25
 250 250 l 25
 100 250 l 25
 100 350 l 25
 250 350 l 25
 250 550 l 29
EndSplineSet
Validated: 1
EndChar

StartChar: uni2796
Encoding: 10134 10134 228
Width: 600
Flags: W
HStem: 250 100<100 500>
LayerCount: 2
Back
Fore
SplineSet
100 250 m 29
 100 350 l 25
 500 350 l 25
 500 250 l 25
 100 250 l 29
EndSplineSet
Validated: 1
EndChar

StartChar: uni231A
Encoding: 8986 8986 229
Width: 1200
Flags: W
HStem: -100 200<450 750> 0 100<400 450 750 800> 300 100<650 750> 480 20G<550 650> 600 200<450 750> 600 100<400 450 750 800>
VStem: 250 100<200 500> 300 100<100 200 500 600> 450 300<-100 0 700 800> 550 100<400 500> 800 100<100 200 500 600> 850 100<200 500>
LayerCount: 2
Back
Fore
SplineSet
550 500 m 29x3040
 650 500 l 25
 650 400 l 25x3040
 750 400 l 25
 750 300 l 25x3080
 550 300 l 25
 550 500 l 29x3040
400 600 m 25x7520
 400 500 l 25x7520
 350 500 l 25
 350 200 l 25x76
 400 200 l 25
 400 100 l 25
 800 100 l 25
 800 200 l 25x7520
 850 200 l 25
 850 500 l 25x7410
 800 500 l 25
 800 600 l 25
 400 600 l 25x7520
450 700 m 25x7680
 450 800 l 25
 750 800 l 25x3a80
 750 700 l 25
 850 700 l 25
 850 600 l 25x3690
 900 600 l 25
 900 500 l 25x3420
 950 500 l 25
 950 200 l 25x3410
 900 200 l 25
 900 100 l 25x7420
 850 100 l 25
 850 0 l 25
 750 0 l 25x7490
 750 -100 l 25
 450 -100 l 25xb090
 450 0 l 25
 350 0 l 25
 350 100 l 25x7290
 300 100 l 25
 300 200 l 25x71
 250 200 l 25
 250 500 l 25x72
 300 500 l 25
 300 600 l 25x75
 350 600 l 25
 350 700 l 25
 450 700 l 25x7680
EndSplineSet
Validated: 1
EndChar

StartChar: uni2797
Encoding: 10135 10135 230
Width: 600
Flags: W
HStem: 100 100<250 350> 300 100<100 500> 500 100<250 350>
VStem: 250 100<100 200 500 600>
CounterMasks: 1 e0
LayerCount: 2
Back
Fore
SplineSet
250 100 m 29
 250 200 l 25
 350 200 l 25
 350 100 l 25
 250 100 l 29
100 300 m 25
 100 400 l 25
 500 400 l 25
 500 300 l 25
 100 300 l 25
250 500 m 25
 250 600 l 25
 350 600 l 25
 350 500 l 25
 250 500 l 25
EndSplineSet
Validated: 1
EndChar

StartChar: uni25B6
Encoding: 9654 9654 231
Width: 600
Flags: HMW
LayerCount: 2
Back
Fore
SplineSet
100 0 m 29
 100 700 l 25
 250 700 l 25
 250 600 l 25
 350 600 l 25
 350 500 l 25
 450 500 l 25
 450 400 l 25
 550 400 l 25
 550 300 l 25
 450 300 l 25
 450 200 l 25
 350 200 l 25
 350 100 l 25
 250 100 l 25
 250 0 l 25
 100 0 l 29
EndSplineSet
Validated: 1
EndChar

StartChar: uni25C0
Encoding: 9664 9664 232
Width: 600
Flags: HMW
LayerCount: 2
Back
Fore
SplineSet
400 0 m 29
 400 100 l 25
 300 100 l 25
 300 200 l 25
 200 200 l 25
 200 300 l 25
 100 300 l 25
 100 400 l 25
 200 400 l 25
 200 500 l 25
 300 500 l 25
 300 600 l 25
 400 600 l 25
 400 700 l 25
 550 700 l 25
 550 0 l 25
 400 0 l 29
EndSplineSet
Validated: 1
EndChar

StartChar: H18543
Encoding: 9642 9642 233
Width: 600
Flags: HMW
LayerCount: 2
Back
Fore
SplineSet
150 100 m 29
 150 400 l 25
 400 400 l 25
 400 100 l 25
 150 100 l 29
EndSplineSet
Validated: 1
EndChar

StartChar: triagup
Encoding: 9650 9650 234
Width: 600
Flags: HMW
LayerCount: 2
Back
Fore
SplineSet
50 100 m 29
 50 200 l 29
 100 200 l 29
 100 300 l 29
 150 300 l 29
 150 400 l 29
 200 400 l 29
 200 500 l 29
 250 500 l 29
 250 600 l 29
 350 600 l 29
 350 500 l 29
 400 500 l 29
 400 400 l 29
 450 400 l 29
 450 300 l 29
 500 300 l 29
 500 200 l 29
 550 200 l 29
 550 100 l 29
 50 100 l 29
EndSplineSet
Validated: 1
EndChar

StartChar: triagdn
Encoding: 9660 9660 235
Width: 600
Flags: HMW
LayerCount: 2
Back
Fore
SplineSet
50 500 m 29
 50 600 l 25
 550 600 l 25
 550 500 l 25
 500 500 l 25
 500 400 l 25
 450 400 l 25
 450 300 l 25
 400 300 l 25
 400 200 l 25
 350 200 l 25
 350 100 l 25
 250 100 l 25
 250 200 l 25
 200 200 l 25
 200 300 l 25
 150 300 l 25
 150 400 l 25
 100 400 l 25
 100 500 l 25
 50 500 l 29
EndSplineSet
Validated: 1
EndChar

StartChar: H18551
Encoding: 9643 9643 236
Width: 600
Flags: W
HStem: 100 100<200 350> 300 100<200 350>
VStem: 150 50<200 300> 350 50<200 300>
LayerCount: 2
Back
Fore
SplineSet
200 200 m 29
 350 200 l 25
 350 300 l 25
 200 300 l 25
 200 200 l 29
150 100 m 25
 150 400 l 25
 400 400 l 25
 400 100 l 25
 150 100 l 25
EndSplineSet
Validated: 1
EndChar

StartChar: uni231B
Encoding: 8987 8987 237
Width: 1200
Flags: W
HStem: -100 300<350 400 550 700 850 900> -100 200<450 550 700 800> -100 100<300 350 900 950> 200 100<450 500 750 800> 400 100<450 500 750 800> 600 200<450 800> 700 100<300 350 900 950>
VStem: 350 100<100 200 500 600> 400 150<200 300> 700 150<200 300> 800 100<100 200 500 600>
LayerCount: 2
Back
Fore
SplineSet
700 100 m 29x4840
 800 100 l 25
 800 200 l 25x5820
 700 200 l 25x8840
 700 100 l 29x4840
550 300 m 25x18c0
 550 200 l 25
 700 200 l 25x88c0
 700 300 l 25
 550 300 l 25x18c0
450 100 m 25x59
 550 100 l 25x5880
 550 200 l 25x8880
 450 200 l 25
 450 100 l 25x59
600 400 m 25
 650 400 l 25
 650 500 l 25
 800 500 l 25
 800 600 l 25
 450 600 l 25
 450 500 l 25x0d20
 600 500 l 25
 600 400 l 25
300 -100 m 25x2820
 300 0 l 25
 350 0 l 25x2920
 350 200 l 25x8920
 400 200 l 25x8880
 400 300 l 25
 500 300 l 25
 500 400 l 25
 400 400 l 25
 400 500 l 25x1880
 350 500 l 25
 350 700 l 25
 300 700 l 25
 300 800 l 25
 950 800 l 25
 950 700 l 25
 900 700 l 25
 900 500 l 25x1b20
 850 500 l 25
 850 400 l 25
 750 400 l 25
 750 300 l 25
 850 300 l 25x1a40
 850 200 l 25x8840
 900 200 l 25x8820
 900 0 l 25
 950 0 l 25
 950 -100 l 25
 300 -100 l 25x2820
EndSplineSet
Validated: 5
EndChar

StartChar: uni23F3
Encoding: 9203 9203 238
Width: 1200
Flags: W
HStem: -100 200<450 800> -100 100<300 350 900 950> 200 100<450 500 750 800> 400 100<450 500 750 800> 500 300<350 400 550 700 850 900> 600 200<450 550 700 800> 700 100<300 350 900 950>
VStem: 350 100<100 200 500 600> 400 150<400 500> 700 150<400 500> 800 100<100 200 500 600>
LayerCount: 2
Back
Fore
SplineSet
450 100 m 29xa120
 800 100 l 25
 800 200 l 25
 650 200 l 25
 650 300 l 25
 600 300 l 25
 600 200 l 25
 450 200 l 25
 450 100 l 29xa120
700 500 m 25x2840
 800 500 l 25
 800 600 l 25x3420
 700 600 l 25x3440
 700 500 l 25x2840
550 400 m 25x30c0
 700 400 l 25x30c0
 700 500 l 25
 550 500 l 25x28c0
 550 400 l 25x30c0
450 500 m 25x35
 550 500 l 25x2880
 550 600 l 25x2480
 450 600 l 25
 450 500 l 25x35
300 -100 m 25x7020
 300 0 l 25
 350 0 l 25
 350 200 l 25x7120
 400 200 l 25
 400 300 l 25
 500 300 l 25
 500 400 l 25
 400 400 l 25x7080
 400 500 l 25x2880
 350 500 l 25x29
 350 700 l 25
 300 700 l 25
 300 800 l 25
 950 800 l 25
 950 700 l 25
 900 700 l 25x2320
 900 500 l 25x2920
 850 500 l 25x2840
 850 400 l 25
 750 400 l 25
 750 300 l 25
 850 300 l 25
 850 200 l 25x3040
 900 200 l 25
 900 0 l 25
 950 0 l 25
 950 -100 l 25
 300 -100 l 25x7020
EndSplineSet
Validated: 5
EndChar

StartChar: uni26D4
Encoding: 9940 9940 239
Width: 1200
Flags: W
HStem: -100 400<400 800> 400 400<400 800>
VStem: 200 150<300 400> 850 150<300 400>
LayerCount: 2
Back
Fore
SplineSet
350 300 m 29
 850 300 l 25
 850 400 l 25
 350 400 l 25
 350 300 l 29
400 -100 m 25
 400 0 l 25
 300 0 l 25
 300 100 l 25
 250 100 l 25
 250 200 l 25
 200 200 l 25
 200 500 l 25
 250 500 l 25
 250 600 l 25
 300 600 l 25
 300 700 l 25
 400 700 l 25
 400 800 l 25
 800 800 l 25
 800 700 l 25
 900 700 l 25
 900 600 l 25
 950 600 l 25
 950 500 l 25
 1000 500 l 25
 1000 200 l 25
 950 200 l 25
 950 100 l 25
 900 100 l 25
 900 0 l 25
 800 0 l 25
 800 -100 l 25
 400 -100 l 25
EndSplineSet
Validated: 1
EndChar

StartChar: uni26C5
Encoding: 9925 9925 240
Width: 600
Flags: W
HStem: 0 300<100 150 350 500> 100 100<0 50 550 600> 500 100<100 200>
VStem: 0 100<300 500> 200 100<400 500>
LayerCount: 2
Back
Fore
SplineSet
150 300 m 29xb8
 150 400 l 25
 200 400 l 25
 200 500 l 25
 100 500 l 25
 100 300 l 25
 150 300 l 29xb8
0 300 m 25
 0 500 l 25
 50 500 l 25
 50 600 l 25
 250 600 l 25
 250 500 l 25
 300 500 l 25
 300 400 l 25
 350 400 l 25
 350 300 l 25
 500 300 l 25xb8
 500 200 l 25
 600 200 l 25
 600 100 l 25
 550 100 l 25x78
 550 0 l 25
 100 0 l 25xb8
 100 100 l 25
 0 100 l 25
 0 200 l 25
 50 200 l 25x78
 50 300 l 25
 0 300 l 25
EndSplineSet
Validated: 1
EndChar

StartChar: musicalnote
Encoding: 9834 9834 241
Width: 600
Flags: W
HStem: 0 300<50 250> 100 100<0 50> 700 100<350 400>
VStem: 250 100<300 700> 400 100<600 700> 450 100<400 600>
LayerCount: 2
Back
Fore
SplineSet
50 0 m 29xb8
 50 100 l 25
 0 100 l 25
 0 200 l 25
 50 200 l 25x78
 50 300 l 25
 250 300 l 25
 250 800 l 25
 450 800 l 25
 450 700 l 25xb4
 500 700 l 25
 500 600 l 25xb8
 550 600 l 25
 550 400 l 25
 450 400 l 25
 450 600 l 25xb4
 400 600 l 25
 400 700 l 25
 350 700 l 25
 350 100 l 25
 300 100 l 25x78
 300 0 l 25
 50 0 l 29xb8
EndSplineSet
Validated: 1
EndChar

StartChar: musicalnotedbl
Encoding: 9835 9835 242
Width: 1200
Flags: W
HStem: 0 300<250 400 700 850> 100 100<200 250 650 700> 700 100<500 850>
VStem: 400 100<300 700> 850 100<300 700>
LayerCount: 2
Back
Fore
SplineSet
200 100 m 29x78
 200 200 l 5
 250 200 l 29x78
 250 300 l 29
 400 300 l 29xb8
 400 800 l 29
 950 800 l 29
 950 100 l 29
 900 100 l 29x78
 900 0 l 29
 700 0 l 29xb8
 700 100 l 29
 650 100 l 29
 650 200 l 29
 700 200 l 29x78
 700 300 l 29
 850 300 l 29xb8
 850 700 l 29
 500 700 l 29
 500 100 l 29
 450 100 l 29x78
 450 0 l 29
 250 0 l 29xb8
 250 100 l 5
 200 100 l 29x78
EndSplineSet
Validated: 1
EndChar

StartChar: uni266C
Encoding: 9836 9836 243
Width: 1200
Flags: W
HStem: 0 300<250 400 700 850> 100 100<200 250 650 700> 500 100<500 850> 700 100<500 850>
VStem: 400 100<300 500 600 700> 850 100<300 500 600 700>
LayerCount: 2
Back
Fore
SplineSet
500 600 m 1x3c
 850 600 l 29
 850 700 l 1
 500 700 l 25
 500 600 l 1x3c
200 100 m 25x7c
 200 200 l 1
 250 200 l 25x7c
 250 300 l 25
 400 300 l 25xbc
 400 800 l 25
 950 800 l 25
 950 100 l 25
 900 100 l 25x7c
 900 0 l 25
 700 0 l 25xbc
 700 100 l 25
 650 100 l 25
 650 200 l 25
 700 200 l 25x7c
 700 300 l 25
 850 300 l 1xbc
 850 500 l 1
 500 500 l 1
 500 100 l 1
 450 100 l 25x7c
 450 0 l 25
 250 0 l 25xbc
 250 100 l 1
 200 100 l 25x7c
EndSplineSet
Validated: 1
EndChar

StartChar: Idieresis
Encoding: 207 207 244
Width: 600
Flags: W
HStem: 0 100<100 250 350 500> 600 100<100 250 350 500>
VStem: 250 100<100 600>
LayerCount: 2
Back
Fore
SplineSet
100 700 m 29
 500 700 l 25
 500 600 l 25
 350 600 l 25
 350 100 l 25
 500 100 l 25
 500 0 l 25
 100 0 l 25
 100 100 l 25
 250 100 l 25
 250 600 l 25
 100 600 l 25
 100 700 l 29
EndSplineSet
Validated: 1
EndChar

StartChar: idieresis
Encoding: 239 239 245
Width: 600
Flags: W
HStem: 0 100<150 250 349 450> 400 100<200 250> 600 100<200 350>
VStem: 200 150<400 500 600 700> 250 100<100 400>
LayerCount: 2
Back
Fore
SplineSet
200 500 m 1xf0
 350 500 l 25xf0
 349 100 l 25
 450 100 l 25
 450 0 l 25
 150 0 l 25
 150 100 l 25
 250 100 l 25
 250 400 l 1xe8
 200 400 l 29
 200 500 l 1xf0
200 700 m 25
 350 700 l 25
 350 600 l 25
 200 600 l 25
 200 700 l 25
EndSplineSet
Validated: 1
EndChar

StartChar: onequarter
Encoding: 188 188 246
Width: 600
Flags: W
HStem: -200 21G<450 550> -100 100<350 450> 200 100<400 450> 500 100<50 100> 680 20G<100 200>
VStem: 50 150<500 600> 100 100<200 500 600 700> 250 100<0 100> 300 100<100 200> 350 100<200 300> 450 100<-200 -100 0 100>
LayerCount: 2
Back
Fore
SplineSet
350 200 m 29xf840
 350 300 l 29
 450 300 l 29
 450 200 l 29xf840
 400 200 l 29
 400 100 l 29xf880
 350 100 l 29
 350 0 l 29
 450 0 l 29
 450 100 l 29
 550 100 l 29
 550 -200 l 29
 450 -200 l 29
 450 -100 l 29
 250 -100 l 29
 250 100 l 29xf920
 300 100 l 29
 300 200 l 29xf880
 350 200 l 29xf840
100 600 m 25xfa
 100 700 l 25
 200 700 l 25
 200 200 l 25
 100 200 l 25
 100 500 l 25xfa
 50 500 l 25
 50 600 l 25xfc
 100 600 l 25xfa
EndSplineSet
Validated: 1
EndChar

StartChar: onehalf
Encoding: 189 189 247
Width: 600
Flags: W
HStem: -200 100<250 300 400 550> 0 100<400 450> 100 100<250 300 500 550> 200 100<350 450> 500 100<50 100> 680 20G<100 200>
VStem: 50 150<500 600> 100 100<200 500 600 700> 250 100<100 200> 300 100<-100 0> 400 100<0 100> 450 100<100 200>
LayerCount: 2
Back
Fore
SplineSet
250 100 m 29xac90
 250 200 l 25xac90
 300 200 l 25xac40
 300 300 l 25x9c40
 500 300 l 25x9c20
 500 200 l 25xac20
 550 200 l 25
 550 100 l 25xac10
 500 100 l 25xac20
 500 0 l 25xcc20
 400 0 l 25
 400 -100 l 25xcc40
 550 -100 l 25
 550 -200 l 25
 250 -200 l 25
 250 -100 l 25xcc90
 300 -100 l 25
 300 0 l 25
 400 0 l 25xcc40
 400 100 l 25xcc20
 450 100 l 25
 450 200 l 25
 350 200 l 25xdc90
 350 100 l 25
 250 100 l 29xac90
100 600 m 25x9d
 100 700 l 25
 200 700 l 25
 200 200 l 25
 100 200 l 25
 100 500 l 25x9d
 50 500 l 25
 50 600 l 25x9e
 100 600 l 25x9d
EndSplineSet
Validated: 5
EndChar

StartChar: threequarters
Encoding: 190 190 248
Width: 600
Flags: W
HStem: -200 21G<500 600> -100 100<400 500> 200 100<50 200 450 500> 400 100<100 200> 600 100<50 200>
VStem: 100 150<400 500> 200 100<300 400 500 600> 300 100<0 100> 350 100<100 200> 400 100<200 300> 500 100<-200 -100 0 100>
LayerCount: 2
Back
Fore
SplineSet
400 200 m 25xf840
 400 300 l 25
 500 300 l 25
 500 200 l 25xf840
 450 200 l 25
 450 100 l 25xf880
 400 100 l 25
 400 0 l 25
 500 0 l 25
 500 100 l 25
 600 100 l 25
 600 -200 l 25
 500 -200 l 25
 500 -100 l 25
 300 -100 l 25
 300 100 l 25xf920
 350 100 l 25
 350 200 l 25xf880
 400 200 l 25xf840
50 600 m 1
 50 700 l 1
 300 700 l 1xf9
 300 500 l 25xfa
 250 500 l 25
 250 400 l 25xfc
 300 400 l 25
 300 300 l 25xfa
 250 300 l 25
 250 200 l 1xfc
 50 200 l 1
 50 300 l 1
 200 300 l 1
 200 400 l 25xfa
 100 400 l 25
 100 500 l 25xfc
 200 500 l 25
 200 600 l 1xfa
 50 600 l 1
EndSplineSet
Validated: 1
EndChar

StartChar: udieresis
Encoding: 252 252 249
Width: 600
Flags: W
HStem: 0 100<200 400> 100 100<400 450> 480 20G<100 200 450 550>
VStem: 100 100<100 500> 400 150<100 200> 450 100<0 100 200 500>
LayerCount: 2
Back
Fore
SplineSet
100 500 m 29x78
 200 500 l 25
 200 100 l 25
 400 100 l 25xb8
 400 200 l 25x78
 450 200 l 25x74
 450 500 l 25
 550 500 l 25
 550 0 l 25
 450 0 l 25xb4
 450 100 l 25x74
 400 100 l 25
 400 0 l 25
 150 0 l 25xb8
 150 100 l 25
 100 100 l 25
 100 500 l 29x78
EndSplineSet
Validated: 5
EndChar

StartChar: oslash
Encoding: 248 248 250
Width: 600
Flags: W
HStem: 0 100<200 450> 400 100<200 450>
VStem: 100 100<100 400> 450 100<100 400>
LayerCount: 2
Back
Fore
SplineSet
200 400 m 29
 200 100 l 25
 450 100 l 25
 450 400 l 25
 200 400 l 29
150 500 m 25
 500 500 l 25
 500 400 l 25
 550 400 l 25
 550 100 l 25
 500 100 l 25
 500 0 l 25
 150 0 l 25
 150 100 l 25
 100 100 l 25
 100 400 l 25
 150 400 l 25
 150 500 l 25
EndSplineSet
Validated: 1
EndChar

StartChar: copyright
Encoding: 169 169 251
Width: 600
Flags: W
HStem: 0 100<150 450> 200 100<250 400> 300 100<150 200> 400 100<250 400> 600 100<150 450>
VStem: 0 100<200 500> 50 100<100 200 500 600> 150 100<300 400> 200 200<200 300 400 500> 450 100<100 200 500 600> 500 100<200 500>
LayerCount: 2
Back
Fore
SplineSet
200 400 m 29xa880
 200 500 l 1
 400 500 l 25
 400 400 l 25x9880
 250 400 l 25
 250 300 l 25xd9
 400 300 l 25
 400 200 l 25
 200 200 l 25xd880
 200 300 l 25xa880
 150 300 l 25
 150 400 l 1xa9
 200 400 l 29xa880
150 500 m 25xda40
 100 500 l 25
 100 200 l 25xdc
 150 200 l 25
 150 100 l 25
 450 100 l 25
 450 200 l 25xda40
 500 200 l 25
 500 500 l 25xd820
 450 500 l 25
 450 600 l 25
 150 600 l 25
 150 500 l 25xda40
100 600 m 25
 100 700 l 25
 500 700 l 25
 500 600 l 25xdc20
 550 600 l 25
 550 500 l 25xd840
 600 500 l 25
 600 200 l 25xd820
 550 200 l 25
 550 100 l 25xd840
 500 100 l 25
 500 0 l 25
 100 0 l 25
 100 100 l 25xdc20
 50 100 l 25
 50 200 l 25xda
 0 200 l 25
 0 500 l 25xdc
 50 500 l 25
 50 600 l 25xda
 100 600 l 25
EndSplineSet
Validated: 1
EndChar

StartChar: registered
Encoding: 174 174 252
Width: 600
Flags: W
HStem: 0 100<150 450> 200 100<350 450> 400 100<350 400> 600 100<150 450>
VStem: 0 100<200 500> 50 100<100 200 500 600> 200 150<300 400> 200 100<200 300> 350 100<200 300> 450 100<100 200 500 600> 500 100<200 500>
LayerCount: 2
Back
Fore
SplineSet
200 200 m 29xf1
 200 500 l 25xf1
 400 500 l 25
 400 400 l 25
 350 400 l 25
 350 300 l 25xf2
 450 300 l 25
 450 200 l 25
 350 200 l 25xf080
 350 300 l 25xf2
 300 300 l 25
 300 200 l 25
 200 200 l 29xf1
150 500 m 25xf440
 100 500 l 25
 100 200 l 25xf8
 150 200 l 25
 150 100 l 25
 450 100 l 25xf440
 450 200 l 25
 500 200 l 25
 500 500 l 25xf0a0
 450 500 l 25
 450 600 l 25
 150 600 l 25
 150 500 l 25xf440
100 600 m 25
 100 700 l 25
 500 700 l 25
 500 600 l 25xf820
 550 600 l 25
 550 500 l 25xf040
 600 500 l 25
 600 200 l 25xf020
 550 200 l 25
 550 100 l 25xf040
 500 100 l 25
 500 0 l 25
 100 0 l 25
 100 100 l 25xf820
 50 100 l 25
 50 200 l 25xf4
 0 200 l 25
 0 500 l 25xf8
 50 500 l 25
 50 600 l 25xf4
 100 600 l 25
EndSplineSet
Validated: 5
EndChar

StartChar: uni00B2
Encoding: 178 178 253
Width: 600
Flags: W
HStem: 300 100<150 200 300 450> 500 100<300 350> 600 100<150 200 400 450> 700 100<250 350>
VStem: 150 100<600 700> 200 100<400 500> 300 100<500 600> 350 100<600 700>
LayerCount: 2
Back
Fore
SplineSet
200 700 m 29xa4
 200 800 l 25x94
 400 800 l 25x92
 400 700 l 25xa2
 450 700 l 25
 450 600 l 25xa1
 400 600 l 25xa2
 400 500 l 25xc2
 300 500 l 25
 300 400 l 25xc4
 450 400 l 25
 450 300 l 25
 150 300 l 25
 150 400 l 25xc9
 200 400 l 25
 200 500 l 25
 300 500 l 25xc4
 300 600 l 25xc2
 350 600 l 25
 350 700 l 25
 250 700 l 25xd9
 250 600 l 25
 150 600 l 25
 150 700 l 25xa9
 200 700 l 29xa4
EndSplineSet
Validated: 5
EndChar

StartChar: uni00B3
Encoding: 179 179 254
Width: 600
Flags: W
HStem: 300 100<150 350> 400 100<400 450> 500 100<250 350> 700 100<150 350>
VStem: 250 150<500 600> 350 100<400 500 600 700>
LayerCount: 2
Back
Fore
SplineSet
150 700 m 29xb4
 150 800 l 29
 450 800 l 29
 450 600 l 29xb4
 400 600 l 29xb8
 400 500 l 29x58
 450 500 l 29
 450 400 l 29x54
 400 400 l 29x58
 400 300 l 29x98
 150 300 l 29
 150 400 l 29
 350 400 l 29
 350 500 l 29xb4
 250 500 l 29
 250 600 l 29xb8
 350 600 l 29
 350 700 l 29
 150 700 l 29xb4
EndSplineSet
Validated: 1
EndChar

StartChar: uni00B9
Encoding: 185 185 255
Width: 600
Flags: W
HStem: 600 100<250 300>
VStem: 250 150<600 700> 300 100<400 600 700 800>
LayerCount: 2
Back
Fore
SplineSet
300 700 m 29xa0
 300 800 l 25
 400 800 l 25
 400 400 l 25
 300 400 l 25
 300 600 l 25xa0
 250 600 l 25
 250 700 l 25xc0
 300 700 l 29xa0
EndSplineSet
Validated: 1
EndChar

StartChar: Euro
Encoding: 8364 8364 256
Width: 600
Flags: W
HStem: 0 100<250 450> 100 100<500 550> 200 100<50 100 250 400> 400 100<50 100 250 400> 500 100<500 550> 600 100<250 450>
VStem: 150 100<100 200 500 600> 200 300<0 100 600 700> 450 100<100 200 500 600>
LayerCount: 2
Back
Fore
SplineSet
250 500 m 29x1680
 400 500 l 25
 400 400 l 25
 200 400 l 25
 200 300 l 25x35
 400 300 l 25
 400 200 l 25
 250 200 l 25
 250 100 l 25
 450 100 l 25
 450 200 l 25xb680
 550 200 l 25
 550 100 l 25x4280
 500 100 l 25x41
 500 0 l 25
 200 0 l 25x81
 200 100 l 25x41
 150 100 l 25x42
 150 200 l 25
 50 200 l 25
 50 300 l 25
 100 300 l 25
 100 400 l 25
 50 400 l 25
 50 500 l 25x32
 150 500 l 25x0a
 150 600 l 25x06
 200 600 l 25
 200 700 l 25
 500 700 l 25x05
 500 600 l 25x09
 550 600 l 25
 550 500 l 25
 450 500 l 25x0880
 450 600 l 25
 250 600 l 25
 250 500 l 29x1680
EndSplineSet
Validated: 1
EndChar

StartChar: uni20B4
Encoding: 8372 8372 257
Width: 600
Flags: W
HStem: 0 100<200 450> 100 100<500 550> 300 100<200 450> 500 100<100 150> 600 100<200 450>
VStem: 100 100<100 300 500 600> 150 350<0 100 300 400 600 700> 450 100<100 200 400 600>
LayerCount: 2
Back
Fore
SplineSet
100 500 m 29x35
 100 600 l 25x35
 150 600 l 25x32
 150 700 l 25
 500 700 l 25
 500 600 l 25x2a
 550 600 l 25
 550 400 l 25x29
 500 400 l 25
 500 300 l 25x2a
 200 300 l 25
 200 100 l 25
 450 100 l 25xad
 450 200 l 25
 550 200 l 25
 550 100 l 25x65
 500 100 l 25x62
 500 0 l 25
 150 0 l 25xa2
 150 100 l 25x62
 100 100 l 25
 100 300 l 25x64
 150 300 l 25
 150 400 l 25x62
 450 400 l 25
 450 600 l 25
 200 600 l 25x6d
 200 500 l 25
 100 500 l 29x35
EndSplineSet
Validated: 1
EndChar

StartChar: radical
Encoding: 8730 8730 258
Width: 600
Flags: W
HStem: 0 100<150 200> 600 100<350 600>
VStem: 0 100<200 400> 50 100<100 200> 200 100<100 300> 250 100<300 600>
LayerCount: 2
Back
Fore
SplineSet
0 200 m 29xe0
 0 400 l 25
 100 400 l 25
 100 200 l 25xe0
 150 200 l 25
 150 100 l 25
 200 100 l 25
 200 300 l 25xd8
 250 300 l 25
 250 600 l 25xc4
 300 600 l 25
 300 700 l 25xc8
 600 700 l 25
 600 600 l 25
 350 600 l 25
 350 300 l 25xc4
 300 300 l 25
 300 100 l 25xc8
 250 100 l 25
 250 0 l 25
 100 0 l 25
 100 100 l 25xe4
 50 100 l 25
 50 200 l 25xd0
 0 200 l 29xe0
EndSplineSet
Validated: 1
EndChar

StartChar: infinity
Encoding: 8734 8734 259
Width: 1200
Flags: W
HStem: 100 100<350 500 750 900> 200 300<250 300 550 600 650 700 950 1000> 500 100<350 500 750 900>
VStem: 250 100<200 500> 300 250<100 200 500 600> 500 100<200 300 400 500> 650 100<200 300 400 500> 700 250<100 200 500 600> 900 100<200 500>
LayerCount: 2
Back
Fore
SplineSet
700 300 m 29xa1
 750 300 l 25
 750 200 l 25
 900 200 l 25
 900 500 l 25
 750 500 l 25
 750 400 l 25xa280
 700 400 l 25
 700 300 l 29xa1
350 200 m 25xb4
 500 200 l 25
 500 300 l 25xb4
 550 300 l 25
 550 400 l 25xa8
 500 400 l 25
 500 500 l 25
 350 500 l 25
 350 200 l 25xb4
250 200 m 25x50
 250 500 l 25x50
 300 500 l 25x48
 300 600 l 25
 550 600 l 25x28
 550 500 l 25x48
 600 500 l 25
 600 400 l 25
 650 400 l 25
 650 500 l 25x46
 700 500 l 25x41
 700 600 l 25
 950 600 l 25x21
 950 500 l 25x41
 1000 500 l 25
 1000 200 l 25x4080
 950 200 l 25x41
 950 100 l 25
 700 100 l 25x81
 700 200 l 25x41
 650 200 l 25
 650 300 l 25
 600 300 l 25
 600 200 l 25x46
 550 200 l 25x48
 550 100 l 25
 300 100 l 25x88
 300 200 l 25x48
 250 200 l 25x50
EndSplineSet
Validated: 1
EndChar

StartChar: uni2B50
Encoding: 11088 11088 260
Width: 600
Flags: W
HStem: 0 100<50 100 500 550> 400 200<100 200 400 500> 500 100<0 100 500 600>
VStem: 50 100<0 100> 100 150<100 200> 200 200<300 400 600 700> 350 150<100 200> 450 100<0 100>
LayerCount: 2
Back
Fore
SplineSet
50 0 m 29xd0
 50 100 l 25xd0
 100 100 l 25
 100 200 l 25xc8
 150 200 l 25
 150 300 l 25
 200 300 l 25
 200 400 l 25xd4
 100 400 l 25xc8
 100 500 l 25
 0 500 l 25
 0 600 l 25xa8
 200 600 l 25
 200 700 l 25xc4
 250 700 l 25
 250 800 l 25
 350 800 l 25
 350 700 l 25xca
 400 700 l 25
 400 600 l 25xc4
 600 600 l 25
 600 500 l 25
 500 500 l 25xa2
 500 400 l 25xc2
 400 400 l 25
 400 300 l 25
 450 300 l 25
 450 200 l 25xc5
 500 200 l 25
 500 100 l 25xc2
 550 100 l 25
 550 0 l 25
 450 0 l 25
 450 100 l 25xc1
 350 100 l 25
 350 200 l 25
 250 200 l 25
 250 100 l 25xca
 150 100 l 25
 150 0 l 25
 50 0 l 29xd0
EndSplineSet
Validated: 1
EndChar

StartChar: uni274C
Encoding: 10060 10060 261
Width: 600
Flags: W
HStem: 100 100<50 150 450 550> 200 100<150 200 400 450> 400 100<150 200 400 450> 500 100<50 150 450 550>
VStem: 50 100<100 200 500 600> 150 100<200 300 400 500> 350 100<200 300 400 500> 450 100<100 200 500 600>
LayerCount: 2
Back
Fore
SplineSet
150 400 m 29x64
 150 500 l 25x68
 250 500 l 25x14
 250 400 l 25
 350 400 l 25x26
 350 500 l 25x16
 450 500 l 25x26
 450 600 l 25
 550 600 l 25
 550 500 l 25x11
 450 500 l 25
 450 400 l 25
 400 400 l 25
 400 300 l 25
 450 300 l 25x62
 450 200 l 25x82
 550 200 l 25
 550 100 l 25
 450 100 l 25x81
 450 200 l 25x82
 350 200 l 25
 350 300 l 25
 250 300 l 25
 250 200 l 25x46
 150 200 l 25
 150 100 l 25
 50 100 l 25
 50 200 l 25
 150 200 l 25x88
 150 300 l 25
 200 300 l 25
 200 400 l 25
 150 400 l 29x64
50 500 m 25x18
 50 600 l 25
 150 600 l 25x18
 150 500 l 25x28
 50 500 l 25x18
EndSplineSet
Validated: 5
EndChar

StartChar: uni2713
Encoding: 10003 10003 262
Width: 600
Flags: W
HStem: 0 100<200 250> 200 100<50 100> 600 100<550 600>
VStem: 50 100<200 300> 100 100<100 200> 250 100<100 200> 300 100<200 300> 350 100<300 400> 400 100<400 500> 450 100<500 600> 500 100<600 700>
LayerCount: 2
Back
Fore
SplineSet
50 200 m 29xf0
 50 300 l 1
 150 300 l 25
 150 200 l 25xf0
 200 200 l 25
 200 100 l 25
 250 100 l 25
 250 200 l 25xec
 300 200 l 25
 300 300 l 25xe2
 350 300 l 25
 350 400 l 25xe1
 400 400 l 25
 400 500 l 25xe080
 450 500 l 25
 450 600 l 25xe040
 500 600 l 25
 500 700 l 25
 600 700 l 25
 600 600 l 25xe020
 550 600 l 25
 550 500 l 25xe040
 500 500 l 25
 500 400 l 25xe080
 450 400 l 25
 450 300 l 25xe1
 400 300 l 25
 400 200 l 25xe2
 350 200 l 25
 350 100 l 25xe4
 300 100 l 25
 300 0 l 25
 150 0 l 25
 150 100 l 25xf2
 100 100 l 25
 100 200 l 1xe8
 50 200 l 29xf0
EndSplineSet
Validated: 1
EndChar

StartChar: uni2699
Encoding: 9881 9881 263
Width: 1200
Flags: W
HStem: 0 100<350 400 800 850> 300 100<250 400 800 950> 600 100<350 400 800 850>
VStem: 350 100<0 100 601 700> 400 150<200 300 400 500> 550 100<-100 100 600 800> 650 150<200 300 400 500> 750 100<0 100 600 700>
CounterMasks: 1 e0
LayerCount: 2
Back
Fore
SplineSet
500 300 m 29xea
 550 300 l 25
 550 200 l 25
 650 200 l 25
 650 300 l 25
 700 300 l 25
 700 400 l 25
 650 400 l 25
 650 500 l 25
 550 500 l 25
 550 400 l 25
 500 400 l 25
 500 300 l 29xea
250 300 m 25
 250 400 l 25
 400 400 l 25
 400 601 l 25xe8
 350 600 l 25
 350 700 l 25
 450 700 l 25
 450 600 l 25
 550 600 l 25
 550 800 l 25
 650 800 l 25
 650 600 l 25
 750 600 l 25
 750 700 l 25
 850 700 l 25
 850 600 l 25xf5
 800 600 l 25
 800 400 l 25
 950 400 l 25
 950 300 l 25
 800 300 l 25
 800 100 l 25xe2
 850 100 l 25
 850 0 l 25
 750 0 l 25
 750 100 l 25
 650 100 l 25
 650 -100 l 25
 550 -100 l 25
 550 100 l 25
 450 100 l 25
 450 0 l 25
 350 0 l 25
 350 100 l 25xf5
 400 100 l 25
 400 300 l 25
 250 300 l 25
EndSplineSet
Validated: 1
EndChar

StartChar: uni2139
Encoding: 8505 8505 264
Width: 1200
Flags: W
HStem: -100 100<400 900> 500 100<600 700> 700 100<400 900>
VStem: 250 100<100 600> 300 100<0 100 600 700> 600 100<100 400 500 600> 900 100<0 100 600 700> 950 100<100 600>
LayerCount: 2
Back
Fore
SplineSet
600 100 m 25xe4
 600 400 l 25
 700 400 l 25
 700 100 l 25
 600 100 l 25xe4
600 500 m 25
 600 600 l 25
 700 600 l 25
 700 500 l 25
 600 500 l 25
950 600 m 29xe5
 900 600 l 25
 900 700 l 25
 400 700 l 25
 400 600 l 25xee
 350 600 l 25
 350 100 l 25xf4
 400 100 l 25
 400 0 l 25
 900 0 l 25
 900 100 l 25xee
 950 100 l 25
 950 600 l 29xe5
250 100 m 25xf4
 250 600 l 25xf4
 300 600 l 25
 300 700 l 25xec
 350 700 l 25
 350 800 l 25
 950 800 l 25
 950 700 l 25xf5
 1000 700 l 25
 1000 600 l 25xe6
 1050 600 l 25
 1050 100 l 25xe5
 1000 100 l 25
 1000 0 l 25xe6
 950 0 l 25
 950 -100 l 25
 350 -100 l 25
 350 0 l 25xf5
 300 0 l 25
 300 100 l 25xec
 250 100 l 25xf4
EndSplineSet
Validated: 1
EndChar

StartChar: uni2605
Encoding: 9733 9733 265
Width: 600
Flags: W
HStem: 0 100<50 100 500 550> 400 200<100 200 400 500> 500 100<0 100 500 600>
VStem: 50 100<0 100> 100 150<100 200> 200 200<300 400 600 700> 350 150<100 200> 450 100<0 100>
LayerCount: 2
Back
Fore
SplineSet
50 0 m 29xd0
 50 100 l 25xd0
 100 100 l 25
 100 200 l 25xc8
 150 200 l 25
 150 300 l 25
 200 300 l 25
 200 400 l 25xd4
 100 400 l 25xc8
 100 500 l 25
 0 500 l 25
 0 600 l 25xa8
 200 600 l 25
 200 700 l 25xc4
 250 700 l 25
 250 800 l 25
 350 800 l 25
 350 700 l 25xca
 400 700 l 25
 400 600 l 25xc4
 600 600 l 25
 600 500 l 25
 500 500 l 25xa2
 500 400 l 25xc2
 400 400 l 25
 400 300 l 25
 450 300 l 25
 450 200 l 25xc5
 500 200 l 25
 500 100 l 25xc2
 550 100 l 25
 550 0 l 25
 450 0 l 25
 450 100 l 25xc1
 350 100 l 25
 350 200 l 25
 250 200 l 25
 250 100 l 25xca
 150 100 l 25
 150 0 l 25
 50 0 l 29xd0
EndSplineSet
Validated: 1
EndChar

StartChar: uni23CF
Encoding: 9167 9167 266
Width: 600
Flags: W
HStem: 0 100<50 550> 200 100<50 100 500 550> 680 20G<250 350>
VStem: 250 100<600 700>
LayerCount: 2
Back
Fore
SplineSet
50 0 m 25
 50 100 l 25
 550 100 l 25
 550 0 l 25
 50 0 l 25
50 200 m 29
 50 300 l 29
 100 300 l 29
 100 400 l 29
 150 400 l 29
 150 500 l 29
 200 500 l 29
 200 600 l 29
 250 600 l 29
 250 700 l 29
 350 700 l 29
 350 600 l 29
 400 600 l 29
 400 500 l 29
 450 500 l 29
 450 400 l 29
 500 400 l 29
 500 300 l 29
 550 300 l 29
 550 200 l 29
 50 200 l 29
EndSplineSet
Validated: 1
EndChar

StartChar: uni23E9
Encoding: 9193 9193 267
Width: 1200
Flags: W
HStem: 0 21G<200 300 650 750> 200 300<400 500 850 950> 300 100<500 600 950 1050> 680 20G<200 300 650 750>
VStem: 200 300<200 300 400 500> 200 200<100 200 500 600> 200 100<0 100 600 700> 650 300<200 300 400 500> 650 200<100 200 500 600> 650 100<0 100 600 700>
LayerCount: 2
Back
Fore
SplineSet
200 700 m 29xd2
 300 700 l 29
 300 600 l 29xd2
 400 600 l 29
 400 500 l 29xd4
 500 500 l 29xd8
 500 400 l 29
 600 400 l 29
 600 300 l 29
 500 300 l 29xb8
 500 200 l 29xd8
 400 200 l 29
 400 100 l 29xd4
 300 100 l 29
 300 0 l 29
 200 0 l 29
 200 700 l 29xd2
650 700 m 25xd040
 750 700 l 25
 750 600 l 25xd040
 850 600 l 25
 850 500 l 25xd080
 950 500 l 25xd1
 950 400 l 25
 1050 400 l 25
 1050 300 l 25
 950 300 l 25xb1
 950 200 l 25xd1
 850 200 l 25
 850 100 l 25xd080
 750 100 l 25
 750 0 l 25
 650 0 l 25
 650 700 l 25xd040
EndSplineSet
Validated: 1
EndChar

StartChar: uni23EA
Encoding: 9194 9194 268
Width: 1200
Flags: W
HStem: 0 21G<500 600 950 1050> 200 300<300 400 750 850> 300 100<200 300 650 750> 680 20G<500 600 950 1050>
VStem: 300 300<200 300 400 500> 400 200<100 200 500 600> 500 100<0 100 600 700> 750 300<200 300 400 500> 850 200<100 200 500 600> 950 100<0 100 600 700>
LayerCount: 2
Back
Fore
SplineSet
1050 700 m 25xd040
 1050 0 l 25
 950 0 l 25
 950 100 l 25xd040
 850 100 l 25
 850 200 l 25xd080
 750 200 l 25xd1
 750 300 l 25
 650 300 l 25
 650 400 l 25
 750 400 l 25xb1
 750 500 l 25xd1
 850 500 l 25
 850 600 l 25xd080
 950 600 l 25
 950 700 l 25
 1050 700 l 25xd040
600 700 m 29xd2
 600 0 l 29
 500 0 l 29
 500 100 l 29xd2
 400 100 l 29
 400 200 l 29xd4
 300 200 l 29xd8
 300 300 l 29
 200 300 l 29
 200 400 l 29
 300 400 l 29xb8
 300 500 l 29xd8
 400 500 l 29
 400 600 l 29xd4
 500 600 l 29
 500 700 l 29
 600 700 l 29xd2
EndSplineSet
Validated: 1
EndChar

StartChar: uni23ED
Encoding: 9197 9197 269
Width: 1200
Flags: W
HStem: 0 21G<100 200 550 650 1000 1150> 200 300<300 400 750 850> 300 100<400 500 850 950> 680 20G<100 200 550 650 1000 1150>
VStem: 100 300<200 300 400 500> 100 200<100 200 500 600> 100 100<0 100 600 700> 550 300<200 300 400 500> 550 200<100 200 500 600> 550 100<0 100 600 700> 1000 150<0 700>
LayerCount: 2
Back
Fore
SplineSet
1000 700 m 29x9020
 1150 700 l 29
 1150 0 l 29
 1000 0 l 29
 1000 700 l 29x9020
550 700 m 25xd060
 650 700 l 25
 650 600 l 25xd060
 750 600 l 25
 750 500 l 25xd0a0
 850 500 l 25xd120
 850 400 l 25
 950 400 l 25
 950 300 l 25
 850 300 l 25xb120
 850 200 l 25xd120
 750 200 l 25
 750 100 l 25xd0a0
 650 100 l 25
 650 0 l 25
 550 0 l 25
 550 700 l 25xd060
100 700 m 25xd220
 200 700 l 25
 200 600 l 25xd220
 300 600 l 25
 300 500 l 25xd420
 400 500 l 25xd820
 400 400 l 25
 500 400 l 25
 500 300 l 25
 400 300 l 25xb820
 400 200 l 25xd820
 300 200 l 25
 300 100 l 25xd420
 200 100 l 25
 200 0 l 25
 100 0 l 25
 100 700 l 25xd220
EndSplineSet
Validated: 1
EndChar

StartChar: uni23EE
Encoding: 9198 9198 270
Width: 1200
Flags: W
HStem: 0 21G<100 250 600 700 1050 1150> 200 300<400 500 850 950> 300 100<300 400 750 850> 680 20G<100 250 600 700 1050 1150>
VStem: 100 150<0 700> 400 300<200 300 400 500> 500 200<100 200 500 600> 600 100<0 100 600 700> 850 300<200 300 400 500> 950 200<100 200 500 600> 1050 100<0 100 600 700>
LayerCount: 2
Back
Fore
SplineSet
100 700 m 29x98
 250 700 l 29
 250 0 l 29
 100 0 l 29
 100 700 l 29x98
1150 700 m 25xd820
 1150 0 l 25
 1050 0 l 25
 1050 100 l 25xd820
 950 100 l 25
 950 200 l 25xd840
 850 200 l 25xd880
 850 300 l 25
 750 300 l 25
 750 400 l 25
 850 400 l 25xb880
 850 500 l 25xd880
 950 500 l 25
 950 600 l 25xd840
 1050 600 l 25
 1050 700 l 25
 1150 700 l 25xd820
700 700 m 25xd9
 700 0 l 25
 600 0 l 25
 600 100 l 25xd9
 500 100 l 25
 500 200 l 25xda
 400 200 l 25xdc
 400 300 l 25
 300 300 l 25
 300 400 l 25
 400 400 l 25xbc
 400 500 l 25xdc
 500 500 l 25
 500 600 l 25xda
 600 600 l 25
 600 700 l 25
 700 700 l 25xd9
EndSplineSet
Validated: 1
EndChar

StartChar: uni23EF
Encoding: 9199 9199 271
Width: 1200
Flags: W
HStem: 0 21G<150 250 650 800 950 1100> 300 100<450 550> 680 20G<150 250 650 800 950 1100>
VStem: 150 300<200 300 400 500> 150 200<100 200 500 600> 150 100<0 100 600 700> 650 150<0 700> 950 150<0 700>
LayerCount: 2
Back
Fore
SplineSet
150 700 m 25xe7
 250 700 l 25
 250 600 l 25xe7
 350 600 l 25
 350 500 l 25xeb
 450 500 l 25
 450 400 l 25
 550 400 l 25
 550 300 l 25
 450 300 l 25
 450 200 l 25xf3
 350 200 l 25
 350 100 l 25xeb
 250 100 l 25
 250 0 l 25
 150 0 l 25
 150 700 l 25xe7
650 700 m 29
 800 700 l 29
 800 0 l 29
 650 0 l 29
 650 700 l 29
950 700 m 29
 1100 700 l 29
 1100 0 l 29
 950 0 l 29
 950 700 l 29
EndSplineSet
Validated: 1
EndChar

StartChar: uni23F8
Encoding: 9208 9208 273
Width: 600
Flags: W
HStem: 0 21G<100 250 400 550> 680 20G<100 250 400 550>
VStem: 100 150<0 700> 400 150<0 700>
LayerCount: 2
Back
Fore
SplineSet
100 700 m 29
 250 700 l 29
 250 0 l 29
 100 0 l 29
 100 700 l 29
400 700 m 29
 550 700 l 29
 550 0 l 29
 400 0 l 29
 400 700 l 29
EndSplineSet
Validated: 1
EndChar

StartChar: uni23F9
Encoding: 9209 9209 274
Width: 600
Flags: W
HStem: 0 21G<50 600> 680 20G<50 600>
VStem: 50 550<0 700>
LayerCount: 2
Back
Fore
SplineSet
50 700 m 29
 600 700 l 25
 600 0 l 25
 50 0 l 25
 50 700 l 29
EndSplineSet
Validated: 1
EndChar

StartChar: uni23FA
Encoding: 9210 9210 275
Width: 600
Flags: W
HStem: 0 21G<150 450> 680 20G<150 450>
VStem: 150 300<0 100 600 700>
LayerCount: 2
Back
Fore
SplineSet
0 500 m 29
 50 500 l 25
 50 600 l 25
 150 600 l 25
 150 700 l 25
 450 700 l 25
 450 600 l 25
 550 600 l 25
 550 500 l 25
 600 500 l 25
 600 200 l 25
 550 200 l 25
 550 100 l 25
 450 100 l 25
 450 0 l 25
 150 0 l 25
 150 100 l 25
 50 100 l 25
 50 200 l 25
 0 200 l 25
 0 500 l 29
EndSplineSet
Validated: 1
EndChar

StartChar: uni23FD
Encoding: 9213 9213 276
Width: 1200
Flags: W
HStem: -100 100<450 850> 500 100<450 500 800 850>
VStem: 300 100<100 400> 350 100<0 100 400 500> 400 100<500 600> 600 100<300 800> 800 100<500 600> 850 100<0 100 400 500> 900 100<100 400>
LayerCount: 2
Back
Fore
SplineSet
600 300 m 29xc4
 600 800 l 1
 700 800 l 25
 700 300 l 1
 600 300 l 29xc4
400 500 m 25xcc
 400 600 l 25
 500 600 l 25
 500 500 l 25xcc
 450 500 l 25
 450 400 l 25xd4
 400 400 l 25
 400 100 l 25xe4
 450 100 l 25
 450 0 l 25
 850 0 l 25
 850 100 l 25xd5
 900 100 l 25
 900 400 l 25xc480
 850 400 l 25
 850 500 l 25xc5
 800 500 l 25
 800 600 l 25
 900 600 l 25
 900 500 l 25xc6
 950 500 l 25
 950 400 l 25xc5
 1000 400 l 25
 1000 100 l 25xc480
 950 100 l 25
 950 0 l 25xc5
 900 0 l 25
 900 -100 l 25
 400 -100 l 25
 400 0 l 25xcc80
 350 0 l 25
 350 100 l 25xd4
 300 100 l 25
 300 400 l 25xe4
 350 400 l 25
 350 500 l 25xd4
 400 500 l 25xcc
EndSplineSet
Validated: 1
EndChar

StartChar: uni2B58
Encoding: 11096 11096 277
Width: 1200
Flags: W
HStem: 0 100<550 750> 100 100<450 500 800 850> 600 100<450 500 800 850> 700 100<550 750>
VStem: 300 100<300 500> 350 100<200 300 500 600> 400 150<100 200 600 700> 500 300<0 100 700 800> 600 100<200 600> 750 150<100 200 600 700> 850 100<200 300 500 600> 900 100<300 500>
LayerCount: 2
Back
Fore
SplineSet
600 200 m 29x6080
 600 600 l 25
 700 600 l 25
 700 200 l 25
 600 200 l 29x6080
450 200 m 25x64
 550 200 l 25x62
 550 100 l 25
 750 100 l 25x8240
 750 200 l 25x4240
 850 200 l 25
 850 300 l 25x4020
 900 300 l 25
 900 500 l 25x4010
 850 500 l 25
 850 600 l 25x6020
 750 600 l 25x6040
 750 700 l 25
 550 700 l 25x1240
 550 600 l 25x2240
 450 600 l 25
 450 500 l 25x24
 400 500 l 25
 400 300 l 25x28
 450 300 l 25
 450 200 l 25x64
400 600 m 25
 400 700 l 1x12
 500 700 l 25x21
 500 800 l 25
 800 800 l 25x11
 800 700 l 25x21
 900 700 l 25x1040
 900 600 l 25x2040
 950 600 l 25
 950 500 l 25x2020
 1000 500 l 25
 1000 300 l 25x2010
 950 300 l 25
 950 200 l 25x6020
 900 200 l 25
 900 100 l 25x6040
 800 100 l 25x61
 800 0 l 25
 500 0 l 25x81
 500 100 l 25x41
 400 100 l 25
 400 200 l 25x42
 350 200 l 25
 350 300 l 25x44
 300 300 l 25
 300 500 l 25x48
 350 500 l 25
 350 600 l 1x64
 400 600 l 25
EndSplineSet
Validated: 1
EndChar

StartChar: trademark
Encoding: 8482 8482 278
Width: 1200
Flags: W
HStem: 400 300<350 450 600 700 900 1000> 500 100<750 850> 600 100<250 350 450 550 700 750 850 900>
VStem: 350 100<400 600> 600 150<600 700> 600 100<400 600> 750 100<500 600> 850 150<600 700> 900 100<400 600>
LayerCount: 2
Back
Fore
SplineSet
600 400 m 29x94
 600 700 l 25x98
 750 700 l 25x38
 750 600 l 25x58
 850 600 l 25x52
 850 700 l 25x31
 1000 700 l 25x91
 1000 400 l 25
 900 400 l 25x9080
 900 600 l 25x3080
 850 600 l 25
 850 500 l 25
 750 500 l 25x5280
 750 600 l 25x58
 700 600 l 25x34
 700 400 l 25
 600 400 l 29x94
250 600 m 25x30
 250 701 l 25
 550 700 l 25
 550 600 l 1
 450 600 l 25x30
 450 400 l 1
 350 400 l 25x90
 350 600 l 25
 250 600 l 25x30
EndSplineSet
Validated: 5
EndChar

StartChar: uni25FC
Encoding: 9724 9724 279
Width: 600
Flags: W
HStem: 0 100<250 350> 680 20G<250 350>
VStem: 250 100<0 100 200 700>
LayerCount: 2
Back
Fore
SplineSet
250 700 m 29
 350 700 l 25
 350 200 l 25
 250 200 l 25
 250 700 l 29
350 0 m 25
 250 0 l 1
 250 100 l 25
 350 100 l 1
 350 0 l 25
EndSplineSet
Validated: 1
EndChar

StartChar: filledbox
Encoding: 9632 9632 280
Width: 600
Flags: W
HStem: 0 21G<0 600>
VStem: 0 600<0 800>
LayerCount: 2
Back
Fore
SplineSet
0 0 m 29
 0 800 l 25
 600 800 l 25
 600 0 l 25
 0 0 l 29
EndSplineSet
Validated: 1
EndChar

StartChar: uni26C7
Encoding: 9927 9927 281
Width: 600
Flags: W
HStem: -100 100<50 150 500 600> 400 100<100 150 500 550> 500 100<50 100 150 200 450 500 550 600>
VStem: 50 150<-100 0> 50 50<500 600> 100 50<400 500> 150 100<500 600> 200 250<100 200 400 500 600 700> 300 50<500 600> 400 100<500 600> 450 150<-100 0> 500 50<400 500> 550 50<500 600>
LayerCount: 2
Back
Fore
SplineSet
350 500 m 29xa0c0
 400 500 l 29
 400 600 l 29
 350 600 l 29
 350 500 l 29xa0c0
250 500 m 25xa280
 300 500 l 25
 300 600 l 25
 250 600 l 25
 250 500 l 25xa280
50 -100 m 25xd020
 50 0 l 25xd020
 150 0 l 25
 150 100 l 1xc2
 200 100 l 1
 200 200 l 1xc1
 150 200 l 1xc2
 150 400 l 25
 200 400 l 25xc5
 200 500 l 25xa5
 150 500 l 25xc5
 150 600 l 25xa2
 200 600 l 25
 200 700 l 25xa1
 250 700 l 25
 250 800 l 25
 400 800 l 25
 400 700 l 25xa240
 450 700 l 25
 450 600 l 25xa1
 500 600 l 25xa040
 500 500 l 25xc040
 450 500 l 25xa1
 450 400 l 25
 500 400 l 25
 500 200 l 1
 450 200 l 1
 450 100 l 1
 500 100 l 1
 500 0 l 25xc110
 600 0 l 25
 600 -100 l 25
 450 -100 l 25
 450 0 l 25
 200 0 l 25
 200 -100 l 25
 50 -100 l 25xd020
100 500 m 25xc8
 150 500 l 25
 150 400 l 25
 100 400 l 25xc4
 100 500 l 25xc8
50 600 m 25xa8
 100 600 l 25xa8
 100 500 l 25xc8
 50 500 l 25
 50 600 l 25xa8
500 400 m 25xc010
 500 500 l 25xc040
 550 500 l 25
 550 400 l 25
 500 400 l 25xc010
550 500 m 25xc010
 550 600 l 25
 600 600 l 25
 600 500 l 25xa008
 550 500 l 25xc010
EndSplineSet
Validated: 5
EndChar

StartChar: uni2744
Encoding: 10052 10052 282
Width: 1200
Flags: HMW
LayerCount: 2
Back
Fore
SplineSet
650 500 m 29
 700 500 l 25
 700 600 l 25
 650 600 l 25
 650 500 l 29
500 500 m 25
 550 500 l 25
 550 600 l 25
 500 600 l 25
 500 500 l 25
550 400 m 25
 550 300 l 25
 650 300 l 25
 650 400 l 25
 550 400 l 25
150 -100 m 25
 150 100 l 1
 250 100 l 25
 250 0 l 25
 300 0 l 25
 300 100 l 25
 350 100 l 25
 350 200 l 25
 450 200 l 25
 450 300 l 25
 300 300 l 25
 300 200 l 25
 200 200 l 25
 200 300 l 25
 150 300 l 25
 150 400 l 25
 200 400 l 25
 200 500 l 25
 300 500 l 25
 300 400 l 25
 450 400 l 25
 450 500 l 25
 350 500 l 25
 350 600 l 25
 300 600 l 25
 300 700 l 25
 250 700 l 25
 250 600 l 25
 150 600 l 25
 150 800 l 25
 300 800 l 25
 300 700 l 25
 400 700 l 25
 400 600 l 25
 500 600 l 25
 500 700 l 25
 550 700 l 25
 550 800 l 25
 650 800 l 25
 650 700 l 25
 700 700 l 25
 700 600 l 25
 800 600 l 25
 800 700 l 25
 900 700 l 25
 900 800 l 25
 1050 800 l 25
 1050 600 l 25
 950 600 l 25
 950 700 l 25
 900 700 l 25
 900 600 l 25
 850 600 l 25
 850 500 l 25
 750 500 l 25
 750 400 l 25
 900 400 l 25
 900 500 l 25
 1000 500 l 25
 1000 400 l 25
 1050 400 l 25
 1050 300 l 25
 1000 300 l 25
 1000 200 l 25
 900 200 l 25
 900 300 l 25
 750 300 l 25
 750 200 l 25
 850 200 l 25
 850 100 l 25
 900 100 l 25
 900 0 l 25
 950 0 l 25
 950 100 l 25
 1050 100 l 25
 1050 -100 l 25
 900 -100 l 25
 900 0 l 25
 800 0 l 25
 800 100 l 25
 700 100 l 25
 700 200 l 25
 650 200 l 25
 650 100 l 25
 700 100 l 25
 700 0 l 25
 650 0 l 25
 650 -100 l 25
 550 -100 l 25
 550 0 l 25
 500 0 l 25
 500 100 l 25
 550 100 l 25
 550 200 l 25
 500 200 l 25
 500 100 l 25
 400 100 l 25
 400 0 l 25
 300 0 l 25
 300 -100 l 1
 150 -100 l 25
EndSplineSet
Validated: 5
EndChar

StartChar: uni26A0
Encoding: 9888 9888 283
Width: 1200
Flags: W
HStem: -100 100<250 950> 100 100<550 650> 300 200<350 400 550 650 800 850> 700 100<550 650>
VStem: 150 100<0 100> 200 100<100 200> 250 100<200 300> 300 100<300 400> 350 100<400 500> 400 100<500 600> 450 100<600 700> 550 100<100 200 300 500> 650 100<600 700> 700 100<500 600> 750 100<400 500> 800 100<300 400> 850 100<200 300> 900 100<100 200> 950 100<0 100>
LayerCount: 2
Back
Fore
SplineSet
550 100 m 29xf010
 550 200 l 25
 650 200 l 25
 650 100 l 25
 550 100 l 29xf010
550 300 m 25
 550 500 l 25
 650 500 l 25
 650 300 l 25
 550 300 l 25
550 600 m 25xf028
 500 600 l 25
 500 500 l 25xf040
 450 500 l 25
 450 400 l 25xf080
 400 400 l 25
 400 300 l 25xf1
 350 300 l 25
 350 200 l 25xf2
 300 200 l 25
 300 100 l 25xf4
 250 100 l 25
 250 0 l 25
 950 0 l 25
 950 100 l 25xf80020
 900 100 l 25
 900 200 l 25xf00040
 850 200 l 25
 850 300 l 25xf00080
 800 300 l 25
 800 400 l 25xf001
 750 400 l 25
 750 500 l 25xf002
 700 500 l 25
 700 600 l 25xf004
 650 600 l 25
 650 700 l 25
 550 700 l 25
 550 600 l 25xf028
150 -100 m 25xf80020
 150 100 l 1xf80020
 200 100 l 25
 200 200 l 25xf4
 250 200 l 25
 250 300 l 25xf2
 300 300 l 25
 300 400 l 25xf1
 350 400 l 25
 350 500 l 25xf080
 400 500 l 25
 400 600 l 25xf040
 450 600 l 25
 450 700 l 25xf020
 500 700 l 25
 500 800 l 25
 700 800 l 25
 700 700 l 25xf044
 750 700 l 25
 750 600 l 25xf008
 800 600 l 25
 800 500 l 25xf004
 850 500 l 25
 850 400 l 25xf002
 900 400 l 25
 900 300 l 25xf001
 950 300 l 25
 950 200 l 25xf00080
 1000 200 l 25
 1000 100 l 25xf00040
 1050 100 l 25
 1050 -100 l 1
 150 -100 l 25xf80020
EndSplineSet
Validated: 1
EndChar

StartChar: u1F642
Encoding: 128578 128578 284
Width: 1200
Flags: W
HStem: -100 100<400 900> 100 100<500 800> 200 100<400 450 850 900> 500 100<450 550 750 850> 700 100<400 900>
VStem: 250 100<100 600> 300 100<0 100 600 700> 400 100<200 300> 450 100<500 600> 750 100<500 600> 800 100<200 300> 900 100<0 100 600 700> 950 100<100 600>
LayerCount: 2
Back
Fore
SplineSet
750 500 m 25x9840
 750 600 l 25
 850 600 l 25
 850 500 l 25
 750 500 l 25x9840
450 500 m 25x9880
 450 600 l 25
 550 600 l 25
 550 500 l 25
 450 500 l 25x9880
400 200 m 25xb9
 400 300 l 1
 500 300 l 25xb9
 500 200 l 25
 800 200 l 25xd920
 800 300 l 25
 900 300 l 25
 900 200 l 25xb920
 850 200 l 25xb840
 850 100 l 25
 450 100 l 25xd8c0
 450 200 l 1xb8c0
 400 200 l 25xb9
400 0 m 25xda
 900 0 l 25
 900 100 l 25xda10
 950 100 l 25
 950 600 l 25xd808
 900 600 l 25
 900 700 l 25
 400 700 l 25
 400 600 l 25xda10
 350 600 l 25
 350 100 l 25xdc
 400 100 l 25
 400 0 l 25xda
250 100 m 25xdc
 250 600 l 25xdc
 300 600 l 25
 300 700 l 25xda
 350 700 l 25
 350 800 l 25
 950 800 l 25
 950 700 l 25xdc08
 1000 700 l 25
 1000 600 l 25xd810
 1050 600 l 25
 1050 100 l 25xd808
 1000 100 l 25
 1000 0 l 25xd810
 950 0 l 25
 950 -100 l 25
 350 -100 l 25
 350 0 l 25xdc08
 300 0 l 25
 300 100 l 25xda
 250 100 l 25xdc
EndSplineSet
Validated: 1
EndChar

StartChar: u1F643
Encoding: 128579 128579 285
Width: 1200
Flags: W
HStem: -100 100<400 900> 100 100<450 550 750 850> 400 100<400 450 850 900> 500 100<500 800> 700 100<400 900>
VStem: 250 100<100 600> 300 100<0 100 600 700> 400 100<400 500> 450 100<100 200> 750 100<100 200> 800 100<400 500> 900 100<0 100 600 700> 950 100<100 600>
LayerCount: 2
Back
Fore
SplineSet
400 400 m 29xe920
 400 500 l 25xe920
 450 500 l 25xe880
 450 600 l 25
 850 600 l 25xd8c0
 850 500 l 25xe8c0
 900 500 l 25
 900 400 l 25
 800 400 l 25xe820
 800 500 l 25
 500 500 l 25xd920
 500 400 l 25
 400 400 l 29xe920
750 100 m 25xc840
 750 200 l 25
 850 200 l 25
 850 100 l 25
 750 100 l 25xc840
450 100 m 25xc880
 450 200 l 25
 550 200 l 25
 550 100 l 25
 450 100 l 25xc880
400 0 m 25xda
 900 0 l 25
 900 100 l 25xda10
 950 100 l 25
 950 600 l 25xd808
 900 600 l 25
 900 700 l 25
 400 700 l 25
 400 600 l 25xda10
 350 600 l 25
 350 100 l 25xdc
 400 100 l 25
 400 0 l 25xda
250 100 m 25xdc
 250 600 l 25xdc
 300 600 l 25
 300 700 l 25xda
 350 700 l 25
 350 800 l 25
 950 800 l 25
 950 700 l 25xdc08
 1000 700 l 25
 1000 600 l 25xd810
 1050 600 l 25
 1050 100 l 25xd808
 1000 100 l 25
 1000 0 l 25xd810
 950 0 l 25
 950 -100 l 25
 350 -100 l 25
 350 0 l 25xdc08
 300 0 l 25
 300 100 l 25xda
 250 100 l 25xdc
EndSplineSet
Validated: 1
EndChar

StartChar: u1F604
Encoding: 128516 128516 286
Width: 1200
Flags: W
HStem: -100 100<400 900> 100 200<450 850> 200 100<400 450 850 900> 400 100<400 450 550 600 700 750 850 900> 500 100<450 550 750 850> 700 100<400 900>
VStem: 250 100<100 600> 300 100<0 100 600 700> 400 50<400 500> 450 100<500 600> 550 50<400 500> 700 50<400 500> 750 100<500 600> 850 50<400 500> 900 100<0 100 600 700> 950 100<100 600>
LayerCount: 2
Back
Fore
SplineSet
450 100 m 29xc444
 450 200 l 29xa444
 400 200 l 29
 400 300 l 29
 900 300 l 29
 900 200 l 29xa482
 850 200 l 29xa404
 850 100 l 29
 450 100 l 29xc444
700 400 m 25x9410
 700 500 l 25
 750 500 l 25x9410
 750 600 l 25
 850 600 l 25x8c08
 850 500 l 25x9408
 900 500 l 25
 900 400 l 25
 850 400 l 25x9404
 850 500 l 25x9408
 750 500 l 25
 750 400 l 25
 700 400 l 25x9410
400 400 m 25x9480
 400 500 l 25
 450 500 l 25x9480
 450 600 l 25
 550 600 l 25x8c40
 550 500 l 25x9440
 600 500 l 25
 600 400 l 25
 550 400 l 25x9420
 550 500 l 25x9440
 450 500 l 25
 450 400 l 25
 400 400 l 25x9480
400 0 m 25xcd
 900 0 l 25
 900 100 l 25xcd02
 950 100 l 29
 950 600 l 25xcc01
 900 600 l 25
 900 700 l 25
 400 700 l 25
 400 600 l 25xcd02
 350 600 l 25
 350 100 l 25xce
 400 100 l 25
 400 0 l 25xcd
250 100 m 25xce
 250 600 l 25xce
 300 600 l 25
 300 700 l 25xcd
 350 700 l 25
 350 800 l 25
 950 800 l 25
 950 700 l 25xce01
 1000 700 l 25
 1000 600 l 25xcc02
 1050 600 l 25
 1050 100 l 25xcc01
 1000 100 l 25
 1000 0 l 25xcc02
 950 0 l 25
 950 -100 l 25
 350 -100 l 25
 350 0 l 25xce01
 300 0 l 25
 300 100 l 25xcd
 250 100 l 25xce
EndSplineSet
Validated: 5
EndChar

StartChar: u1F606
Encoding: 128518 128518 287
Width: 1200
Flags: W
HStem: -100 100<400 900> 100 200<450 850> 200 100<400 450 850 900> 400 100<500 650 850 900> 500 100<400 450 650 800> 700 100<400 900>
VStem: 250 100<100 600> 300 100<0 100 600 700> 400 100<500 600> 800 100<400 500> 900 100<0 100 600 700> 950 100<100 600>
LayerCount: 2
Back
Fore
SplineSet
400 600 m 29x8d
 500 600 l 25x8c80
 500 500 l 25
 650 500 l 25x9480
 650 600 l 25
 850 600 l 25x8c80
 850 500 l 25
 900 500 l 25
 900 400 l 25
 800 400 l 25x94c0
 800 500 l 25x8cc0
 650 500 l 25
 650 400 l 25
 450 400 l 25x94c0
 450 500 l 25
 400 500 l 25x8cc0
 400 600 l 29x8d
450 100 m 25xc4a0
 450 200 l 25
 400 200 l 25
 400 300 l 25
 900 300 l 25
 900 200 l 25
 850 200 l 25xa4a0
 850 100 l 25
 450 100 l 25xc4a0
950 100 m 1049xc410
400 0 m 25xcd
 900 0 l 25
 900 100 l 25xcd20
 950 100 l 25
 950 600 l 25xcc10
 900 600 l 25
 900 700 l 25
 400 700 l 25
 400 600 l 25xcd20
 350 600 l 25
 350 100 l 25xce
 400 100 l 25
 400 0 l 25xcd
250 100 m 25xce
 250 600 l 25xce
 300 600 l 25
 300 700 l 25xcd
 350 700 l 25
 350 800 l 25
 950 800 l 25
 950 700 l 25xce10
 1000 700 l 25
 1000 600 l 25xcc20
 1050 600 l 25
 1050 100 l 25xcc10
 1000 100 l 25
 1000 0 l 25xcc20
 950 0 l 25
 950 -100 l 25
 350 -100 l 25
 350 0 l 25xce10
 300 0 l 25
 300 100 l 25xcd
 250 100 l 25xce
EndSplineSet
Validated: 5
EndChar

StartChar: u1F60E
Encoding: 128526 128526 288
Width: 1200
Flags: W
HStem: -100 100<400 900> 100 100<500 800> 200 100<400 450 850 900> 400 100<400 450 850 900> 500 100<600 700> 700 100<400 900>
VStem: 250 100<100 500> 300 100<0 100 600 700> 400 100<200 300> 800 100<200 300> 900 100<0 100 600 700> 950 100<100 500>
LayerCount: 2
Back
Fore
SplineSet
400 200 m 29xa4c0
 400 300 l 5
 500 300 l 29xa4c0
 500 200 l 29
 800 200 l 29xc4c0
 800 300 l 29
 900 300 l 29
 900 200 l 29
 850 200 l 29xa4c0
 850 100 l 29
 450 100 l 29xc4c0
 450 200 l 5
 400 200 l 29xa4c0
400 400 m 1x94a0
 400 500 l 25
 450 500 l 25x94a0
 450 600 l 25
 850 600 l 25x8ca0
 850 500 l 25
 900 500 l 25
 900 400 l 25
 700 400 l 25x94a0
 700 500 l 25
 600 500 l 1x8ca0
 600 400 l 25
 400 400 l 1x94a0
400 0 m 25xcd
 900 0 l 25
 900 100 l 25xcd20
 950 100 l 1
 950 500 l 1xcc10
 900 500 l 1
 900 700 l 1
 400 700 l 1x9520
 400 500 l 1x9480
 350 500 l 1
 350 100 l 1xce80
 400 100 l 25
 400 0 l 25xcd
250 100 m 25xce
 250 600 l 25xce
 300 600 l 25
 300 700 l 25xcd
 350 700 l 25
 350 800 l 25
 950 800 l 25
 950 700 l 25xce10
 1000 700 l 25
 1000 600 l 25xcc20
 1050 600 l 25
 1050 100 l 25xcc10
 1000 100 l 25
 1000 0 l 25xcc20
 950 0 l 25
 950 -100 l 25
 350 -100 l 25
 350 0 l 25xce10
 300 0 l 25
 300 100 l 25xcd
 250 100 l 25xce
EndSplineSet
Validated: 5
EndChar

StartChar: u1F621
Encoding: 128545 128545 289
Width: 1200
Flags: W
HStem: -100 100<400 900> 100 100<450 500 800 850> 200 100<550 750> 400 100<550 600 700 750> 500 100<400 500 800 900> 700 100<400 900>
VStem: 250 100<100 600> 300 100<0 100 600 700> 400 150<500 600> 450 100<100 200> 500 100<400 500> 700 100<400 500> 750 150<500 600> 750 100<101 200> 900 100<0 100 600 700> 950 100<100 600>
LayerCount: 2
Back
Fore
SplineSet
450 100 m 25xc444
 450 200 l 25xc444
 500 200 l 25xc420
 500 300 l 25
 800 300 l 25xa430
 800 200 l 25xc430
 850 200 l 25
 850 101 l 25
 750 100 l 25xc404
 750 200 l 25
 550 200 l 25xa444
 550 100 l 25
 450 100 l 25xc444
700 400 m 5x9410
 700 500 l 29x9410
 750 500 l 29x9408
 750 600 l 5
 900 600 l 1
 900 500 l 5x8c08
 800 500 l 5x8c10
 800 400 l 29
 700 400 l 5x9410
500 400 m 29x9420
 500 500 l 5x8c20
 400 500 l 5x8c80
 400 600 l 1x8d
 550 600 l 5x8c80
 550 500 l 29x9480
 600 500 l 29
 600 400 l 29
 500 400 l 29x9420
400 0 m 25xcd
 900 0 l 25
 900 100 l 25xcd02
 950 100 l 25
 950 600 l 25
 900 600 l 29xcc09
 900 700 l 25
 400 700 l 25
 400 600 l 29xcd02
 350 600 l 25
 350 100 l 25xce
 400 100 l 25
 400 0 l 25xcd
250 100 m 25xce
 250 600 l 25xce
 300 600 l 25
 300 700 l 25xcd
 350 700 l 25
 350 800 l 25
 950 800 l 25
 950 700 l 25xce01
 1000 700 l 25
 1000 600 l 25xcc02
 1050 600 l 25
 1050 100 l 25xcc01
 1000 100 l 25
 1000 0 l 25xcc02
 950 0 l 25
 950 -100 l 25
 350 -100 l 25
 350 0 l 25xce01
 300 0 l 25
 300 100 l 25xcd
 250 100 l 25xce
EndSplineSet
Validated: 5
EndChar

StartChar: u1F620
Encoding: 128544 128544 290
Width: 1200
Flags: W
HStem: -100 100<400 900> 100 100<450 500 800 850> 200 100<550 750> 400 100<550 600 700 750> 500 100<450 500 800 850> 700 100<400 900>
VStem: 250 100<100 600> 300 100<0 100 600 700> 450 100<100 200 500 600> 500 100<400 500> 700 100<400 500> 750 100<101 200 500 600> 900 100<0 100 600 700> 950 100<100 600>
LayerCount: 2
Back
Fore
SplineSet
700 400 m 1x9420
 700 500 l 25x9420
 750 500 l 25x9410
 750 600 l 25
 850 600 l 25
 850 500 l 25x8c10
 800 500 l 1x8c20
 800 400 l 25
 700 400 l 1x9420
500 400 m 25x9440
 500 500 l 25x8c40
 450 500 l 25
 450 600 l 25
 550 600 l 25x8c80
 550 500 l 25x9480
 600 500 l 25
 600 400 l 25
 500 400 l 25x9440
450 100 m 29xc490
 450 200 l 29xc490
 500 200 l 29xc440
 500 300 l 29
 800 300 l 29xa460
 800 200 l 29xc460
 850 200 l 29
 850 101 l 29
 750 100 l 29xc410
 750 200 l 29
 550 200 l 29xa490
 550 100 l 29
 450 100 l 29xc490
400 0 m 25xcd
 900 0 l 25
 900 100 l 25xcd08
 950 100 l 25
 950 600 l 25xcc04
 900 600 l 25
 900 700 l 25
 400 700 l 25
 400 600 l 25xcd08
 350 600 l 25
 350 100 l 25xce
 400 100 l 25
 400 0 l 25xcd
250 100 m 25xce
 250 600 l 25xce
 300 600 l 25
 300 700 l 25xcd
 350 700 l 25
 350 800 l 25
 950 800 l 25
 950 700 l 25xce04
 1000 700 l 25
 1000 600 l 25xcc08
 1050 600 l 25
 1050 100 l 25xcc04
 1000 100 l 25
 1000 0 l 25xcc08
 950 0 l 25
 950 -100 l 25
 350 -100 l 25
 350 0 l 25xce04
 300 0 l 25
 300 100 l 25xcd
 250 100 l 25xce
EndSplineSet
Validated: 1
EndChar

StartChar: u1F62D
Encoding: 128557 128557 291
Width: 1200
Flags: W
HStem: -100 100<400 900> 100 200<500 800> 300 100<400 450 850 900> 480 20G<450 500 800 850> 500 100<500 600 700 800> 700 100<400 900>
VStem: 250 100<100 600> 300 100<0 100 600 700> 400 100<300 400> 450 50<400 500> 500 100<500 600> 700 100<500 600> 800 100<300 400> 800 50<400 500> 900 100<0 100 600 700> 950 100<100 600>
LayerCount: 2
Back
Fore
SplineSet
500 100 m 29xc424
 500 300 l 25
 800 300 l 25xc488
 800 100 l 25
 500 100 l 29xc424
800 300 m 25
 800 500 l 25xd410
 850 500 l 25
 850 400 l 25xb404
 900 400 l 25
 900 300 l 25xb408
 800 300 l 25
400 300 m 25xa480
 400 400 l 25xa480
 450 400 l 25
 450 500 l 25
 500 500 l 25xb440
 500 300 l 25xd480
 400 300 l 25xa480
700 500 m 25x8c10
 700 600 l 25
 800 600 l 25x8c10
 800 500 l 25x9410
 700 500 l 25x8c10
500 500 m 25x9440
 500 600 l 25
 600 600 l 25
 600 500 l 25x8c20
 500 500 l 25x9440
400 0 m 25xcd
 900 0 l 25
 900 100 l 25xcd02
 950 100 l 25
 950 600 l 25xcc01
 900 600 l 25
 900 700 l 25
 400 700 l 25
 400 600 l 25xcd02
 350 600 l 25
 350 100 l 25xce
 400 100 l 25
 400 0 l 25xcd
250 100 m 25xce
 250 600 l 25xce
 300 600 l 25
 300 700 l 25xcd
 350 700 l 25
 350 800 l 25
 950 800 l 25
 950 700 l 25xce01
 1000 700 l 25
 1000 600 l 25xcc02
 1050 600 l 25
 1050 100 l 25xcc01
 1000 100 l 25
 1000 0 l 25xcc02
 950 0 l 25
 950 -100 l 25
 350 -100 l 25
 350 0 l 25xce01
 300 0 l 25
 300 100 l 25xcd
 250 100 l 25xce
EndSplineSet
Validated: 5
EndChar

StartChar: u1F50C
Encoding: 128268 128268 292
Width: 600
Flags: W
VStem: 150 100<600 800> 250 150<150 300> 400 100<600 800>
LayerCount: 2
Back
Fore
SplineSet
100 400 m 29x40
 100 600 l 25
 150 600 l 25
 150 800 l 25
 250 800 l 25
 250 600 l 25
 400 600 l 25
 400 800 l 25
 500 800 l 25
 500 600 l 25xa0
 550 600 l 25
 550 400 l 25
 450 400 l 25
 450 300 l 25
 400 300 l 25
 400 150 l 25
 350 150 l 25
 350 -100 l 25
 300 -100 l 25
 300 150 l 25
 250 150 l 25
 250 300 l 25
 200 300 l 25
 200 400 l 25
 100 400 l 29x40
EndSplineSet
Validated: 1
EndChar

StartChar: u1F4FA
Encoding: 128250 128250 293
Width: 1200
Flags: W
HStem: -100 200<350 850> 500 100<350 500 700 850> 700 100<400 500 700 800>
VStem: 250 100<100 500> 400 100<700 800> 700 100<700 800> 850 100<100 500>
LayerCount: 2
Back
Fore
SplineSet
350 100 m 29
 850 100 l 25
 850 500 l 25
 350 500 l 25
 350 100 l 29
250 -100 m 25
 250 600 l 25
 500 600 l 25
 500 700 l 25
 400 700 l 25
 400 800 l 25
 500 800 l 25
 500 700 l 25
 700 700 l 25
 700 800 l 25
 800 800 l 25
 800 700 l 25
 700 700 l 25
 700 600 l 25
 950 600 l 25
 950 -100 l 25
 250 -100 l 25
EndSplineSet
Validated: 5
EndChar

StartChar: u1F4FB
Encoding: 128251 128251 294
Width: 1200
Flags: W
HStem: -100 100<350 850> 150 100<650 700> 200 100<800 850> 300 100<350 750> 700 100<900 950>
VStem: 250 100<0 300> 400 100<50 250> 650 50<150 250> 850 100<0 200 300 500 700 800> 850 50<500 700>
LayerCount: 2
Back
Fore
SplineSet
650 150 m 29xcf
 650 250 l 25
 700 250 l 25
 700 150 l 25
 650 150 l 29xcf
400 50 m 25
 400 250 l 25
 500 250 l 25
 500 50 l 25
 400 50 l 25
350 0 m 25
 850 0 l 25
 850 200 l 25
 750 200 l 25xaf80
 750 300 l 25
 350 300 l 25x9f80
 350 0 l 25
250 -100 m 25
 250 300 l 25
 300 300 l 25
 300 400 l 25
 800 400 l 25x9f80
 800 300 l 25
 850 300 l 25
 850 800 l 25
 950 800 l 25
 950 700 l 25xaf80
 900 700 l 25
 900 500 l 25xaf40
 950 500 l 25
 950 -100 l 25
 250 -100 l 25
EndSplineSet
Validated: 1
EndChar

StartChar: u1F4FC
Encoding: 128252 128252 295
Width: 1200
Flags: W
HStem: 0 100<300 900> 150 100<450 550 650 750> 250 100<350 400 800 850> 350 100<450 550 650 750> 500 100<300 900>
VStem: 200 100<100 500> 350 100<250 350> 550 100<250 350> 750 100<250 350> 900 100<100 500>
LayerCount: 2
Back
Fore
SplineSet
450 250 m 29xdfc0
 550 250 l 25
 550 350 l 25
 450 350 l 25
 450 250 l 29xdfc0
650 250 m 25
 750 250 l 25
 750 350 l 25
 650 350 l 25
 650 250 l 25
400 150 m 25
 400 250 l 25
 350 250 l 25
 350 350 l 25
 400 350 l 25xafc0
 400 450 l 25
 800 450 l 25x9fc0
 800 350 l 25
 850 350 l 25
 850 250 l 25
 800 250 l 25xafc0
 800 150 l 25
 400 150 l 25
300 100 m 25
 900 100 l 25
 900 500 l 25
 300 500 l 25
 300 100 l 25
200 0 m 25
 200 600 l 25
 1000 600 l 25
 1000 0 l 25
 200 0 l 25
EndSplineSet
Validated: 1
EndChar

StartChar: u1F508
Encoding: 128264 128264 296
Width: 600
Flags: W
HStem: -100 100<450 500> 0 100<350 400> 100 100<250 300> 200 100<100 150> 400 100<100 150> 500 100<250 300> 600 100<350 400> 700 100<450 500>
VStem: 0 250<200 300 400 500> 0 100<300 400> 200 150<100 200 500 600> 300 150<0 100 600 700> 400 200<-100 0 700 800> 500 100<0 700>
LayerCount: 2
Back
Fore
SplineSet
250 200 m 29x2480
 350 200 l 29
 350 100 l 29x5020
 450 100 l 29
 450 0 l 29
 500 0 l 29
 500 700 l 29
 450 700 l 29xa114
 450 600 l 29x0214
 350 600 l 29x0220
 350 500 l 29x0420
 250 500 l 29
 250 200 l 29x2480
100 300 m 29x1840
 150 300 l 29
 150 400 l 29
 100 400 l 29
 100 300 l 29x1840
0 200 m 29x1080
 0 500 l 29x1480
 200 500 l 29x1420
 200 600 l 29x0220
 300 600 l 29
 300 700 l 29x0510
 400 700 l 29x0208
 400 800 l 29
 600 800 l 29
 600 -100 l 29
 400 -100 l 29x8108
 400 0 l 29x4008
 300 0 l 29x4010
 300 100 l 29x2010
 200 100 l 29x2020
 200 200 l 29x1020
 0 200 l 29x1080
EndSplineSet
Validated: 1
EndChar

StartChar: u1F507
Encoding: 128263 128263 297
Width: 600
Flags: W
HStem: -100 100<450 500> 0 100<300 400> 200 100<100 150 200 250 400 450> 400 100<100 150 200 250 400 450> 600 100<300 400> 700 100<450 500>
VStem: 0 150<200 300 400 500> 0 100<300 400> 200 100<200 300 400 500> 300 150<0 100 600 700> 350 100<200 300 400 500> 400 200<-100 0 700 800> 500 100<0 700>
LayerCount: 2
Back
Fore
SplineSet
300 600 m 29x3848
 300 700 l 25x3848
 400 700 l 25x3810
 400 800 l 25
 600 800 l 25
 600 -100 l 25
 400 -100 l 25xb410
 400 0 l 25x7010
 300 0 l 25
 300 100 l 25
 450 100 l 25x7040
 450 0 l 25
 500 0 l 25
 500 700 l 25
 450 700 l 25xb448
 450 600 l 25
 300 600 l 29x3848
200 200 m 25x30a0
 200 300 l 25
 250 300 l 25
 250 400 l 25
 200 400 l 25
 200 500 l 25
 300 500 l 25
 300 400 l 25
 350 400 l 25
 350 500 l 25
 450 500 l 25
 450 400 l 25x30a0
 400 400 l 25
 400 300 l 25x3010
 450 300 l 25
 450 200 l 25
 350 200 l 25
 350 300 l 25
 300 300 l 25
 300 200 l 25
 200 200 l 25x30a0
0 200 m 25x32
 0 500 l 25
 150 500 l 25
 150 400 l 25x32
 100 400 l 25
 100 300 l 25x31
 150 300 l 25
 150 200 l 25
 0 200 l 25x32
EndSplineSet
Validated: 1
EndChar

StartChar: u1F509
Encoding: 128265 128265 298
Width: 1200
Flags: W
HStem: -100 100<500 550> 0 100<400 450> 100 100<300 350> 150 100<700 750> 200 100<150 200> 400 100<150 200> 450 100<700 750> 500 100<300 350> 600 100<400 450> 700 100<500 550>
VStem: 50 250<200 300 400 500> 50 100<300 400> 250 150<100 200 500 600> 350 150<0 100 600 700> 450 200<-100 0 700 800> 550 100<0 700> 700 100<150 250 450 550> 750 100<250 450>
LayerCount: 2
Back
Fore
SplineSet
700 550 m 29x120080
 800 550 l 29
 800 450 l 29x120080
 850 450 l 29
 850 250 l 29x120040
 800 250 l 29
 800 150 l 29
 700 150 l 29
 700 250 l 29x120080
 750 250 l 29
 750 450 l 29x120040
 700 450 l 29
 700 550 l 29x120080
300 200 m 25x2120
 400 200 l 25
 400 100 l 25x4808
 500 100 l 25
 500 0 l 25
 550 0 l 25
 550 700 l 25
 500 700 l 25xa045
 500 600 l 25x0085
 400 600 l 25x0088
 400 500 l 25x0108
 300 500 l 25
 300 200 l 25x2120
150 300 m 25x0c10
 200 300 l 25
 200 400 l 25
 150 400 l 25
 150 300 l 25x0c10
50 200 m 25x0820
 50 500 l 25x0920
 250 500 l 25x0908
 250 600 l 25x0088
 350 600 l 25
 350 700 l 25x0144
 450 700 l 25x0082
 450 800 l 25
 650 800 l 25
 650 -100 l 25
 450 -100 l 25x8042
 450 0 l 25x4002
 350 0 l 25x4004
 350 100 l 25x2004
 250 100 l 25x2008
 250 200 l 25x0808
 50 200 l 25x0820
EndSplineSet
Validated: 1
EndChar

StartChar: u1F50A
Encoding: 128266 128266 299
Width: 1200
Flags: W
HStem: -100 100<550 600> 0 100<450 500> 50 100<900 950> 100 100<350 400> 150 100<750 800> 200 100<200 250> 400 100<200 250> 450 100<750 800> 500 100<350 400> 550 100<900 950> 600 100<450 500> 700 100<550 600>
VStem: 100 250<200 300 400 500> 100 100<300 400> 300 150<100 200 500 600> 400 150<0 100 600 700> 500 200<-100 0 700 800> 600 100<0 700> 750 100<150 250 450 550> 800 100<250 450> 900 100<50 150 550 650> 950 100<150 250 450 550> 1000 100<250 450>
LayerCount: 2
Back
Fore
SplineSet
900 550 m 29x004008
 900 650 l 25
 1000 650 l 25
 1000 550 l 25x004008
 1050 550 l 25x004004
 1050 450 l 25x010004
 1100 450 l 25
 1100 250 l 25x090002
 1050 250 l 25
 1050 150 l 25x090004
 1000 150 l 25x090008
 1000 50 l 25
 900 50 l 25
 900 150 l 25x200008
 950 150 l 25x200004
 950 250 l 25x080004
 1000 250 l 25
 1000 450 l 25x090002
 950 450 l 25x090004
 950 550 l 25x004004
 900 550 l 29x004008
750 550 m 25x090020
 850 550 l 25x004020
 850 450 l 25x010020
 900 450 l 25
 900 250 l 25x090010
 850 250 l 25
 850 150 l 25
 750 150 l 25
 750 250 l 25x090020
 800 250 l 25
 800 450 l 25x090010
 750 450 l 25
 750 550 l 25x090020
350 200 m 25x1088
 450 200 l 25
 450 100 l 25x4402
 550 100 l 25
 550 0 l 25
 600 0 l 25
 600 700 l 25
 550 700 l 25x901140
 550 600 l 25x002140
 450 600 l 25x0022
 450 500 l 25x0082
 350 500 l 25
 350 200 l 25x1088
200 300 m 25x0604
 250 300 l 25
 250 400 l 25
 200 400 l 25
 200 300 l 25x0604
100 200 m 25x0408
 100 500 l 25x0488
 300 500 l 25x0482
 300 600 l 25x0022
 400 600 l 25
 400 700 l 25x0091
 500 700 l 25x002080
 500 800 l 25
 700 800 l 25
 700 -100 l 25
 500 -100 l 25x801080
 500 0 l 25x400080
 400 0 l 25x4001
 400 100 l 25x1001
 300 100 l 25x1002
 300 200 l 25x0402
 100 200 l 25x0408
EndSplineSet
Validated: 1
EndChar

StartChar: u1F50B
Encoding: 128267 128267 300
Width: 600
Flags: W
HStem: -100 100<150 450> 100 300<150 250 350 450>
VStem: 50 200<300 400 500 600> 50 100<0 100 400 500> 350 200<300 400 500 600> 450 100<0 100 400 500>
LayerCount: 2
Back
Fore
SplineSet
250 300 m 25xe0
 350 300 l 25
 350 400 l 25xe8
 450 400 l 25
 450 500 l 25xc4
 350 500 l 25
 350 600 l 25
 250 600 l 25
 250 500 l 25xe8
 150 500 l 25
 150 400 l 25xd0
 250 400 l 25
 250 300 l 25xe0
150 0 m 1xd4
 450 0 l 25
 450 100 l 1
 150 100 l 29
 150 0 l 1xd4
50 -100 m 25
 50 700 l 25
 200 700 l 25
 200 800 l 25
 400 800 l 25
 400 700 l 25
 550 700 l 25
 550 -100 l 25
 50 -100 l 25
EndSplineSet
Validated: 1
EndChar

StartChar: u1F50D
Encoding: 128269 128269 301
Width: 600
Flags: W
HStem: 200 100<200 400> 700 100<200 400>
VStem: 50 100<400 600> 100 100<300 400 600 700> 400 100<300 400 600 700> 450 100<400 600> 500 100<-100 0>
LayerCount: 2
Back
Fore
SplineSet
200 300 m 29xd0
 400 300 l 25
 400 400 l 25xd8
 450 400 l 25
 450 600 l 25xc4
 400 600 l 25
 400 700 l 25
 200 700 l 25
 200 600 l 25xd8
 150 600 l 25
 150 400 l 25xe0
 200 400 l 25
 200 300 l 29xd0
50 400 m 25xe0
 50 600 l 25xe0
 100 600 l 25
 100 700 l 25xd0
 150 700 l 25
 150 800 l 25
 450 800 l 25
 450 700 l 25xe4
 500 700 l 25
 500 600 l 25xc8
 550 600 l 25
 550 400 l 25xc4
 500 400 l 25xc8
 500 200 l 25xc2
 550 200 l 25
 550 100 l 25xc4
 600 100 l 25
 600 -100 l 25
 500 -100 l 25
 500 0 l 25xc2
 450 0 l 25
 450 100 l 25xc4
 400 100 l 25
 400 200 l 25
 150 200 l 25
 150 300 l 25xe8
 100 300 l 25
 100 400 l 25xd0
 50 400 l 25xe0
EndSplineSet
Validated: 1
EndChar

StartChar: u1F50E
Encoding: 128270 128270 302
Width: 600
Flags: W
HStem: 200 100<300 450> 700 100<250 450>
VStem: 100 100<-100 0 400 600> 150 150<100 200> 150 100<300 400 600 700> 200 300<200 300 700 800> 450 100<300 400 600 700> 500 100<400 600>
LayerCount: 2
Back
Fore
SplineSet
250 300 m 29xc8
 450 300 l 25
 450 400 l 25xca
 500 400 l 25
 500 600 l 25xc1
 450 600 l 25
 450 700 l 25
 250 700 l 25
 250 600 l 25xca
 200 600 l 25
 200 400 l 25xe0
 250 400 l 25
 250 300 l 29xc8
100 400 m 25xe0
 100 600 l 25xe0
 150 600 l 25
 150 700 l 25xc8
 200 700 l 25
 200 800 l 25
 500 800 l 25
 500 700 l 25xc4
 550 700 l 25
 550 600 l 25xc2
 600 600 l 25
 600 400 l 25xc1
 550 400 l 25
 550 300 l 25xc2
 500 300 l 25
 500 200 l 25xc4
 300 200 l 25
 300 100 l 25xd0
 250 100 l 25
 250 0 l 25xc8
 200 0 l 25
 200 -100 l 25
 100 -100 l 25
 100 100 l 25xe0
 150 100 l 25
 150 200 l 25xd0
 200 200 l 25
 200 300 l 25xc4
 150 300 l 25
 150 400 l 25xc8
 100 400 l 25xe0
EndSplineSet
Validated: 1
EndChar

StartChar: u1F512
Encoding: 128274 128274 303
Width: 600
Flags: W
HStem: 0 100<300 400> 400 100<250 450> 700 100<250 450>
VStem: 100 200<100 300> 100 100<500 600> 150 100<600 700> 400 200<100 300> 450 100<600 700> 500 100<500 600>
LayerCount: 2
Back
Fore
SplineSet
500 500 m 25xe880
 500 600 l 25xe880
 450 600 l 25
 450 700 l 25
 250 700 l 25
 250 600 l 25xe5
 200 600 l 25
 200 500 l 25
 500 500 l 25xe880
300 100 m 29xf0
 400 100 l 29
 400 300 l 29xf2
 450 300 l 29
 450 400 l 29
 250 400 l 29
 250 300 l 29xe5
 300 300 l 29
 300 100 l 29xf0
100 0 m 25xe880
 100 600 l 25xe880
 150 600 l 25
 150 700 l 25xe4
 200 700 l 25
 200 800 l 25
 500 800 l 25
 500 700 l 25xe880
 550 700 l 25
 550 600 l 25xe1
 600 600 l 25
 600 0 l 25
 100 0 l 25xe880
EndSplineSet
Validated: 1
EndChar

StartChar: u1F513
Encoding: 128275 128275 304
Width: 600
Flags: W
HStem: 0 100<300 400> 400 100<250 450> 600 100<500 550> 700 100<250 450>
VStem: 100 200<100 300> 100 100<500 600> 150 100<600 700> 400 200<100 300> 450 150<300 400> 450 100<600 700>
LayerCount: 2
Back
Fore
SplineSet
300 100 m 29xc8
 400 100 l 29
 400 300 l 29xc9
 450 300 l 29
 450 400 l 29
 250 400 l 29
 250 300 l 29xc280
 300 300 l 29
 300 100 l 29xc8
450 600 m 25xe440
 450 700 l 25
 250 700 l 25xd240
 250 600 l 25xe240
 200 600 l 25
 200 500 l 25
 600 500 l 25
 600 0 l 25
 100 0 l 25
 100 600 l 25xe480
 150 600 l 25xe2
 150 700 l 25xd2
 200 700 l 25
 200 800 l 25
 500 800 l 25xd4
 500 700 l 25
 550 700 l 25
 550 600 l 25
 450 600 l 25xe440
EndSplineSet
Validated: 1
EndChar

StartChar: u1F514
Encoding: 128276 128276 305
Width: 1200
Flags: W
HStem: -100 100<600 650>
VStem: 500 100<0 100> 550 150<-100 0 700 800> 650 100<0 100>
LayerCount: 2
Back
Fore
SplineSet
600 0 m 29xd0
 650 0 l 25
 650 100 l 25
 600 100 l 25
 600 0 l 29xd0
300 100 m 25
 300 300 l 25
 350 300 l 25
 350 500 l 25
 400 500 l 25
 400 600 l 25
 450 600 l 25
 450 700 l 25
 550 700 l 25
 550 800 l 25
 700 800 l 25
 700 700 l 25xa0
 800 700 l 25
 800 600 l 25
 850 600 l 25
 850 500 l 25
 900 500 l 25
 900 300 l 25
 950 300 l 25
 950 100 l 25
 750 100 l 25
 750 0 l 25x90
 700 0 l 25
 700 -100 l 25
 550 -100 l 25
 550 0 l 25xa0
 500 0 l 25
 500 100 l 25
 300 100 l 25
EndSplineSet
Validated: 1
EndChar

StartChar: u1F515
Encoding: 128277 128277 306
Width: 1200
Flags: W
HStem: 0 100<500 550 700 750> 100 100<400 450 600 650 800 850> 200 100<500 550 700 750> 600 200<550 700> 600 100<500 550 700 750>
VStem: 300 100<200 300> 350 100<300 500> 400 100<500 600> 500 100<0 100 200 300> 550 150<100 200 700 800> 650 100<0 100 200 300> 750 100<500 600> 800 100<300 500> 850 100<200 300>
LayerCount: 2
Back
Fore
SplineSet
500 0 m 29x80a0
 500 100 l 25x80a0
 550 100 l 25
 550 200 l 25xa040
 500 200 l 25
 500 300 l 25
 600 300 l 25xa080
 600 200 l 25
 650 200 l 25x40a0
 650 300 l 25
 750 300 l 25
 750 200 l 25x20a0
 700 200 l 25
 700 100 l 25xa040
 750 100 l 25
 750 0 l 25
 650 0 l 25xa020
 650 100 l 25
 600 100 l 25x40a0
 600 0 l 25
 500 0 l 29x80a0
550 700 m 25x2a40
 550 800 l 25
 700 800 l 25x1240
 700 700 l 25
 800 700 l 25
 800 600 l 25x0a48
 850 600 l 25
 850 500 l 25x0810
 900 500 l 25
 900 300 l 25x2808
 950 300 l 25x2804
 950 100 l 25x4004
 800 100 l 25
 800 200 l 25x4008
 850 200 l 25x4004
 850 300 l 25x2004
 800 300 l 25
 800 500 l 25x2008
 750 500 l 25
 750 600 l 25
 500 600 l 25
 500 500 l 25x2910
 450 500 l 25
 450 300 l 25x2a
 400 300 l 25x2c
 400 200 l 25x44
 450 200 l 25
 450 100 l 25x42
 300 100 l 25x44
 300 300 l 25x24
 350 300 l 25
 350 500 l 25x22
 400 500 l 25
 400 600 l 25x29
 450 600 l 25
 450 700 l 25
 550 700 l 25x2a40
EndSplineSet
Validated: 1
EndChar

StartChar: u1F517
Encoding: 128279 128279 307
Width: 1200
Flags: W
HStem: -100 100<600 950> 200 100<350 500> 400 100<800 950> 700 100<350 700>
VStem: 250 100<300 700> 500 100<0 200> 700 100<500 700> 950 100<0 400>
LayerCount: 2
Back
Fore
SplineSet
800 400 m 29
 800 300 l 25
 750 300 l 25
 750 200 l 25
 600 200 l 25
 600 0 l 25
 950 0 l 25
 950 400 l 25
 800 400 l 29
350 700 m 25
 350 300 l 25
 500 300 l 25
 500 400 l 25
 550 400 l 25
 550 500 l 25
 700 500 l 25
 700 700 l 25
 350 700 l 25
300 700 m 25
 300 800 l 25
 750 800 l 25
 750 700 l 25
 800 700 l 25
 800 500 l 25
 1000 500 l 25
 1000 400 l 25
 1050 400 l 25
 1050 0 l 25
 1000 0 l 25
 1000 -100 l 25
 550 -100 l 25
 550 0 l 25
 500 0 l 25
 500 200 l 25
 300 200 l 25
 300 300 l 25
 250 300 l 25
 250 700 l 25
 300 700 l 25
EndSplineSet
Validated: 1
EndChar

StartChar: u1F51E
Encoding: 128286 128286 308
Width: 600
Flags: W
HStem: 0 100<250 300> 100 100<150 200 350 400> 200 100<250 300 450 500 550 600> 300 100<150 200 350 400> 400 100<250 300>
VStem: 0 100<0 400> 50 50<400 500> 150 100<100 200 300 400> 200 150<0 100 200 300 400 500> 300 100<100 200 300 400> 450 150<200 300> 500 50<100 200 300 400>
LayerCount: 2
Back
Fore
SplineSet
500 100 m 29x4010
 500 200 l 25x2010
 450 200 l 25
 450 300 l 25x2020
 500 300 l 25
 500 400 l 25
 550 400 l 25
 550 300 l 25x2810
 600 300 l 25
 600 200 l 25x2820
 550 200 l 25x2810
 550 100 l 25
 500 100 l 29x4010
250 300 m 25x2940
 300 300 l 25
 300 400 l 25
 250 400 l 25
 250 300 l 25x2940
250 100 m 25xa140
 300 100 l 25
 300 200 l 25
 250 200 l 25
 250 100 l 25xa140
200 0 m 25x8080
 200 100 l 25x4080
 150 100 l 25
 150 200 l 25x41
 200 200 l 25
 200 300 l 25x5080
 150 300 l 25
 150 400 l 25x51
 200 400 l 25x5080
 200 500 l 25
 350 500 l 25x0880
 350 400 l 25x1080
 400 400 l 25
 400 300 l 25x1040
 350 300 l 25
 350 200 l 25x5080
 400 200 l 25
 400 100 l 25x5040
 350 100 l 25x5080
 350 0 l 25
 200 0 l 25x8080
0 0 m 25x8c
 0 400 l 25x8c
 50 400 l 25
 50 500 l 25
 100 500 l 25x8a
 100 0 l 25
 0 0 l 25x8c
EndSplineSet
Validated: 1
EndChar

